<?xml version="1.0" encoding="UTF-8"?>
<svg id="Layer_2" data-name="Layer 2" xmlns="http://www.w3.org/2000/svg" viewBox="0 0 292.68 56.16">
  <defs>
    <style>
      .cls-1 {
        fill: none;
        stroke: #fff;
        stroke-miterlimit: 10;
      }

      .cls-2 {
        fill: #fff;
        stroke-width: 0px;
      }
    </style>
  </defs>
  <g id="Layer_1-2" data-name="Layer 1">
    <g>
      <path class="cls-2" d="m0,44.14c0-6.62,4.68-10.73,13.32-11.38l10.08-.79v-.58c0-3.53-2.16-5.4-6.12-5.4-4.68,0-7.2,1.8-7.2,5.04H.86c0-8.14,6.7-13.46,16.99-13.46s16.35,5.83,16.35,16.13v21.03h-9.79l-.72-4.75c-1.15,3.31-5.9,5.69-11.31,5.69-7.63,0-12.39-4.46-12.39-11.52Zm23.47-2.88v-1.94l-5.62.5c-4.82.43-6.55,1.51-6.55,3.82,0,2.59,1.58,3.82,4.97,3.82,4.25,0,7.2-2.09,7.2-6.19Z"/>
      <path class="cls-2" d="m74.23,18.72v36h-10.44l-.72-4.03c-2.23,2.95-6.7,4.97-11.02,4.97-8.21,0-13.25-5.47-13.25-14.33v-22.61h11.09v18.58c0,5.9,2.02,8.5,6.55,8.5s6.7-2.45,6.7-8.35v-18.72h11.09Z"/>
      <path class="cls-2" d="m83.16,54.72v-26.79h-6.84v-9.22h6.84V7.56h11.09v11.16h6.84v9.22h-6.84v26.79h-11.09Z"/>
      <path class="cls-2" d="m103.17,54.72V.43h11.16v22.03c2.23-3.1,6.34-4.9,11.02-4.9,8.57,0,13.54,5.47,13.54,14.91v22.25h-11.09v-19.59c0-4.54-2.52-7.49-6.34-7.49-4.39,0-7.2,2.88-7.2,7.34v19.73h-11.09Z"/>
      <path class="cls-1" d="m140.11,36.65c0-11.23,7.56-19.08,18.43-19.08s18.36,7.42,18.36,19.15v2.81l-26.14.14c.65,4.75,3.31,6.98,8.21,6.98,4.18,0,7.13-1.51,7.92-4.1h10.15c-1.3,7.99-8.42,13.1-18.29,13.1-10.87,0-18.65-7.92-18.65-19.01Zm10.8-3.82h14.98c0-3.82-2.81-6.26-7.27-6.26s-6.84,1.94-7.7,6.26Z"/>
      <path class="cls-1" d="m178.7,54.72V18.72h10.44l.72,3.74c2.23-3.1,6.34-4.9,11.02-4.9,8.57,0,13.54,5.47,13.54,14.91v22.25h-11.09v-19.59c0-4.54-2.52-7.49-6.34-7.49-4.39,0-7.2,2.88-7.2,7.34v19.73h-11.09Z"/>
      <path class="cls-1" d="m222.91,54.72v-26.79h-6.84v-9.22h6.84V7.56h11.09v11.16h6.84v9.22h-6.84v26.79h-11.09Z"/>
      <path class="cls-1" d="m242.06,6.76c0-3.53,2.81-6.26,6.34-6.26s6.26,2.74,6.26,6.26-2.81,6.34-6.26,6.34-6.34-2.81-6.34-6.34Zm.86,11.95h11.09v36h-11.09V18.72Z"/>
      <path class="cls-1" d="m257.97,44.14c0-6.62,4.68-10.73,13.32-11.38l10.08-.79v-.58c0-3.53-2.16-5.4-6.12-5.4-4.68,0-7.2,1.8-7.2,5.04h-9.22c0-8.14,6.7-13.46,16.99-13.46s16.35,5.83,16.35,16.13v21.03h-9.79l-.72-4.75c-1.15,3.31-5.91,5.69-11.31,5.69-7.63,0-12.38-4.46-12.38-11.52Zm23.47-2.88v-1.94l-5.62.5c-4.82.43-6.55,1.51-6.55,3.82,0,2.59,1.58,3.82,4.97,3.82,4.25,0,7.2-2.09,7.2-6.19Z"/>
    </g>
    <circle class="cls-2" cx="248.38" cy="6.79" r="6.36"/>
  </g>
</svg>