<svg width="1146" height="220" viewBox="0 0 1146 220" fill="none" xmlns="http://www.w3.org/2000/svg">
<g clip-path="url(#clip0_771_664)">
<path d="M-0.000161324 172.787C-0.000161324 146.872 18.3198 130.784 52.1414 128.239L91.5999 125.147V122.876C91.5999 109.058 83.1445 101.738 67.643 101.738C49.3229 101.738 39.4583 108.784 39.4583 121.467H3.36634C3.36634 89.6029 29.5937 68.7776 69.8742 68.7776C110.155 68.7776 133.877 91.5993 133.877 131.919V214.242H95.5536L92.7351 195.648C88.2334 208.605 69.6394 217.921 48.4617 217.921C18.5939 217.921 -0.0393066 200.462 -0.0393066 172.826L-0.000161324 172.787ZM91.8739 161.513V153.919L69.8742 155.876C51.0062 157.559 44.234 161.787 44.234 170.829C44.234 180.968 50.419 185.783 63.6893 185.783C80.326 185.783 91.8739 177.602 91.8739 161.552V161.513Z" fill="white"/>
<path d="M290.576 73.28V214.203H249.708L246.89 198.428C238.16 209.975 220.662 217.883 203.752 217.883C171.613 217.883 151.884 196.47 151.884 161.788V73.28H195.296V146.012C195.296 169.108 203.204 179.286 220.936 179.286C238.669 179.286 247.164 169.695 247.164 146.599V73.3192H290.576V73.28Z" fill="white"/>
<path d="M325.532 214.203V109.332H298.757V73.2403H325.532V29.5933H368.944V73.2794H395.72V109.371H368.944V214.242H325.532V214.203Z" fill="white"/>
<path d="M403.862 214.203V1.68311H447.548V87.9202C456.278 75.7852 472.367 68.739 490.687 68.739C524.234 68.739 543.689 90.1515 543.689 127.105V214.203H500.277V137.517C500.277 119.745 490.413 108.198 475.459 108.198C458.274 108.198 447.274 119.471 447.274 136.93V214.164H403.862V214.203Z" fill="white"/>
<path d="M548.465 143.467C548.465 99.5067 578.059 68.7776 620.61 68.7776C663.161 68.7776 692.481 97.8234 692.481 143.741V154.741L590.155 155.289C592.699 173.883 603.112 182.612 622.293 182.612C638.656 182.612 650.204 176.701 653.296 166.563H693.029C687.94 197.84 660.068 217.843 621.432 217.843C578.881 217.843 548.426 186.84 548.426 143.428L548.465 143.467ZM590.742 128.513H649.382C649.382 113.56 638.382 104.008 620.923 104.008C603.464 104.008 594.147 111.603 590.781 128.513H590.742Z" stroke="white" stroke-width="3.91453" stroke-miterlimit="10"/>
<path d="M699.527 214.203V73.2794H740.394L743.213 87.9197C751.942 75.7847 768.031 68.7385 786.351 68.7385C819.898 68.7385 839.354 90.151 839.354 127.104V214.203H795.942V137.517C795.942 119.745 786.077 108.197 771.123 108.197C753.939 108.197 742.939 119.471 742.939 136.93V214.163H699.527V214.203Z" stroke="white" stroke-width="3.91453" stroke-miterlimit="10"/>
<path d="M872.588 214.203V109.332H845.813V73.2403H872.588V29.5933H916V73.2794H942.776V109.371H916V214.242H872.588V214.203Z" stroke="white" stroke-width="3.91453" stroke-miterlimit="10"/>
<path d="M947.551 26.4625C947.551 12.6442 958.551 1.95752 972.37 1.95752C986.188 1.95752 996.875 12.6833 996.875 26.4625C996.875 40.2416 985.875 51.2806 972.37 51.2806C958.864 51.2806 947.551 40.2808 947.551 26.4625ZM950.918 73.2411H994.33V214.164H950.918V73.2803V73.2411Z" stroke="white" stroke-width="3.91453" stroke-miterlimit="10"/>
<path d="M1009.83 172.787C1009.83 146.872 1028.15 130.784 1061.97 128.239L1101.43 125.147V122.876C1101.43 109.058 1092.98 101.738 1077.47 101.738C1059.15 101.738 1049.29 108.784 1049.29 121.467H1013.2C1013.2 89.6029 1039.43 68.7776 1079.71 68.7776C1119.99 68.7776 1143.71 91.5993 1143.71 131.919V214.242H1105.39L1102.57 195.648C1098.07 208.605 1079.43 217.921 1058.29 217.921C1028.43 217.921 1009.83 200.462 1009.83 172.826V172.787ZM1101.71 161.513V153.919L1079.71 155.876C1060.84 157.559 1054.07 161.787 1054.07 170.829C1054.07 180.968 1060.25 185.783 1073.52 185.783C1090.16 185.783 1101.71 177.602 1101.71 161.552V161.513Z" stroke="white" stroke-width="3.91453" stroke-miterlimit="10"/>
<path d="M972.291 51.4759C986.041 51.4759 997.188 40.3294 997.188 26.5795C997.188 12.8296 986.041 1.68311 972.291 1.68311C958.541 1.68311 947.395 12.8296 947.395 26.5795C947.395 40.3294 958.541 51.4759 972.291 51.4759Z" fill="white"/>
</g>
<defs>
<clipPath id="clip0_771_664">
<rect width="1145.71" height="219.84" fill="white"/>
</clipPath>
</defs>
</svg>
