<svg width="429" height="344" viewBox="0 0 429 344" fill="none" xmlns="http://www.w3.org/2000/svg">
<line x1="64.7393" y1="7.09472" x2="428.108" y2="7.09472" stroke="#636363" stroke-width="0.763682"/>
<line x1="64.7393" y1="125.559" x2="428.108" y2="125.559" stroke="#636363" stroke-width="0.763682"/>
<line x1="64.7393" y1="66.3965" x2="428.108" y2="66.3965" stroke="#8B8B8B" stroke-width="0.763682" stroke-dasharray="3.82 3.82"/>
<line x1="64.7393" y1="186.86" x2="428.108" y2="186.86" stroke="#8B8B8B" stroke-width="0.763682" stroke-dasharray="3.82 3.82"/>
<line x1="61.9412" y1="242.685" x2="425.309" y2="242.685" stroke="#636363" stroke-width="0.763682"/>
<path d="M3.38211 12.662V2.88991H3.94877V12.662H3.38211ZM1.13689 5.937C1.13689 5.50934 1.24381 5.1387 1.45764 4.82508C1.67147 4.50433 1.97083 4.25486 2.35573 4.07667C2.74062 3.89848 3.18967 3.80938 3.70286 3.80938C4.16616 3.80938 4.56888 3.89135 4.911 4.05529C5.26026 4.21922 5.53824 4.45444 5.74495 4.76093C5.95165 5.06742 6.07282 5.43449 6.10846 5.86216H5.33867C5.30303 5.42737 5.13909 5.09237 4.84686 4.85715C4.56175 4.61481 4.17685 4.49364 3.69217 4.49364C3.15046 4.49364 2.71567 4.6255 2.3878 4.88923C2.05993 5.14582 1.89599 5.49152 1.89599 5.92631C1.89599 6.26131 1.99578 6.53929 2.19535 6.76025C2.39493 6.9812 2.69786 7.14158 3.10413 7.24137L4.41919 7.56211C5.01792 7.71179 5.47053 7.95414 5.77702 8.28914C6.08351 8.62414 6.23676 9.04824 6.23676 9.56143C6.23676 9.99622 6.12984 10.3776 5.91601 10.7054C5.70218 11.0333 5.39925 11.2863 5.00723 11.4645C4.61521 11.6427 4.15547 11.7318 3.62802 11.7318C3.13621 11.7318 2.69786 11.6498 2.31296 11.4859C1.93519 11.322 1.63583 11.0868 1.41487 10.7803C1.20104 10.4738 1.0763 10.1138 1.04067 9.70042H1.83184C1.85322 10.1067 2.02785 10.431 2.35573 10.6734C2.6836 10.9157 3.1077 11.0369 3.62802 11.0369C4.19824 11.0369 4.64728 10.9086 4.97515 10.652C5.31016 10.3882 5.47766 10.039 5.47766 9.6042C5.47766 8.90568 5.07138 8.4602 4.25882 8.26775L2.96514 7.94701C2.36642 7.80445 1.91024 7.56568 1.59663 7.23067C1.29014 6.88854 1.13689 6.45732 1.13689 5.937ZM12.1222 4.56848L9.27825 7.39105L8.78644 6.96339L11.5342 4.24773L11.6304 4.63263H7.48207V3.94837H12.1222V4.56848ZM9.39586 7.49796H8.78644V6.96339C8.90761 6.92062 9.03947 6.88854 9.18203 6.86716C9.32458 6.84578 9.4707 6.83509 9.62038 6.83509C10.0124 6.83509 10.3688 6.89211 10.6895 7.00615C11.0103 7.11307 11.2918 7.27344 11.5342 7.48727C11.7765 7.69397 11.9618 7.94344 12.0901 8.23568C12.2256 8.52791 12.2933 8.85579 12.2933 9.2193C12.2933 9.72537 12.1792 10.1673 11.9511 10.5451C11.723 10.9228 11.4059 11.2151 10.9996 11.4218C10.6004 11.6285 10.1443 11.7318 9.63107 11.7318C9.125 11.7318 8.68309 11.6356 8.30532 11.4431C7.92755 11.2436 7.63175 10.9585 7.41792 10.5878C7.21122 10.2172 7.10787 9.77883 7.10787 9.27276H7.86697C7.86697 9.82159 8.02734 10.2528 8.34809 10.5664C8.66883 10.8801 9.09649 11.0369 9.63107 11.0369C10.2084 11.0369 10.6646 10.8694 10.9996 10.5344C11.3417 10.1994 11.5128 9.75388 11.5128 9.19792C11.5128 8.67047 11.331 8.25706 10.9675 7.9577C10.604 7.65121 10.0801 7.49796 9.39586 7.49796ZM15.8576 11.7318C15.3444 11.7318 14.899 11.632 14.5212 11.4325C14.1434 11.2257 13.8512 10.9371 13.6445 10.5664C13.4378 10.1958 13.3344 9.76101 13.3344 9.26207H14.1042C14.1042 9.8109 14.261 10.2421 14.5747 10.5557C14.8954 10.8694 15.3266 11.0262 15.8683 11.0262C16.2532 11.0262 16.5882 10.9478 16.8733 10.791C17.1584 10.627 17.3794 10.4025 17.5362 10.1174C17.693 9.83228 17.7714 9.50085 17.7714 9.12308C17.7714 8.76669 17.6966 8.44595 17.5469 8.16084C17.3972 7.8686 17.1798 7.63695 16.8947 7.46589C16.6167 7.29482 16.2746 7.20929 15.8683 7.20929C15.5191 7.20929 15.1876 7.28413 14.874 7.43381C14.5675 7.57637 14.3109 7.76169 14.1042 7.98977L13.4948 7.79733L14.4143 3.94837H18.1136V4.65401H14.5853L15.0772 4.21566L14.2967 7.43381L14.0401 7.40174C14.261 7.11663 14.5426 6.89924 14.8847 6.74955C15.2268 6.59987 15.5904 6.52503 15.9752 6.52503C16.5027 6.52503 16.9589 6.64264 17.3438 6.87785C17.7287 7.10594 18.0245 7.41599 18.2312 7.80802C18.445 8.19291 18.5519 8.62414 18.5519 9.10169C18.5519 9.61489 18.4379 10.0711 18.2098 10.4702C17.9817 10.8622 17.6645 11.1723 17.2582 11.4004C16.8591 11.6213 16.3922 11.7318 15.8576 11.7318ZM19.5784 7.77594C19.5784 6.97764 19.6996 6.28269 19.9419 5.69109C20.1914 5.09949 20.5442 4.63619 21.0004 4.30119C21.4637 3.96619 22.0125 3.79869 22.6469 3.79869C23.2812 3.79869 23.8265 3.96619 24.2827 4.30119C24.7388 4.63619 25.0881 5.09949 25.3304 5.69109C25.5799 6.28269 25.7046 6.97764 25.7046 7.77594C25.7046 8.57424 25.5835 9.2692 25.3411 9.86079C25.0988 10.4524 24.7495 10.9157 24.2934 11.2507C23.8372 11.5786 23.2883 11.7425 22.6469 11.7425C22.0054 11.7425 21.453 11.5786 20.9897 11.2507C20.5335 10.9157 20.1842 10.4524 19.9419 9.86079C19.6996 9.2692 19.5784 8.57424 19.5784 7.77594ZM20.3375 7.77594C20.3375 8.43882 20.4266 9.01616 20.6048 9.50797C20.7901 9.99978 21.0538 10.3811 21.3959 10.652C21.7381 10.9157 22.155 11.0476 22.6469 11.0476C23.1315 11.0476 23.5449 10.9157 23.8871 10.652C24.2363 10.3811 24.5001 9.99978 24.6782 9.50797C24.8636 9.01616 24.9562 8.43882 24.9562 7.77594C24.9562 7.10594 24.8636 6.5286 24.6782 6.04391C24.5001 5.5521 24.2363 5.17433 23.8871 4.91061C23.5449 4.63976 23.1315 4.50433 22.6469 4.50433C22.155 4.50433 21.7381 4.63976 21.3959 4.91061C21.0538 5.17433 20.7901 5.5521 20.6048 6.04391C20.4266 6.5286 20.3375 7.10594 20.3375 7.77594ZM27.3588 11.4966H27.4123C27.3766 11.5322 27.3303 11.5607 27.2733 11.5821C27.2234 11.6035 27.1592 11.6142 27.0808 11.6142C26.9383 11.6142 26.81 11.5643 26.6959 11.4645C26.5819 11.3576 26.5249 11.2151 26.5249 11.0369C26.5249 10.8515 26.5819 10.6983 26.6959 10.5771C26.8171 10.456 26.9704 10.3954 27.1557 10.3954C27.3481 10.3954 27.5156 10.4702 27.6582 10.6199C27.8007 10.7696 27.872 10.9763 27.872 11.24C27.872 11.461 27.8186 11.6677 27.7116 11.8601C27.6119 12.0526 27.4729 12.2094 27.2947 12.3305C27.1165 12.4588 26.9169 12.5408 26.6959 12.5764V12.1809C26.8884 12.1452 27.0452 12.0633 27.1664 11.935C27.2947 11.8138 27.3588 11.6677 27.3588 11.4966ZM28.6933 7.77594C28.6933 6.97764 28.8145 6.28269 29.0569 5.69109C29.3063 5.09949 29.6591 4.63619 30.1153 4.30119C30.5786 3.96619 31.1274 3.79869 31.7618 3.79869C32.3962 3.79869 32.9414 3.96619 33.3976 4.30119C33.8538 4.63619 34.203 5.09949 34.4454 5.69109C34.6949 6.28269 34.8196 6.97764 34.8196 7.77594C34.8196 8.57424 34.6984 9.2692 34.4561 9.86079C34.2137 10.4524 33.8645 10.9157 33.4083 11.2507C32.9521 11.5786 32.4033 11.7425 31.7618 11.7425C31.1203 11.7425 30.5679 11.5786 30.1046 11.2507C29.6485 10.9157 29.2992 10.4524 29.0569 9.86079C28.8145 9.2692 28.6933 8.57424 28.6933 7.77594ZM29.4524 7.77594C29.4524 8.43882 29.5415 9.01616 29.7197 9.50797C29.905 9.99978 30.1688 10.3811 30.5109 10.652C30.853 10.9157 31.27 11.0476 31.7618 11.0476C32.2465 11.0476 32.6599 10.9157 33.002 10.652C33.3513 10.3811 33.615 9.99978 33.7932 9.50797C33.9785 9.01616 34.0712 8.43882 34.0712 7.77594C34.0712 7.10594 33.9785 6.5286 33.7932 6.04391C33.615 5.5521 33.3513 5.17433 33.002 4.91061C32.6599 4.63976 32.2465 4.50433 31.7618 4.50433C31.27 4.50433 30.853 4.63976 30.5109 4.91061C30.1688 5.17433 29.905 5.5521 29.7197 6.04391C29.5415 6.5286 29.4524 7.10594 29.4524 7.77594ZM35.9916 7.77594C35.9916 6.97764 36.1127 6.28269 36.3551 5.69109C36.6046 5.09949 36.9574 4.63619 37.4135 4.30119C37.8768 3.96619 38.4257 3.79869 39.06 3.79869C39.6944 3.79869 40.2397 3.96619 40.6959 4.30119C41.152 4.63619 41.5013 5.09949 41.7436 5.69109C41.9931 6.28269 42.1178 6.97764 42.1178 7.77594C42.1178 8.57424 41.9967 9.2692 41.7543 9.86079C41.512 10.4524 41.1627 10.9157 40.7065 11.2507C40.2504 11.5786 39.7015 11.7425 39.06 11.7425C38.4186 11.7425 37.8662 11.5786 37.4029 11.2507C36.9467 10.9157 36.5974 10.4524 36.3551 9.86079C36.1127 9.2692 35.9916 8.57424 35.9916 7.77594ZM36.7507 7.77594C36.7507 8.43882 36.8398 9.01616 37.018 9.50797C37.2033 9.99978 37.467 10.3811 37.8091 10.652C38.1513 10.9157 38.5682 11.0476 39.06 11.0476C39.5447 11.0476 39.9581 10.9157 40.3003 10.652C40.6495 10.3811 40.9132 9.99978 41.0914 9.50797C41.2768 9.01616 41.3694 8.43882 41.3694 7.77594C41.3694 7.10594 41.2768 6.5286 41.0914 6.04391C40.9132 5.5521 40.6495 5.17433 40.3003 4.91061C39.9581 4.63976 39.5447 4.50433 39.06 4.50433C38.5682 4.50433 38.1513 4.63976 37.8091 4.91061C37.467 5.17433 37.2033 5.5521 37.018 6.04391C36.8398 6.5286 36.7507 7.10594 36.7507 7.77594ZM43.2898 7.77594C43.2898 6.97764 43.411 6.28269 43.6533 5.69109C43.9028 5.09949 44.2556 4.63619 44.7118 4.30119C45.1751 3.96619 45.7239 3.79869 46.3583 3.79869C46.9926 3.79869 47.5379 3.96619 47.9941 4.30119C48.4503 4.63619 48.7995 5.09949 49.0419 5.69109C49.2913 6.28269 49.4161 6.97764 49.4161 7.77594C49.4161 8.57424 49.2949 9.2692 49.0525 9.86079C48.8102 10.4524 48.4609 10.9157 48.0048 11.2507C47.5486 11.5786 46.9998 11.7425 46.3583 11.7425C45.7168 11.7425 45.1644 11.5786 44.7011 11.2507C44.2449 10.9157 43.8957 10.4524 43.6533 9.86079C43.411 9.2692 43.2898 8.57424 43.2898 7.77594ZM44.0489 7.77594C44.0489 8.43882 44.138 9.01616 44.3162 9.50797C44.5015 9.99978 44.7652 10.3811 45.1074 10.652C45.4495 10.9157 45.8665 11.0476 46.3583 11.0476C46.843 11.0476 47.2564 10.9157 47.5985 10.652C47.9478 10.3811 48.2115 9.99978 48.3897 9.50797C48.575 9.01616 48.6677 8.43882 48.6677 7.77594C48.6677 7.10594 48.575 6.5286 48.3897 6.04391C48.2115 5.5521 47.9478 5.17433 47.5985 4.91061C47.2564 4.63976 46.843 4.50433 46.3583 4.50433C45.8665 4.50433 45.4495 4.63976 45.1074 4.91061C44.7652 5.17433 44.5015 5.5521 44.3162 6.04391C44.138 6.5286 44.0489 7.10594 44.0489 7.77594Z" fill="white"/>
<path d="M138.437 317.902C137.504 317.902 136.682 317.687 135.973 317.258C135.273 316.819 134.722 316.213 134.321 315.438C133.929 314.663 133.733 313.763 133.733 312.736C133.733 311.709 133.934 310.809 134.335 310.034C134.736 309.25 135.296 308.643 136.015 308.214C136.734 307.775 137.56 307.556 138.493 307.556C139.221 307.556 139.879 307.691 140.467 307.962C141.055 308.233 141.55 308.615 141.951 309.11C142.352 309.595 142.618 310.174 142.749 310.846H141.671C141.456 310.118 141.064 309.549 140.495 309.138C139.926 308.727 139.244 308.522 138.451 308.522C137.723 308.522 137.079 308.699 136.519 309.054C135.968 309.399 135.539 309.889 135.231 310.524C134.932 311.149 134.783 311.887 134.783 312.736C134.783 313.567 134.937 314.299 135.245 314.934C135.553 315.569 135.982 316.063 136.533 316.418C137.084 316.763 137.723 316.936 138.451 316.936C139.244 316.936 139.935 316.735 140.523 316.334C141.111 315.933 141.512 315.401 141.727 314.738H142.805C142.656 315.363 142.371 315.914 141.951 316.39C141.54 316.866 141.032 317.239 140.425 317.51C139.818 317.771 139.156 317.902 138.437 317.902ZM143.862 314.36C143.862 313.66 144.011 313.044 144.31 312.512C144.609 311.98 145.019 311.56 145.542 311.252C146.065 310.944 146.653 310.79 147.306 310.79C147.969 310.79 148.557 310.944 149.07 311.252C149.593 311.56 150.003 311.98 150.302 312.512C150.601 313.044 150.75 313.66 150.75 314.36C150.75 315.041 150.601 315.653 150.302 316.194C150.003 316.726 149.593 317.146 149.07 317.454C148.557 317.762 147.969 317.916 147.306 317.916C146.653 317.916 146.065 317.762 145.542 317.454C145.019 317.146 144.609 316.726 144.31 316.194C144.011 315.653 143.862 315.041 143.862 314.36ZM144.842 314.346C144.842 314.878 144.945 315.349 145.15 315.76C145.365 316.161 145.654 316.479 146.018 316.712C146.391 316.936 146.821 317.048 147.306 317.048C147.791 317.048 148.216 316.936 148.58 316.712C148.953 316.479 149.243 316.161 149.448 315.76C149.663 315.349 149.77 314.878 149.77 314.346C149.77 313.823 149.663 313.361 149.448 312.96C149.243 312.559 148.953 312.241 148.58 312.008C148.216 311.775 147.791 311.658 147.306 311.658C146.821 311.658 146.391 311.775 146.018 312.008C145.654 312.241 145.365 312.559 145.15 312.96C144.945 313.361 144.842 313.823 144.842 314.346ZM151.721 315.844H152.645C152.645 316.236 152.785 316.549 153.065 316.782C153.345 317.006 153.718 317.118 154.185 317.118C154.708 317.118 155.114 317.015 155.403 316.81C155.702 316.595 155.851 316.306 155.851 315.942C155.851 315.662 155.772 315.438 155.613 315.27C155.454 315.102 155.174 314.967 154.773 314.864L153.611 314.57C153.023 314.421 152.584 314.192 152.295 313.884C152.006 313.576 151.861 313.193 151.861 312.736C151.861 312.344 151.964 312.003 152.169 311.714C152.374 311.415 152.659 311.187 153.023 311.028C153.396 310.869 153.826 310.79 154.311 310.79C154.787 310.79 155.202 310.874 155.557 311.042C155.912 311.21 156.187 311.448 156.383 311.756C156.588 312.055 156.696 312.414 156.705 312.834H155.767C155.758 312.433 155.622 312.125 155.361 311.91C155.1 311.695 154.74 311.588 154.283 311.588C153.807 311.588 153.438 311.686 153.177 311.882C152.925 312.078 152.799 312.358 152.799 312.722C152.799 313.245 153.168 313.599 153.905 313.786L155.067 314.08C155.655 314.229 156.084 314.449 156.355 314.738C156.635 315.027 156.775 315.415 156.775 315.9C156.775 316.301 156.668 316.656 156.453 316.964C156.238 317.272 155.935 317.51 155.543 317.678C155.16 317.837 154.712 317.916 154.199 317.916C153.443 317.916 152.841 317.729 152.393 317.356C151.945 316.973 151.721 316.469 151.721 315.844ZM157.609 310.972H161.277V311.784H157.609V310.972ZM159.919 317.748H158.967V308.83H159.919V317.748ZM165.942 314.36C165.942 313.66 166.091 313.044 166.39 312.512C166.689 311.98 167.099 311.56 167.622 311.252C168.145 310.944 168.733 310.79 169.386 310.79C170.049 310.79 170.637 310.944 171.15 311.252C171.673 311.56 172.083 311.98 172.382 312.512C172.681 313.044 172.83 313.66 172.83 314.36C172.83 315.041 172.681 315.653 172.382 316.194C172.083 316.726 171.673 317.146 171.15 317.454C170.637 317.762 170.049 317.916 169.386 317.916C168.733 317.916 168.145 317.762 167.622 317.454C167.099 317.146 166.689 316.726 166.39 316.194C166.091 315.653 165.942 315.041 165.942 314.36ZM166.922 314.346C166.922 314.878 167.025 315.349 167.23 315.76C167.445 316.161 167.734 316.479 168.098 316.712C168.471 316.936 168.901 317.048 169.386 317.048C169.871 317.048 170.296 316.936 170.66 316.712C171.033 316.479 171.323 316.161 171.528 315.76C171.743 315.349 171.85 314.878 171.85 314.346C171.85 313.823 171.743 313.361 171.528 312.96C171.323 312.559 171.033 312.241 170.66 312.008C170.296 311.775 169.871 311.658 169.386 311.658C168.901 311.658 168.471 311.775 168.098 312.008C167.734 312.241 167.445 312.559 167.23 312.96C167.025 313.361 166.922 313.823 166.922 314.346ZM173.565 310.972H177.163V311.784H173.565V310.972ZM177.219 307.598V308.424C177.153 308.424 177.069 308.424 176.967 308.424C176.864 308.424 176.757 308.424 176.645 308.424C176.215 308.424 175.926 308.531 175.777 308.746C175.637 308.951 175.567 309.255 175.567 309.656V317.748H174.601V309.656C174.601 309.152 174.685 308.746 174.853 308.438C175.021 308.121 175.245 307.892 175.525 307.752C175.814 307.612 176.131 307.542 176.477 307.542C176.598 307.542 176.724 307.547 176.855 307.556C176.985 307.565 177.107 307.579 177.219 307.598ZM185.622 317.748H182.57V307.724H185.594C186.602 307.724 187.484 307.934 188.24 308.354C188.996 308.774 189.584 309.362 190.004 310.118C190.424 310.865 190.634 311.737 190.634 312.736C190.634 313.735 190.424 314.612 190.004 315.368C189.593 316.115 189.01 316.698 188.254 317.118C187.507 317.538 186.63 317.748 185.622 317.748ZM183.578 308.2V317.272L183.116 316.824H185.58C186.401 316.824 187.11 316.656 187.708 316.32C188.305 315.984 188.767 315.513 189.094 314.906C189.43 314.29 189.598 313.567 189.598 312.736C189.598 311.905 189.43 311.182 189.094 310.566C188.767 309.95 188.3 309.479 187.694 309.152C187.096 308.816 186.382 308.648 185.552 308.648H183.116L183.578 308.2ZM191.768 314.36C191.768 313.66 191.918 313.044 192.216 312.512C192.515 311.98 192.926 311.56 193.448 311.252C193.971 310.944 194.559 310.79 195.212 310.79C195.875 310.79 196.463 310.944 196.976 311.252C197.499 311.56 197.91 311.98 198.208 312.512C198.507 313.044 198.656 313.66 198.656 314.36C198.656 315.041 198.507 315.653 198.208 316.194C197.91 316.726 197.499 317.146 196.976 317.454C196.463 317.762 195.875 317.916 195.212 317.916C194.559 317.916 193.971 317.762 193.448 317.454C192.926 317.146 192.515 316.726 192.216 316.194C191.918 315.653 191.768 315.041 191.768 314.36ZM192.748 314.346C192.748 314.878 192.851 315.349 193.056 315.76C193.271 316.161 193.56 316.479 193.924 316.712C194.298 316.936 194.727 317.048 195.212 317.048C195.698 317.048 196.122 316.936 196.486 316.712C196.86 316.479 197.149 316.161 197.354 315.76C197.569 315.349 197.676 314.878 197.676 314.346C197.676 313.823 197.569 313.361 197.354 312.96C197.149 312.559 196.86 312.241 196.486 312.008C196.122 311.775 195.698 311.658 195.212 311.658C194.727 311.658 194.298 311.775 193.924 312.008C193.56 312.241 193.271 312.559 193.056 312.96C192.851 313.361 192.748 313.823 192.748 314.346ZM201.329 317.748L199.089 310.972H200.083L201.413 315.06C201.487 315.284 201.557 315.513 201.623 315.746C201.697 315.979 201.767 316.236 201.833 316.516C201.87 316.339 201.917 316.152 201.973 315.956C202.029 315.751 202.08 315.569 202.127 315.41C202.183 315.251 202.22 315.135 202.239 315.06L203.583 310.972H204.577L205.907 315.06C205.935 315.153 205.967 315.261 206.005 315.382C206.042 315.494 206.079 315.611 206.117 315.732C206.154 315.853 206.187 315.984 206.215 316.124C206.252 316.255 206.289 316.385 206.327 316.516C206.373 316.32 206.411 316.161 206.439 316.04C206.467 315.909 206.504 315.774 206.551 315.634C206.597 315.494 206.658 315.303 206.733 315.06L208.077 310.972H209.085L206.789 317.748H205.851L204.451 313.492C204.367 313.24 204.292 313.007 204.227 312.792C204.171 312.577 204.124 312.367 204.087 312.162C204.04 312.349 203.984 312.549 203.919 312.764C203.863 312.969 203.788 313.212 203.695 313.492L202.295 317.748H201.329ZM211.257 317.748H210.291V310.972H211.131L211.271 312.148C211.495 311.719 211.813 311.387 212.223 311.154C212.643 310.911 213.101 310.79 213.595 310.79C214.529 310.79 215.201 311.047 215.611 311.56C216.022 312.073 216.227 312.755 216.227 313.604V317.748H215.261V313.814C215.261 313.021 215.093 312.465 214.757 312.148C214.431 311.831 213.987 311.672 213.427 311.672C212.737 311.672 212.2 311.905 211.817 312.372C211.444 312.829 211.257 313.441 211.257 314.206V317.748ZM217.397 310.972H221.065V311.784H217.397V310.972ZM219.707 317.748H218.755V308.83H219.707V317.748ZM222.322 317.748V310.972H223.288V317.748H222.322ZM222.798 309.11C222.602 309.11 222.434 309.04 222.294 308.9C222.154 308.76 222.084 308.592 222.084 308.396C222.084 308.2 222.154 308.032 222.294 307.892C222.434 307.743 222.602 307.668 222.798 307.668C222.994 307.668 223.162 307.743 223.302 307.892C223.452 308.032 223.526 308.2 223.526 308.396C223.526 308.592 223.452 308.76 223.302 308.9C223.162 309.04 222.994 309.11 222.798 309.11ZM226.269 317.748H225.303V310.972H226.143L226.283 312.246L226.143 312.204C226.283 311.775 226.544 311.434 226.927 311.182C227.319 310.921 227.776 310.79 228.299 310.79C228.906 310.79 229.41 310.958 229.811 311.294C230.222 311.621 230.483 312.069 230.595 312.638H230.385C230.478 312.069 230.73 311.621 231.141 311.294C231.561 310.958 232.084 310.79 232.709 310.79C233.437 310.79 234.025 311.014 234.473 311.462C234.921 311.91 235.145 312.526 235.145 313.31V317.748H234.207V313.506C234.207 312.927 234.058 312.475 233.759 312.148C233.46 311.821 233.05 311.658 232.527 311.658C232.154 311.658 231.832 311.747 231.561 311.924C231.29 312.092 231.08 312.321 230.931 312.61C230.791 312.899 230.721 313.217 230.721 313.562V317.748H229.769V313.492C229.769 312.913 229.615 312.465 229.307 312.148C229.008 311.831 228.602 311.672 228.089 311.672C227.716 311.672 227.389 311.756 227.109 311.924C226.838 312.092 226.628 312.321 226.479 312.61C226.339 312.89 226.269 313.203 226.269 313.548V317.748ZM239.93 317.916C239.277 317.916 238.698 317.767 238.194 317.468C237.699 317.169 237.312 316.754 237.032 316.222C236.752 315.69 236.612 315.069 236.612 314.36C236.612 313.66 236.747 313.044 237.018 312.512C237.298 311.971 237.681 311.551 238.166 311.252C238.651 310.944 239.216 310.79 239.86 310.79C240.476 310.79 241.013 310.925 241.47 311.196C241.937 311.467 242.296 311.845 242.548 312.33C242.809 312.806 242.94 313.366 242.94 314.01V314.486H237.144L237.172 313.786H241.974C241.974 313.133 241.778 312.61 241.386 312.218C241.003 311.817 240.495 311.616 239.86 311.616C239.393 311.616 238.983 311.723 238.628 311.938C238.283 312.153 238.017 312.461 237.83 312.862C237.643 313.254 237.55 313.721 237.55 314.262C237.55 315.158 237.755 315.853 238.166 316.348C238.586 316.843 239.179 317.09 239.944 317.09C240.495 317.09 240.947 316.973 241.302 316.74C241.657 316.507 241.895 316.166 242.016 315.718H242.94C242.763 316.427 242.417 316.973 241.904 317.356C241.391 317.729 240.733 317.916 239.93 317.916ZM248.367 317.748V310.972H249.333V317.748H248.367ZM248.843 309.11C248.647 309.11 248.479 309.04 248.339 308.9C248.199 308.76 248.129 308.592 248.129 308.396C248.129 308.2 248.199 308.032 248.339 307.892C248.479 307.743 248.647 307.668 248.843 307.668C249.039 307.668 249.207 307.743 249.347 307.892C249.497 308.032 249.571 308.2 249.571 308.396C249.571 308.592 249.497 308.76 249.347 308.9C249.207 309.04 249.039 309.11 248.843 309.11ZM252.314 317.748H251.348V310.972H252.188L252.328 312.148C252.552 311.719 252.869 311.387 253.28 311.154C253.7 310.911 254.157 310.79 254.652 310.79C255.585 310.79 256.257 311.047 256.668 311.56C257.079 312.073 257.284 312.755 257.284 313.604V317.748H256.318V313.814C256.318 313.021 256.15 312.465 255.814 312.148C255.487 311.831 255.044 311.672 254.484 311.672C253.793 311.672 253.257 311.905 252.874 312.372C252.501 312.829 252.314 313.441 252.314 314.206V317.748ZM264.296 317.748H263.302V307.724H264.296L267.95 316.558L271.604 307.724H272.612V317.748H271.618V312.988C271.618 312.549 271.618 312.167 271.618 311.84C271.627 311.513 271.632 311.229 271.632 310.986C271.641 310.743 271.651 310.529 271.66 310.342C271.669 310.146 271.683 309.959 271.702 309.782L268.44 317.748H267.474L264.212 309.824C264.24 310.011 264.259 310.37 264.268 310.902C264.287 311.425 264.296 312.069 264.296 312.834V317.748ZM279.596 310.972H280.562V317.748H279.722L279.596 316.6C279.409 316.992 279.097 317.309 278.658 317.552C278.229 317.795 277.748 317.916 277.216 317.916C276.423 317.916 275.811 317.664 275.382 317.16C274.962 316.656 274.752 315.993 274.752 315.172V310.958H275.732V314.864C275.732 315.667 275.895 316.231 276.222 316.558C276.558 316.885 276.992 317.048 277.524 317.048C278.177 317.048 278.686 316.838 279.05 316.418C279.414 315.989 279.596 315.373 279.596 314.57V310.972ZM283.54 317.748H282.574V310.972H283.414L283.554 312.148C283.778 311.719 284.096 311.387 284.506 311.154C284.926 310.911 285.384 310.79 285.878 310.79C286.812 310.79 287.484 311.047 287.894 311.56C288.305 312.073 288.51 312.755 288.51 313.604V317.748H287.544V313.814C287.544 313.021 287.376 312.465 287.04 312.148C286.714 311.831 286.27 311.672 285.71 311.672C285.02 311.672 284.483 311.905 284.1 312.372C283.727 312.829 283.54 313.441 283.54 314.206V317.748ZM290.436 317.748V310.972H291.402V317.748H290.436ZM290.912 309.11C290.716 309.11 290.548 309.04 290.408 308.9C290.268 308.76 290.198 308.592 290.198 308.396C290.198 308.2 290.268 308.032 290.408 307.892C290.548 307.743 290.716 307.668 290.912 307.668C291.108 307.668 291.276 307.743 291.416 307.892C291.565 308.032 291.64 308.2 291.64 308.396C291.64 308.592 291.565 308.76 291.416 308.9C291.276 309.04 291.108 309.11 290.912 309.11ZM292.66 310.972H296.328V311.784H292.66V310.972ZM294.97 317.748H294.018V308.83H294.97V317.748ZM300.36 317.916C299.706 317.916 299.128 317.767 298.624 317.468C298.129 317.169 297.742 316.754 297.462 316.222C297.182 315.69 297.042 315.069 297.042 314.36C297.042 313.66 297.177 313.044 297.448 312.512C297.728 311.971 298.11 311.551 298.596 311.252C299.081 310.944 299.646 310.79 300.29 310.79C300.906 310.79 301.442 310.925 301.9 311.196C302.366 311.467 302.726 311.845 302.978 312.33C303.239 312.806 303.37 313.366 303.37 314.01V314.486H297.574L297.602 313.786H302.404C302.404 313.133 302.208 312.61 301.816 312.218C301.433 311.817 300.924 311.616 300.29 311.616C299.823 311.616 299.412 311.723 299.058 311.938C298.712 312.153 298.446 312.461 298.26 312.862C298.073 313.254 297.98 313.721 297.98 314.262C297.98 315.158 298.185 315.853 298.596 316.348C299.016 316.843 299.608 317.09 300.374 317.09C300.924 317.09 301.377 316.973 301.732 316.74C302.086 316.507 302.324 316.166 302.446 315.718H303.37C303.192 316.427 302.847 316.973 302.334 317.356C301.82 317.729 301.162 317.916 300.36 317.916ZM304.34 315.844H305.264C305.264 316.236 305.404 316.549 305.684 316.782C305.964 317.006 306.338 317.118 306.804 317.118C307.327 317.118 307.733 317.015 308.022 316.81C308.321 316.595 308.47 316.306 308.47 315.942C308.47 315.662 308.391 315.438 308.232 315.27C308.074 315.102 307.794 314.967 307.392 314.864L306.23 314.57C305.642 314.421 305.204 314.192 304.914 313.884C304.625 313.576 304.48 313.193 304.48 312.736C304.48 312.344 304.583 312.003 304.788 311.714C304.994 311.415 305.278 311.187 305.642 311.028C306.016 310.869 306.445 310.79 306.93 310.79C307.406 310.79 307.822 310.874 308.176 311.042C308.531 311.21 308.806 311.448 309.002 311.756C309.208 312.055 309.315 312.414 309.324 312.834H308.386C308.377 312.433 308.242 312.125 307.98 311.91C307.719 311.695 307.36 311.588 306.902 311.588C306.426 311.588 306.058 311.686 305.796 311.882C305.544 312.078 305.418 312.358 305.418 312.722C305.418 313.245 305.787 313.599 306.524 313.786L307.686 314.08C308.274 314.229 308.704 314.449 308.974 314.738C309.254 315.027 309.394 315.415 309.394 315.9C309.394 316.301 309.287 316.656 309.072 316.964C308.858 317.272 308.554 317.51 308.162 317.678C307.78 317.837 307.332 317.916 306.818 317.916C306.062 317.916 305.46 317.729 305.012 317.356C304.564 316.973 304.34 316.469 304.34 315.844Z" fill="white"/>
<path d="M155.349 340.946H154.467C154.084 340.414 153.744 339.803 153.445 339.112C153.156 338.421 152.927 337.689 152.759 336.914C152.6 336.13 152.521 335.341 152.521 334.548C152.521 333.773 152.6 333.003 152.759 332.238C152.918 331.473 153.142 330.745 153.431 330.054C153.72 329.354 154.066 328.724 154.467 328.164H155.349C154.994 328.668 154.677 329.256 154.397 329.928C154.117 330.6 153.898 331.328 153.739 332.112C153.59 332.896 153.515 333.708 153.515 334.548C153.515 335.369 153.59 336.172 153.739 336.956C153.888 337.74 154.103 338.473 154.383 339.154C154.663 339.835 154.985 340.433 155.349 340.946ZM155.964 331.328C155.964 330.768 156.104 330.283 156.384 329.872C156.664 329.452 157.056 329.125 157.56 328.892C158.064 328.659 158.652 328.542 159.324 328.542C159.93 328.542 160.458 328.649 160.906 328.864C161.363 329.079 161.727 329.387 161.998 329.788C162.268 330.189 162.427 330.67 162.474 331.23H161.452C161.396 330.67 161.181 330.236 160.808 329.928C160.434 329.611 159.935 329.452 159.31 329.452C158.61 329.452 158.045 329.62 157.616 329.956C157.186 330.292 156.972 330.745 156.972 331.314C156.972 331.753 157.102 332.117 157.364 332.406C157.625 332.686 158.017 332.891 158.54 333.022L160.262 333.442C161.046 333.629 161.638 333.946 162.04 334.394C162.441 334.833 162.642 335.393 162.642 336.074C162.642 336.643 162.502 337.143 162.222 337.572C161.942 338.001 161.545 338.333 161.032 338.566C160.518 338.799 159.916 338.916 159.226 338.916C158.582 338.916 158.008 338.809 157.504 338.594C157.009 338.379 156.617 338.071 156.328 337.67C156.048 337.269 155.884 336.797 155.838 336.256H156.874C156.902 336.788 157.13 337.213 157.56 337.53C157.989 337.838 158.544 337.992 159.226 337.992C159.963 337.992 160.546 337.824 160.976 337.488C161.414 337.152 161.634 336.699 161.634 336.13C161.634 335.673 161.503 335.304 161.242 335.024C160.99 334.735 160.593 334.525 160.052 334.394L158.358 333.974C157.574 333.787 156.976 333.475 156.566 333.036C156.164 332.588 155.964 332.019 155.964 331.328ZM163.768 335.36C163.768 334.66 163.918 334.044 164.216 333.512C164.515 332.98 164.926 332.56 165.448 332.252C165.971 331.944 166.559 331.79 167.212 331.79C167.875 331.79 168.463 331.944 168.976 332.252C169.499 332.56 169.91 332.98 170.208 333.512C170.507 334.044 170.656 334.66 170.656 335.36C170.656 336.041 170.507 336.653 170.208 337.194C169.91 337.726 169.499 338.146 168.976 338.454C168.463 338.762 167.875 338.916 167.212 338.916C166.559 338.916 165.971 338.762 165.448 338.454C164.926 338.146 164.515 337.726 164.216 337.194C163.918 336.653 163.768 336.041 163.768 335.36ZM164.748 335.346C164.748 335.878 164.851 336.349 165.056 336.76C165.271 337.161 165.56 337.479 165.924 337.712C166.298 337.936 166.727 338.048 167.212 338.048C167.698 338.048 168.122 337.936 168.486 337.712C168.86 337.479 169.149 337.161 169.354 336.76C169.569 336.349 169.676 335.878 169.676 335.346C169.676 334.823 169.569 334.361 169.354 333.96C169.149 333.559 168.86 333.241 168.486 333.008C168.122 332.775 167.698 332.658 167.212 332.658C166.727 332.658 166.298 332.775 165.924 333.008C165.56 333.241 165.271 333.559 165.056 333.96C164.851 334.361 164.748 334.823 164.748 335.346ZM176.797 331.972H177.763V338.748H176.923L176.797 337.6C176.611 337.992 176.298 338.309 175.859 338.552C175.43 338.795 174.949 338.916 174.417 338.916C173.624 338.916 173.013 338.664 172.583 338.16C172.163 337.656 171.953 336.993 171.953 336.172V331.958H172.933V335.864C172.933 336.667 173.097 337.231 173.423 337.558C173.759 337.885 174.193 338.048 174.725 338.048C175.379 338.048 175.887 337.838 176.251 337.418C176.615 336.989 176.797 336.373 176.797 335.57V331.972ZM183.318 331.888V332.756H182.786C182.16 332.756 181.661 332.947 181.288 333.33C180.924 333.713 180.742 334.231 180.742 334.884V338.748H179.776V331.972H180.686L180.77 333.302H180.672C180.765 332.863 180.994 332.509 181.358 332.238C181.722 331.958 182.165 331.818 182.688 331.818C182.79 331.818 182.893 331.823 182.996 331.832C183.098 331.841 183.206 331.86 183.318 331.888ZM183.866 335.374C183.866 334.665 184.001 334.044 184.272 333.512C184.552 332.971 184.935 332.551 185.42 332.252C185.915 331.944 186.489 331.79 187.142 331.79C187.926 331.79 188.584 332 189.116 332.42C189.657 332.84 189.993 333.4 190.124 334.1H189.158C189.027 333.633 188.78 333.274 188.416 333.022C188.052 332.77 187.632 332.644 187.156 332.644C186.708 332.644 186.307 332.756 185.952 332.98C185.597 333.204 185.317 333.521 185.112 333.932C184.916 334.333 184.818 334.809 184.818 335.36C184.818 335.901 184.911 336.373 185.098 336.774C185.285 337.175 185.546 337.488 185.882 337.712C186.227 337.936 186.629 338.048 187.086 338.048C187.599 338.048 188.043 337.922 188.416 337.67C188.789 337.409 189.041 337.059 189.172 336.62H190.152C190.049 337.077 189.853 337.479 189.564 337.824C189.275 338.169 188.915 338.44 188.486 338.636C188.066 338.823 187.599 338.916 187.086 338.916C186.442 338.916 185.877 338.771 185.392 338.482C184.916 338.183 184.543 337.768 184.272 337.236C184.001 336.704 183.866 336.083 183.866 335.374ZM194.457 338.916C193.804 338.916 193.225 338.767 192.721 338.468C192.227 338.169 191.839 337.754 191.559 337.222C191.279 336.69 191.139 336.069 191.139 335.36C191.139 334.66 191.275 334.044 191.545 333.512C191.825 332.971 192.208 332.551 192.693 332.252C193.179 331.944 193.743 331.79 194.387 331.79C195.003 331.79 195.54 331.925 195.997 332.196C196.464 332.467 196.823 332.845 197.075 333.33C197.337 333.806 197.467 334.366 197.467 335.01V335.486H191.671L191.699 334.786H196.501C196.501 334.133 196.305 333.61 195.913 333.218C195.531 332.817 195.022 332.616 194.387 332.616C193.921 332.616 193.51 332.723 193.155 332.938C192.81 333.153 192.544 333.461 192.357 333.862C192.171 334.254 192.077 334.721 192.077 335.262C192.077 336.158 192.283 336.853 192.693 337.348C193.113 337.843 193.706 338.09 194.471 338.09C195.022 338.09 195.475 337.973 195.829 337.74C196.184 337.507 196.422 337.166 196.543 336.718H197.467C197.29 337.427 196.945 337.973 196.431 338.356C195.918 338.729 195.26 338.916 194.457 338.916ZM199.978 338.902C199.745 338.902 199.539 338.818 199.362 338.65C199.185 338.482 199.096 338.281 199.096 338.048C199.096 337.805 199.185 337.6 199.362 337.432C199.539 337.255 199.745 337.166 199.978 337.166C200.221 337.166 200.426 337.255 200.594 337.432C200.771 337.6 200.86 337.805 200.86 338.048C200.86 338.281 200.771 338.482 200.594 338.65C200.426 338.818 200.221 338.902 199.978 338.902ZM199.978 333.54C199.745 333.54 199.539 333.456 199.362 333.288C199.185 333.111 199.096 332.905 199.096 332.672C199.096 332.429 199.185 332.224 199.362 332.056C199.539 331.888 199.745 331.804 199.978 331.804C200.221 331.804 200.426 331.888 200.594 332.056C200.771 332.224 200.86 332.429 200.86 332.672C200.86 332.905 200.771 333.111 200.594 333.288C200.426 333.456 200.221 333.54 199.978 333.54ZM211.256 329.508C210.491 329.508 209.823 329.685 209.254 330.04C208.685 330.395 208.246 330.894 207.938 331.538C207.639 332.173 207.49 332.919 207.49 333.778C207.49 334.646 207.649 335.393 207.966 336.018C208.283 336.643 208.727 337.124 209.296 337.46C209.875 337.796 210.537 337.964 211.284 337.964C211.713 337.964 212.124 337.908 212.516 337.796C212.908 337.684 213.258 337.507 213.566 337.264C213.883 337.012 214.135 336.681 214.322 336.27C214.509 335.85 214.602 335.341 214.602 334.744V333.75L215.092 334.24H210.976V333.33H215.554V338.762H214.756L214.63 336.69L214.77 336.928C214.621 337.292 214.378 337.628 214.042 337.936C213.715 338.235 213.314 338.473 212.838 338.65C212.362 338.827 211.83 338.916 211.242 338.916C210.299 338.916 209.464 338.706 208.736 338.286C208.017 337.857 207.453 337.255 207.042 336.48C206.641 335.705 206.44 334.805 206.44 333.778C206.44 332.751 206.641 331.846 207.042 331.062C207.453 330.278 208.022 329.667 208.75 329.228C209.478 328.78 210.318 328.556 211.27 328.556C211.979 328.556 212.623 328.682 213.202 328.934C213.781 329.186 214.261 329.541 214.644 329.998C215.027 330.446 215.283 330.973 215.414 331.58H214.322C214.117 330.889 213.739 330.371 213.188 330.026C212.637 329.681 211.993 329.508 211.256 329.508ZM219.292 338.916C218.573 338.916 218.009 338.729 217.598 338.356C217.197 337.983 216.996 337.502 216.996 336.914C216.996 336.289 217.22 335.789 217.668 335.416C218.116 335.043 218.737 334.823 219.53 334.758L221.77 334.576V334.352C221.77 333.904 221.691 333.554 221.532 333.302C221.373 333.041 221.159 332.859 220.888 332.756C220.617 332.653 220.314 332.602 219.978 332.602C219.381 332.602 218.919 332.728 218.592 332.98C218.265 333.232 218.102 333.587 218.102 334.044H217.22C217.22 333.587 217.337 333.19 217.57 332.854C217.803 332.518 218.13 332.257 218.55 332.07C218.97 331.883 219.455 331.79 220.006 331.79C220.538 331.79 221.005 331.883 221.406 332.07C221.807 332.247 222.125 332.527 222.358 332.91C222.601 333.283 222.722 333.769 222.722 334.366V338.748H221.91L221.784 337.558C221.579 337.987 221.252 338.323 220.804 338.566C220.365 338.799 219.861 338.916 219.292 338.916ZM219.516 338.132C220.235 338.132 220.79 337.903 221.182 337.446C221.574 336.989 221.77 336.396 221.77 335.668V335.304L219.768 335.458C219.133 335.514 218.676 335.673 218.396 335.934C218.116 336.195 217.976 336.513 217.976 336.886C217.976 337.297 218.116 337.609 218.396 337.824C218.676 338.029 219.049 338.132 219.516 338.132ZM228.202 331.888V332.756H227.67C227.045 332.756 226.546 332.947 226.172 333.33C225.808 333.713 225.626 334.231 225.626 334.884V338.748H224.66V331.972H225.57L225.654 333.302H225.556C225.65 332.863 225.878 332.509 226.242 332.238C226.606 331.958 227.05 331.818 227.572 331.818C227.675 331.818 227.778 331.823 227.88 331.832C227.983 331.841 228.09 331.86 228.202 331.888ZM229.004 331.972H232.672V332.784H229.004V331.972ZM231.314 338.748H230.362V329.83H231.314V338.748ZM234.896 338.748H233.93V331.972H234.77L234.91 333.148C235.134 332.719 235.451 332.387 235.862 332.154C236.282 331.911 236.739 331.79 237.234 331.79C238.167 331.79 238.839 332.047 239.25 332.56C239.661 333.073 239.866 333.755 239.866 334.604V338.748H238.9V334.814C238.9 334.021 238.732 333.465 238.396 333.148C238.069 332.831 237.626 332.672 237.066 332.672C236.375 332.672 235.839 332.905 235.456 333.372C235.083 333.829 234.896 334.441 234.896 335.206V338.748ZM244.633 338.916C243.98 338.916 243.401 338.767 242.897 338.468C242.403 338.169 242.015 337.754 241.735 337.222C241.455 336.69 241.315 336.069 241.315 335.36C241.315 334.66 241.451 334.044 241.721 333.512C242.001 332.971 242.384 332.551 242.869 332.252C243.355 331.944 243.919 331.79 244.563 331.79C245.179 331.79 245.716 331.925 246.173 332.196C246.64 332.467 246.999 332.845 247.251 333.33C247.513 333.806 247.643 334.366 247.643 335.01V335.486H241.847L241.875 334.786H246.677C246.677 334.133 246.481 333.61 246.089 333.218C245.707 332.817 245.198 332.616 244.563 332.616C244.097 332.616 243.686 332.723 243.331 332.938C242.986 333.153 242.72 333.461 242.533 333.862C242.347 334.254 242.253 334.721 242.253 335.262C242.253 336.158 242.459 336.853 242.869 337.348C243.289 337.843 243.882 338.09 244.647 338.09C245.198 338.09 245.651 337.973 246.005 337.74C246.36 337.507 246.598 337.166 246.719 336.718H247.643C247.466 337.427 247.121 337.973 246.607 338.356C246.094 338.729 245.436 338.916 244.633 338.916ZM252.73 331.888V332.756H252.198C251.572 332.756 251.073 332.947 250.7 333.33C250.336 333.713 250.154 334.231 250.154 334.884V338.748H249.188V331.972H250.098L250.182 333.302H250.084C250.177 332.863 250.406 332.509 250.77 332.238C251.134 331.958 251.577 331.818 252.1 331.818C252.202 331.818 252.305 331.823 252.408 331.832C252.51 331.841 252.618 331.86 252.73 331.888ZM264.127 338.748H257.519V337.95L260.725 335.15C261.191 334.749 261.574 334.394 261.873 334.086C262.171 333.778 262.405 333.498 262.573 333.246C262.75 332.985 262.871 332.728 262.937 332.476C263.011 332.224 263.049 331.949 263.049 331.65C263.049 330.978 262.857 330.446 262.475 330.054C262.092 329.662 261.569 329.466 260.907 329.466C260.216 329.466 259.656 329.699 259.227 330.166C258.807 330.633 258.587 331.253 258.569 332.028H257.561C257.589 331.328 257.743 330.717 258.023 330.194C258.303 329.671 258.69 329.265 259.185 328.976C259.689 328.687 260.267 328.542 260.921 328.542C261.555 328.542 262.106 328.673 262.573 328.934C263.049 329.186 263.417 329.541 263.679 329.998C263.94 330.446 264.071 330.978 264.071 331.594C264.071 331.949 264.024 332.289 263.931 332.616C263.837 332.933 263.688 333.251 263.483 333.568C263.277 333.885 263.007 334.221 262.671 334.576C262.335 334.931 261.915 335.327 261.411 335.766L258.611 338.216L258.303 337.81H264.127V338.748ZM265.52 333.736C265.52 332.691 265.679 331.781 265.996 331.006C266.323 330.231 266.785 329.625 267.382 329.186C267.989 328.747 268.707 328.528 269.538 328.528C270.369 328.528 271.083 328.747 271.68 329.186C272.277 329.625 272.735 330.231 273.052 331.006C273.379 331.781 273.542 332.691 273.542 333.736C273.542 334.781 273.383 335.691 273.066 336.466C272.749 337.241 272.291 337.847 271.694 338.286C271.097 338.715 270.378 338.93 269.538 338.93C268.698 338.93 267.975 338.715 267.368 338.286C266.771 337.847 266.313 337.241 265.996 336.466C265.679 335.691 265.52 334.781 265.52 333.736ZM266.514 333.736C266.514 334.604 266.631 335.36 266.864 336.004C267.107 336.648 267.452 337.147 267.9 337.502C268.348 337.847 268.894 338.02 269.538 338.02C270.173 338.02 270.714 337.847 271.162 337.502C271.619 337.147 271.965 336.648 272.198 336.004C272.441 335.36 272.562 334.604 272.562 333.736C272.562 332.859 272.441 332.103 272.198 331.468C271.965 330.824 271.619 330.329 271.162 329.984C270.714 329.629 270.173 329.452 269.538 329.452C268.894 329.452 268.348 329.629 267.9 329.984C267.452 330.329 267.107 330.824 266.864 331.468C266.631 332.103 266.514 332.859 266.514 333.736ZM276.841 329.634H274.797V328.724H277.807V338.748H276.841V329.634ZM285.786 328.724V338.748H284.806V328.724H285.786ZM279.542 335.724L284.442 328.724H285.534L280.62 335.752L279.542 335.724ZM286.962 336.62H279.542V335.724H286.962V336.62ZM288.642 340.946H287.76C288.133 340.433 288.455 339.835 288.726 339.154C289.006 338.473 289.22 337.74 289.37 336.956C289.528 336.172 289.608 335.369 289.608 334.548C289.608 333.708 289.528 332.896 289.37 332.112C289.211 331.328 288.992 330.6 288.712 329.928C288.432 329.256 288.114 328.668 287.76 328.164H288.642C289.052 328.724 289.402 329.354 289.692 330.054C289.981 330.745 290.2 331.473 290.35 332.238C290.508 333.003 290.588 333.773 290.588 334.548C290.588 335.341 290.504 336.13 290.336 336.914C290.177 337.689 289.953 338.421 289.664 339.112C289.374 339.803 289.034 340.414 288.642 340.946Z" fill="#959595"/>
<path d="M7.50629 130.744V120.972H8.07295V130.744H7.50629ZM5.26107 124.019C5.26107 123.591 5.36799 123.221 5.58182 122.907C5.79565 122.586 6.09501 122.337 6.47991 122.159C6.8648 121.981 7.31385 121.891 7.82704 121.891C8.29034 121.891 8.69306 121.973 9.03518 122.137C9.38444 122.301 9.66242 122.536 9.86913 122.843C10.0758 123.149 10.197 123.517 10.2326 123.944H9.46285C9.42721 123.509 9.26327 123.174 8.97104 122.939C8.68593 122.697 8.30103 122.576 7.81635 122.576C7.27464 122.576 6.83985 122.708 6.51198 122.971C6.18411 123.228 6.02017 123.574 6.02017 124.008C6.02017 124.343 6.11996 124.621 6.31953 124.842C6.51911 125.063 6.82204 125.224 7.22831 125.323L8.54337 125.644C9.1421 125.794 9.59471 126.036 9.9012 126.371C10.2077 126.706 10.3609 127.13 10.3609 127.643C10.3609 128.078 10.254 128.46 10.0402 128.787C9.82636 129.115 9.52343 129.368 9.13141 129.547C8.73939 129.725 8.27965 129.814 7.7522 129.814C7.26039 129.814 6.82204 129.732 6.43714 129.568C6.05937 129.404 5.76001 129.169 5.53905 128.862C5.32522 128.556 5.20048 128.196 5.16485 127.782H5.95602C5.9774 128.189 6.15203 128.513 6.47991 128.755C6.80778 128.998 7.23188 129.119 7.7522 129.119C8.32242 129.119 8.77146 128.991 9.09933 128.734C9.43434 128.47 9.60184 128.121 9.60184 127.686C9.60184 126.988 9.19556 126.542 8.383 126.35L7.08932 126.029C6.4906 125.886 6.03442 125.648 5.72081 125.313C5.41432 124.971 5.26107 124.539 5.26107 124.019ZM12.7502 122.725H11.1893V122.03H13.488V129.686H12.7502V122.725ZM14.7327 122.03H19.9395V122.736H14.7327V122.03ZM19.3514 122.298L19.9395 122.736L16.9245 129.686H16.1333L19.3514 122.298ZM22.9366 129.814C22.4234 129.814 21.9779 129.714 21.6002 129.514C21.2224 129.308 20.9302 129.019 20.7235 128.648C20.5168 128.278 20.4134 127.843 20.4134 127.344H21.1832C21.1832 127.893 21.34 128.324 21.6536 128.638C21.9744 128.951 22.4056 129.108 22.9473 129.108C23.3322 129.108 23.6672 129.03 23.9523 128.873C24.2374 128.709 24.4584 128.485 24.6152 128.199C24.772 127.914 24.8504 127.583 24.8504 127.205C24.8504 126.849 24.7756 126.528 24.6259 126.243C24.4762 125.951 24.2588 125.719 23.9737 125.548C23.6957 125.377 23.3536 125.291 22.9473 125.291C22.598 125.291 22.2666 125.366 21.953 125.516C21.6465 125.658 21.3899 125.844 21.1832 126.072L20.5738 125.879L21.4933 122.03H25.1925V122.736H21.6643L22.1561 122.298L21.3756 125.516L21.1191 125.484C21.34 125.199 21.6216 124.981 21.9637 124.832C22.3058 124.682 22.6693 124.607 23.0542 124.607C23.5817 124.607 24.0378 124.725 24.4227 124.96C24.8076 125.188 25.1034 125.498 25.3101 125.89C25.524 126.275 25.6309 126.706 25.6309 127.184C25.6309 127.697 25.5168 128.153 25.2888 128.552C25.0607 128.944 24.7435 129.254 24.3372 129.482C23.9381 129.703 23.4712 129.814 22.9366 129.814ZM27.3588 129.579H27.4123C27.3766 129.614 27.3303 129.643 27.2733 129.664C27.2234 129.686 27.1592 129.696 27.0808 129.696C26.9383 129.696 26.81 129.646 26.6959 129.547C26.5819 129.44 26.5249 129.297 26.5249 129.119C26.5249 128.934 26.5819 128.78 26.6959 128.659C26.8171 128.538 26.9704 128.477 27.1557 128.477C27.3481 128.477 27.5156 128.552 27.6582 128.702C27.8007 128.852 27.872 129.058 27.872 129.322C27.872 129.543 27.8186 129.75 27.7116 129.942C27.6119 130.135 27.4729 130.291 27.2947 130.413C27.1165 130.541 26.9169 130.623 26.6959 130.658V130.263C26.8884 130.227 27.0452 130.145 27.1664 130.017C27.2947 129.896 27.3588 129.75 27.3588 129.579ZM28.6933 125.858C28.6933 125.06 28.8145 124.365 29.0569 123.773C29.3063 123.182 29.6591 122.718 30.1153 122.383C30.5786 122.048 31.1274 121.881 31.7618 121.881C32.3962 121.881 32.9414 122.048 33.3976 122.383C33.8538 122.718 34.2031 123.182 34.4454 123.773C34.6949 124.365 34.8196 125.06 34.8196 125.858C34.8196 126.656 34.6984 127.351 34.4561 127.943C34.2137 128.534 33.8645 128.998 33.4083 129.333C32.9521 129.661 32.4033 129.825 31.7618 129.825C31.1203 129.825 30.5679 129.661 30.1046 129.333C29.6485 128.998 29.2992 128.534 29.0569 127.943C28.8145 127.351 28.6933 126.656 28.6933 125.858ZM29.4524 125.858C29.4524 126.521 29.5415 127.098 29.7197 127.59C29.905 128.082 30.1688 128.463 30.5109 128.734C30.853 128.998 31.27 129.13 31.7618 129.13C32.2465 129.13 32.6599 128.998 33.002 128.734C33.3513 128.463 33.615 128.082 33.7932 127.59C33.9785 127.098 34.0712 126.521 34.0712 125.858C34.0712 125.188 33.9785 124.611 33.7932 124.126C33.615 123.634 33.3513 123.256 33.002 122.993C32.6599 122.722 32.2465 122.586 31.7618 122.586C31.27 122.586 30.853 122.722 30.5109 122.993C30.1688 123.256 29.905 123.634 29.7197 124.126C29.5415 124.611 29.4524 125.188 29.4524 125.858ZM35.9916 125.858C35.9916 125.06 36.1127 124.365 36.3551 123.773C36.6046 123.182 36.9574 122.718 37.4135 122.383C37.8768 122.048 38.4257 121.881 39.06 121.881C39.6944 121.881 40.2397 122.048 40.6959 122.383C41.152 122.718 41.5013 123.182 41.7436 123.773C41.9931 124.365 42.1178 125.06 42.1178 125.858C42.1178 126.656 41.9967 127.351 41.7543 127.943C41.512 128.534 41.1627 128.998 40.7065 129.333C40.2504 129.661 39.7015 129.825 39.06 129.825C38.4186 129.825 37.8662 129.661 37.4029 129.333C36.9467 128.998 36.5974 128.534 36.3551 127.943C36.1127 127.351 35.9916 126.656 35.9916 125.858ZM36.7507 125.858C36.7507 126.521 36.8398 127.098 37.018 127.59C37.2033 128.082 37.467 128.463 37.8091 128.734C38.1513 128.998 38.5682 129.13 39.06 129.13C39.5447 129.13 39.9581 128.998 40.3003 128.734C40.6495 128.463 40.9132 128.082 41.0914 127.59C41.2768 127.098 41.3694 126.521 41.3694 125.858C41.3694 125.188 41.2768 124.611 41.0914 124.126C40.9132 123.634 40.6495 123.256 40.3003 122.993C39.9581 122.722 39.5447 122.586 39.06 122.586C38.5682 122.586 38.1513 122.722 37.8091 122.993C37.467 123.256 37.2033 123.634 37.018 124.126C36.8398 124.611 36.7507 125.188 36.7507 125.858ZM43.2898 125.858C43.2898 125.06 43.411 124.365 43.6533 123.773C43.9028 123.182 44.2556 122.718 44.7118 122.383C45.1751 122.048 45.7239 121.881 46.3583 121.881C46.9926 121.881 47.5379 122.048 47.9941 122.383C48.4503 122.718 48.7995 123.182 49.0419 123.773C49.2913 124.365 49.4161 125.06 49.4161 125.858C49.4161 126.656 49.2949 127.351 49.0525 127.943C48.8102 128.534 48.4609 128.998 48.0048 129.333C47.5486 129.661 46.9998 129.825 46.3583 129.825C45.7168 129.825 45.1644 129.661 44.7011 129.333C44.2449 128.998 43.8957 128.534 43.6533 127.943C43.411 127.351 43.2898 126.656 43.2898 125.858ZM44.0489 125.858C44.0489 126.521 44.138 127.098 44.3162 127.59C44.5015 128.082 44.7652 128.463 45.1074 128.734C45.4495 128.998 45.8665 129.13 46.3583 129.13C46.843 129.13 47.2564 128.998 47.5985 128.734C47.9478 128.463 48.2115 128.082 48.3897 127.59C48.575 127.098 48.6677 126.521 48.6677 125.858C48.6677 125.188 48.575 124.611 48.3897 124.126C48.2115 123.634 47.9478 123.256 47.5985 122.993C47.2564 122.722 46.843 122.586 46.3583 122.586C45.8665 122.586 45.4495 122.722 45.1074 122.993C44.7652 123.256 44.5015 123.634 44.3162 124.126C44.138 124.611 44.0489 125.188 44.0489 125.858Z" fill="white"/>
<path d="M8.51795 192.428V182.656H9.0846V192.428H8.51795ZM6.27273 185.703C6.27273 185.275 6.37964 184.904 6.59347 184.591C6.8073 184.27 7.10667 184.02 7.49156 183.842C7.87646 183.664 8.3255 183.575 8.8387 183.575C9.302 183.575 9.70471 183.657 10.0468 183.821C10.3961 183.985 10.6741 184.22 10.8808 184.527C11.0875 184.833 11.2087 185.2 11.2443 185.628H10.4745C10.4389 185.193 10.2749 184.858 9.98269 184.623C9.69759 184.38 9.31269 184.259 8.82801 184.259C8.2863 184.259 7.85151 184.391 7.52364 184.655C7.19576 184.911 7.03183 185.257 7.03183 185.692C7.03183 186.027 7.13161 186.305 7.33119 186.526C7.53077 186.747 7.83369 186.907 8.23997 187.007L9.55503 187.328C10.1538 187.477 10.6064 187.72 10.9129 188.055C11.2193 188.39 11.3726 188.814 11.3726 189.327C11.3726 189.762 11.2657 190.143 11.0518 190.471C10.838 190.799 10.5351 191.052 10.1431 191.23C9.75104 191.408 9.29131 191.497 8.76386 191.497C8.27205 191.497 7.83369 191.415 7.4488 191.252C7.07103 191.088 6.77167 190.852 6.55071 190.546C6.33688 190.239 6.21214 189.879 6.1765 189.466H6.96768C6.98906 189.872 7.16369 190.197 7.49156 190.439C7.81944 190.681 8.24354 190.802 8.76386 190.802C9.33407 190.802 9.78312 190.674 10.111 190.418C10.446 190.154 10.6135 189.805 10.6135 189.37C10.6135 188.671 10.2072 188.226 9.39466 188.033L8.10098 187.713C7.50226 187.57 7.04608 187.331 6.73246 186.996C6.42597 186.654 6.27273 186.223 6.27273 185.703ZM12.372 189.284C12.372 188.757 12.5359 188.304 12.8638 187.926C13.1917 187.549 13.63 187.306 14.1789 187.199L14.1896 187.403C13.6978 187.274 13.3164 187.05 13.0456 186.729C12.7747 186.401 12.6393 186.009 12.6393 185.553C12.6393 185.161 12.7426 184.819 12.9493 184.527C13.156 184.227 13.4447 183.996 13.8154 183.832C14.186 183.661 14.6172 183.575 15.109 183.575C15.5937 183.575 16.0178 183.661 16.3813 183.832C16.7448 183.996 17.0264 184.227 17.226 184.527C17.4327 184.819 17.536 185.164 17.536 185.564C17.536 186.02 17.4006 186.412 17.1297 186.74C16.866 187.06 16.4918 187.278 16.0071 187.392L15.9964 187.21C16.3599 187.26 16.6771 187.385 16.948 187.584C17.226 187.777 17.4398 188.019 17.5895 188.311C17.7463 188.604 17.8247 188.931 17.8247 189.295C17.8247 189.73 17.7071 190.115 17.4719 190.45C17.2438 190.778 16.9266 191.034 16.5203 191.219C16.114 191.405 15.6401 191.497 15.0983 191.497C14.5566 191.497 14.0791 191.405 13.6657 191.219C13.2594 191.034 12.9422 190.774 12.7141 190.439C12.486 190.104 12.372 189.719 12.372 189.284ZM13.1311 189.22C13.1311 189.534 13.2131 189.812 13.377 190.054C13.5409 190.289 13.769 190.475 14.0613 190.61C14.3606 190.738 14.7099 190.802 15.109 190.802C15.5011 190.802 15.8432 190.738 16.1354 190.61C16.4277 190.475 16.6557 190.289 16.8197 190.054C16.9836 189.819 17.0656 189.541 17.0656 189.22C17.0656 188.75 16.8838 188.376 16.5203 188.098C16.1639 187.812 15.6864 187.67 15.0877 187.67C14.4961 187.67 14.0221 187.812 13.6657 188.098C13.3093 188.376 13.1311 188.75 13.1311 189.22ZM13.3663 185.574C13.3663 185.995 13.5231 186.337 13.8367 186.601C14.1575 186.857 14.578 186.986 15.0983 186.986C15.6187 186.986 16.0321 186.861 16.3386 186.611C16.6522 186.355 16.809 186.016 16.809 185.596C16.809 185.189 16.6522 184.865 16.3386 184.623C16.0321 184.38 15.6187 184.259 15.0983 184.259C14.578 184.259 14.1575 184.38 13.8367 184.623C13.5231 184.858 13.3663 185.175 13.3663 185.574ZM18.365 183.714H23.5718V184.42H18.365V183.714ZM22.9838 183.981L23.5718 184.42L20.5568 191.369H19.7656L22.9838 183.981ZM24.2045 191.262H24.258C24.2224 191.298 24.176 191.326 24.119 191.348C24.0691 191.369 24.005 191.38 23.9266 191.38C23.784 191.38 23.6557 191.33 23.5417 191.23C23.4276 191.123 23.3706 190.981 23.3706 190.802C23.3706 190.617 23.4276 190.464 23.5417 190.343C23.6628 190.222 23.8161 190.161 24.0014 190.161C24.1938 190.161 24.3613 190.236 24.5039 190.386C24.6465 190.535 24.7177 190.742 24.7177 191.006C24.7177 191.227 24.6643 191.433 24.5574 191.626C24.4576 191.818 24.3186 191.975 24.1404 192.096C23.9622 192.224 23.7626 192.306 23.5417 192.342V191.946C23.7341 191.911 23.8909 191.829 24.0121 191.701C24.1404 191.579 24.2045 191.433 24.2045 191.262ZM28.2708 191.497C27.7576 191.497 27.3122 191.398 26.9344 191.198C26.5566 190.991 26.2644 190.703 26.0577 190.332C25.851 189.961 25.7476 189.527 25.7476 189.028H26.5174C26.5174 189.577 26.6742 190.008 26.9878 190.321C27.3086 190.635 27.7398 190.792 28.2815 190.792C28.6664 190.792 29.0014 190.713 29.2865 190.557C29.5716 190.393 29.7926 190.168 29.9494 189.883C30.1062 189.598 30.1846 189.266 30.1846 188.889C30.1846 188.532 30.1098 188.212 29.9601 187.926C29.8104 187.634 29.593 187.403 29.3079 187.232C29.0299 187.06 28.6878 186.975 28.2815 186.975C27.9323 186.975 27.6008 187.05 27.2872 187.199C26.9807 187.342 26.7241 187.527 26.5174 187.755L25.908 187.563L26.8275 183.714H30.5267V184.42H26.9985L27.4903 183.981L26.7099 187.199L26.4533 187.167C26.6742 186.882 26.9558 186.665 27.2979 186.515C27.64 186.365 28.0035 186.291 28.3884 186.291C28.9159 186.291 29.3721 186.408 29.757 186.643C30.1418 186.872 30.4376 187.182 30.6444 187.574C30.8582 187.959 30.9651 188.39 30.9651 188.867C30.9651 189.381 30.8511 189.837 30.623 190.236C30.3949 190.628 30.0777 190.938 29.6714 191.166C29.2723 191.387 28.8054 191.497 28.2708 191.497ZM31.9916 187.542C31.9916 186.743 32.1127 186.048 32.3551 185.457C32.6046 184.865 32.9574 184.402 33.4135 184.067C33.8768 183.732 34.4257 183.564 35.06 183.564C35.6944 183.564 36.2397 183.732 36.6958 184.067C37.152 184.402 37.5013 184.865 37.7436 185.457C37.9931 186.048 38.1178 186.743 38.1178 187.542C38.1178 188.34 37.9967 189.035 37.7543 189.626C37.512 190.218 37.1627 190.681 36.7065 191.016C36.2504 191.344 35.7015 191.508 35.06 191.508C34.4185 191.508 33.8662 191.344 33.4029 191.016C32.9467 190.681 32.5974 190.218 32.3551 189.626C32.1127 189.035 31.9916 188.34 31.9916 187.542ZM32.7507 187.542C32.7507 188.204 32.8398 188.782 33.018 189.274C33.2033 189.765 33.467 190.147 33.8091 190.418C34.1513 190.681 34.5682 190.813 35.06 190.813C35.5447 190.813 35.9581 190.681 36.3003 190.418C36.6495 190.147 36.9132 189.765 37.0914 189.274C37.2768 188.782 37.3694 188.204 37.3694 187.542C37.3694 186.872 37.2768 186.294 37.0914 185.81C36.9132 185.318 36.6495 184.94 36.3003 184.676C35.9581 184.405 35.5447 184.27 35.06 184.27C34.5682 184.27 34.1513 184.405 33.8091 184.676C33.467 184.94 33.2033 185.318 33.018 185.81C32.8398 186.294 32.7507 186.872 32.7507 187.542ZM39.2898 187.542C39.2898 186.743 39.411 186.048 39.6533 185.457C39.9028 184.865 40.2556 184.402 40.7118 184.067C41.1751 183.732 41.7239 183.564 42.3583 183.564C42.9926 183.564 43.5379 183.732 43.9941 184.067C44.4503 184.402 44.7995 184.865 45.0419 185.457C45.2913 186.048 45.4161 186.743 45.4161 187.542C45.4161 188.34 45.2949 189.035 45.0525 189.626C44.8102 190.218 44.4609 190.681 44.0048 191.016C43.5486 191.344 42.9998 191.508 42.3583 191.508C41.7168 191.508 41.1644 191.344 40.7011 191.016C40.2449 190.681 39.8957 190.218 39.6533 189.626C39.411 189.035 39.2898 188.34 39.2898 187.542ZM40.0489 187.542C40.0489 188.204 40.138 188.782 40.3162 189.274C40.5015 189.765 40.7652 190.147 41.1074 190.418C41.4495 190.681 41.8665 190.813 42.3583 190.813C42.843 190.813 43.2564 190.681 43.5985 190.418C43.9478 190.147 44.2115 189.765 44.3897 189.274C44.575 188.782 44.6676 188.204 44.6676 187.542C44.6676 186.872 44.575 186.294 44.3897 185.81C44.2115 185.318 43.9478 184.94 43.5985 184.676C43.2564 184.405 42.843 184.27 42.3583 184.27C41.8665 184.27 41.4495 184.405 41.1074 184.676C40.7652 184.94 40.5015 185.318 40.3162 185.81C40.138 186.294 40.0489 186.872 40.0489 187.542Z" fill="white"/>
<path d="M146.455 256.652H144.894V255.957H147.193V263.612H146.455V256.652ZM151.171 263.741C150.658 263.741 150.212 263.641 149.834 263.441C149.457 263.235 149.164 262.946 148.958 262.575C148.751 262.205 148.648 261.77 148.648 261.271H149.417C149.417 261.82 149.574 262.251 149.888 262.565C150.209 262.878 150.64 263.035 151.181 263.035C151.566 263.035 151.901 262.957 152.186 262.8C152.472 262.636 152.693 262.411 152.849 262.126C153.006 261.841 153.085 261.51 153.085 261.132C153.085 260.775 153.01 260.455 152.86 260.17C152.71 259.877 152.493 259.646 152.208 259.475C151.93 259.304 151.588 259.218 151.181 259.218C150.832 259.218 150.501 259.293 150.187 259.443C149.881 259.585 149.624 259.77 149.417 259.999L148.808 259.806L149.727 255.957H153.427V256.663H149.898L150.39 256.224L149.61 259.443L149.353 259.411C149.574 259.125 149.856 258.908 150.198 258.758C150.54 258.609 150.903 258.534 151.288 258.534C151.816 258.534 152.272 258.651 152.657 258.887C153.042 259.115 153.338 259.425 153.544 259.817C153.758 260.202 153.865 260.633 153.865 261.11C153.865 261.624 153.751 262.08 153.523 262.479C153.295 262.871 152.978 263.181 152.571 263.409C152.172 263.63 151.705 263.741 151.171 263.741Z" fill="white"/>
<path d="M64.9389 259.785C64.9389 258.986 65.0601 258.291 65.3024 257.7C65.5519 257.108 65.9047 256.645 66.3609 256.31C66.8242 255.975 67.373 255.807 68.0074 255.807C68.6418 255.807 69.187 255.975 69.6432 256.31C70.0994 256.645 70.4486 257.108 70.691 257.7C70.9404 258.291 71.0652 258.986 71.0652 259.785C71.0652 260.583 70.944 261.278 70.7017 261.87C70.4593 262.461 70.1101 262.924 69.6539 263.259C69.1977 263.587 68.6489 263.751 68.0074 263.751C67.3659 263.751 66.8135 263.587 66.3502 263.259C65.894 262.924 65.5448 262.461 65.3024 261.87C65.0601 261.278 64.9389 260.583 64.9389 259.785ZM65.698 259.785C65.698 260.448 65.7871 261.025 65.9653 261.517C66.1506 262.009 66.4144 262.39 66.7565 262.661C67.0986 262.924 67.5156 263.056 68.0074 263.056C68.4921 263.056 68.9055 262.924 69.2476 262.661C69.5969 262.39 69.8606 262.009 70.0388 261.517C70.2241 261.025 70.3168 260.448 70.3168 259.785C70.3168 259.115 70.2241 258.537 70.0388 258.053C69.8606 257.561 69.5969 257.183 69.2476 256.919C68.9055 256.649 68.4921 256.513 68.0074 256.513C67.5156 256.513 67.0986 256.649 66.7565 256.919C66.4144 257.183 66.1506 257.561 65.9653 258.053C65.7871 258.537 65.698 259.115 65.698 259.785Z" fill="white"/>
<path d="M233.902 256.577L231.058 259.4L230.566 258.972L233.314 256.257L233.41 256.641H229.261V255.957H233.902V256.577ZM231.175 259.507H230.566V258.972C230.687 258.929 230.819 258.897 230.961 258.876C231.104 258.855 231.25 258.844 231.4 258.844C231.792 258.844 232.148 258.901 232.469 259.015C232.79 259.122 233.071 259.282 233.314 259.496C233.556 259.703 233.741 259.952 233.87 260.244C234.005 260.537 234.073 260.865 234.073 261.228C234.073 261.734 233.959 262.176 233.731 262.554C233.502 262.932 233.185 263.224 232.779 263.431C232.38 263.637 231.924 263.741 231.41 263.741C230.904 263.741 230.462 263.644 230.085 263.452C229.707 263.252 229.411 262.967 229.197 262.597C228.991 262.226 228.887 261.788 228.887 261.282H229.646C229.646 261.83 229.807 262.262 230.127 262.575C230.448 262.889 230.876 263.046 231.41 263.046C231.988 263.046 232.444 262.878 232.779 262.543C233.121 262.208 233.292 261.763 233.292 261.207C233.292 260.679 233.11 260.266 232.747 259.966C232.383 259.66 231.859 259.507 231.175 259.507ZM235.135 259.785C235.135 258.986 235.256 258.291 235.498 257.7C235.748 257.108 236.101 256.645 236.557 256.31C237.02 255.975 237.569 255.807 238.203 255.807C238.838 255.807 239.383 255.975 239.839 256.31C240.295 256.645 240.645 257.108 240.887 257.7C241.136 258.291 241.261 258.986 241.261 259.785C241.261 260.583 241.14 261.278 240.898 261.87C240.655 262.461 240.306 262.924 239.85 263.259C239.394 263.587 238.845 263.751 238.203 263.751C237.562 263.751 237.01 263.587 236.546 263.259C236.09 262.924 235.741 262.461 235.498 261.87C235.256 261.278 235.135 260.583 235.135 259.785ZM235.894 259.785C235.894 260.448 235.983 261.025 236.161 261.517C236.347 262.009 236.61 262.39 236.953 262.661C237.295 262.924 237.712 263.056 238.203 263.056C238.688 263.056 239.102 262.924 239.444 262.661C239.793 262.39 240.057 262.009 240.235 261.517C240.42 261.025 240.513 260.448 240.513 259.785C240.513 259.115 240.42 258.537 240.235 258.053C240.057 257.561 239.793 257.183 239.444 256.919C239.102 256.649 238.688 256.513 238.203 256.513C237.712 256.513 237.295 256.649 236.953 256.919C236.61 257.183 236.347 257.561 236.161 258.053C235.983 258.537 235.894 259.115 235.894 259.785Z" fill="white"/>
<path d="M319.215 255.957V263.612H318.466V255.957H319.215ZM314.446 261.303L318.188 255.957H319.022L315.27 261.324L314.446 261.303ZM320.113 261.987H314.446V261.303H320.113V261.987ZM323.655 263.741C323.142 263.741 322.697 263.641 322.319 263.441C321.941 263.235 321.649 262.946 321.442 262.575C321.235 262.205 321.132 261.77 321.132 261.271H321.902C321.902 261.82 322.059 262.251 322.372 262.565C322.693 262.878 323.124 263.035 323.666 263.035C324.051 263.035 324.386 262.957 324.671 262.8C324.956 262.636 325.177 262.411 325.334 262.126C325.491 261.841 325.569 261.51 325.569 261.132C325.569 260.775 325.494 260.455 325.345 260.17C325.195 259.877 324.977 259.646 324.692 259.475C324.414 259.304 324.072 259.218 323.666 259.218C323.317 259.218 322.985 259.293 322.672 259.443C322.365 259.585 322.109 259.77 321.902 259.999L321.292 259.806L322.212 255.957H325.911V256.663H322.383L322.875 256.224L322.094 259.443L321.838 259.411C322.059 259.125 322.34 258.908 322.682 258.758C323.024 258.609 323.388 258.534 323.773 258.534C324.3 258.534 324.756 258.651 325.141 258.887C325.526 259.115 325.822 259.425 326.029 259.817C326.243 260.202 326.35 260.633 326.35 261.11C326.35 261.624 326.235 262.08 326.007 262.479C325.779 262.871 325.462 263.181 325.056 263.409C324.657 263.63 324.19 263.741 323.655 263.741Z" fill="white"/>
<path d="M398.705 258.534L400.619 255.957H401.517L399.304 258.897L399.165 258.833C399.415 258.662 399.65 258.541 399.871 258.47C400.092 258.398 400.32 258.363 400.555 258.363C401.09 258.363 401.557 258.48 401.956 258.716C402.355 258.951 402.661 259.272 402.875 259.678C403.096 260.077 403.207 260.526 403.207 261.025C403.207 261.545 403.085 262.012 402.843 262.426C402.608 262.832 402.284 263.153 401.87 263.388C401.464 263.623 401.004 263.741 400.491 263.741C399.978 263.741 399.511 263.623 399.09 263.388C398.677 263.145 398.349 262.821 398.107 262.415C397.864 262.001 397.743 261.538 397.743 261.025C397.743 260.726 397.772 260.451 397.829 260.202C397.893 259.945 397.993 259.685 398.128 259.421C398.271 259.157 398.463 258.862 398.705 258.534ZM398.524 261.036C398.524 261.421 398.606 261.766 398.77 262.073C398.934 262.372 399.165 262.611 399.465 262.789C399.764 262.96 400.106 263.046 400.491 263.046C400.869 263.046 401.204 262.96 401.496 262.789C401.788 262.611 402.016 262.372 402.18 262.073C402.351 261.766 402.437 261.421 402.437 261.036C402.437 260.644 402.351 260.298 402.18 259.999C402.016 259.699 401.788 259.464 401.496 259.293C401.204 259.122 400.869 259.036 400.491 259.036C400.106 259.036 399.764 259.122 399.465 259.293C399.165 259.464 398.934 259.699 398.77 259.999C398.606 260.298 398.524 260.644 398.524 261.036ZM404.282 259.785C404.282 258.986 404.403 258.291 404.645 257.7C404.895 257.108 405.247 256.645 405.704 256.31C406.167 255.975 406.716 255.807 407.35 255.807C407.984 255.807 408.53 255.975 408.986 256.31C409.442 256.645 409.791 257.108 410.034 257.7C410.283 258.291 410.408 258.986 410.408 259.785C410.408 260.583 410.287 261.278 410.044 261.87C409.802 262.461 409.453 262.924 408.997 263.259C408.54 263.587 407.992 263.751 407.35 263.751C406.709 263.751 406.156 263.587 405.693 263.259C405.237 262.924 404.887 262.461 404.645 261.87C404.403 261.278 404.282 260.583 404.282 259.785ZM405.041 259.785C405.041 260.448 405.13 261.025 405.308 261.517C405.493 262.009 405.757 262.39 406.099 262.661C406.441 262.924 406.858 263.056 407.35 263.056C407.835 263.056 408.248 262.924 408.59 262.661C408.939 262.39 409.203 262.009 409.381 261.517C409.567 261.025 409.659 260.448 409.659 259.785C409.659 259.115 409.567 258.537 409.381 258.053C409.203 257.561 408.939 257.183 408.59 256.919C408.248 256.649 407.835 256.513 407.35 256.513C406.858 256.513 406.441 256.649 406.099 256.919C405.757 257.183 405.493 257.561 405.308 258.053C405.13 258.537 405.041 259.115 405.041 259.785Z" fill="white"/>
<path d="M3.96914 71.9637V62.1917H4.53579V71.9637H3.96914ZM1.72391 65.2388C1.72391 64.8111 1.83083 64.4405 2.04466 64.1268C2.25849 63.8061 2.55785 63.5566 2.94275 63.3784C3.32765 63.2002 3.77669 63.1111 4.28989 63.1111C4.75319 63.1111 5.1559 63.1931 5.49803 63.357C5.84729 63.521 6.12527 63.7562 6.33197 64.0627C6.53867 64.3692 6.65984 64.7363 6.69548 65.1639H5.92569C5.89005 64.7291 5.72612 64.3941 5.43388 64.1589C5.14877 63.9166 4.76388 63.7954 4.27919 63.7954C3.73749 63.7954 3.3027 63.9273 2.97483 64.191C2.64695 64.4476 2.48301 64.7933 2.48301 65.2281C2.48301 65.5631 2.5828 65.841 2.78238 66.062C2.98195 66.283 3.28488 66.4433 3.69116 66.5431L5.00622 66.8639C5.60495 67.0136 6.05755 67.2559 6.36404 67.5909C6.67054 67.9259 6.82378 68.35 6.82378 68.8632C6.82378 69.298 6.71687 69.6793 6.50303 70.0072C6.2892 70.3351 5.98628 70.5881 5.59425 70.7663C5.20223 70.9445 4.74249 71.0336 4.21504 71.0336C3.72323 71.0336 3.28488 70.9516 2.89998 70.7877C2.52222 70.6237 2.22285 70.3885 2.00189 70.082C1.78806 69.7755 1.66333 69.4156 1.62769 69.0022H2.41886C2.44025 69.4085 2.61488 69.7328 2.94275 69.9751C3.27062 70.2175 3.69472 70.3386 4.21504 70.3386C4.78526 70.3386 5.2343 70.2103 5.56218 69.9537C5.89718 69.69 6.06468 69.3407 6.06468 68.906C6.06468 68.2074 5.6584 67.762 4.84585 67.5695L3.55217 67.2488C2.95344 67.1062 2.49727 66.8674 2.18365 66.5324C1.87716 66.1903 1.72391 65.7591 1.72391 65.2388ZM12.8054 70.9053H7.75904V70.2959L10.2074 68.1575C10.5638 67.8511 10.856 67.5802 11.0841 67.345C11.3122 67.1098 11.4904 66.8959 11.6187 66.7035C11.7541 66.5039 11.8468 66.3079 11.8967 66.1155C11.9537 65.923 11.9822 65.7127 11.9822 65.4847C11.9822 64.9715 11.8361 64.5652 11.5438 64.2658C11.2516 63.9665 10.8525 63.8168 10.3464 63.8168C9.81894 63.8168 9.39128 63.995 9.06341 64.3514C8.74266 64.7077 8.57516 65.1817 8.56091 65.7733H7.79111C7.8125 65.2388 7.9301 64.7719 8.14394 64.3727C8.35777 63.9736 8.65357 63.6635 9.03133 63.4426C9.41623 63.2216 9.85815 63.1111 10.3571 63.1111C10.8418 63.1111 11.2623 63.2109 11.6187 63.4105C11.9822 63.6029 12.2637 63.8738 12.4633 64.2231C12.6629 64.5652 12.7627 64.9715 12.7627 65.4419C12.7627 65.7127 12.727 65.9729 12.6558 66.2224C12.5845 66.4647 12.4704 66.7071 12.3136 66.9494C12.1568 67.1917 11.9501 67.4483 11.6935 67.7192C11.4369 67.99 11.1162 68.293 10.7313 68.628L8.59298 70.499L8.35777 70.1889H12.8054V70.9053ZM14.7355 65.8268L16.6493 63.2501H17.5474L15.3342 66.1903L15.1953 66.1262C15.4447 65.9551 15.6799 65.8339 15.9009 65.7626C16.1219 65.6914 16.3499 65.6557 16.5852 65.6557C17.1197 65.6557 17.5866 65.7733 17.9858 66.0085C18.3849 66.2438 18.6914 66.5645 18.9052 66.9708C19.1262 67.3699 19.2367 67.819 19.2367 68.3179C19.2367 68.8382 19.1155 69.3051 18.8732 69.7185C18.6379 70.1248 18.3136 70.4455 17.9002 70.6808C17.4939 70.916 17.0342 71.0336 16.521 71.0336C16.0078 71.0336 15.541 70.916 15.1204 70.6808C14.707 70.4384 14.3791 70.1141 14.1368 69.7078C13.8945 69.2944 13.7733 68.8311 13.7733 68.3179C13.7733 68.0186 13.8018 67.7441 13.8588 67.4947C13.923 67.2381 14.0228 66.9779 14.1582 66.7142C14.3007 66.4505 14.4932 66.1547 14.7355 65.8268ZM14.5538 68.3286C14.5538 68.7135 14.6357 69.0592 14.7997 69.3657C14.9636 69.6651 15.1953 69.9038 15.4946 70.082C15.794 70.2531 16.1361 70.3386 16.521 70.3386C16.8988 70.3386 17.2338 70.2531 17.526 70.082C17.8183 69.9038 18.0463 69.6651 18.2103 69.3657C18.3813 69.0592 18.4669 68.7135 18.4669 68.3286C18.4669 67.9366 18.3813 67.5909 18.2103 67.2915C18.0463 66.9922 17.8183 66.757 17.526 66.5859C17.2338 66.4148 16.8988 66.3293 16.521 66.3293C16.1361 66.3293 15.794 66.4148 15.4946 66.5859C15.1953 66.757 14.9636 66.9922 14.7997 67.2915C14.6357 67.5909 14.5538 67.9366 14.5538 68.3286ZM25.1258 70.9053H20.0794V70.2959L22.5277 68.1575C22.8841 67.8511 23.1764 67.5802 23.4044 67.345C23.6325 67.1098 23.8107 66.8959 23.939 66.7035C24.0744 66.5039 24.1671 66.3079 24.217 66.1155C24.274 65.923 24.3025 65.7127 24.3025 65.4847C24.3025 64.9715 24.1564 64.5652 23.8642 64.2658C23.5719 63.9665 23.1728 63.8168 22.6667 63.8168C22.1393 63.8168 21.7116 63.995 21.3837 64.3514C21.063 64.7077 20.8955 65.1817 20.8812 65.7733H20.1114C20.1328 65.2388 20.2504 64.7719 20.4643 64.3727C20.6781 63.9736 20.9739 63.6635 21.3517 63.4426C21.7366 63.2216 22.1785 63.1111 22.6774 63.1111C23.1621 63.1111 23.5826 63.2109 23.939 63.4105C24.3025 63.6029 24.5841 63.8738 24.7837 64.2231C24.9832 64.5652 25.083 64.9715 25.083 65.4419C25.083 65.7127 25.0474 65.9729 24.9761 66.2224C24.9048 66.4647 24.7908 66.7071 24.634 66.9494C24.4772 67.1917 24.2705 67.4483 24.0139 67.7192C23.7573 67.99 23.4365 68.293 23.0516 68.628L20.9133 70.499L20.6781 70.1889H25.1258V70.9053ZM27.2045 70.7984H27.258C27.2224 70.834 27.176 70.8625 27.119 70.8839C27.0691 70.9053 27.005 70.916 26.9266 70.916C26.784 70.916 26.6557 70.8661 26.5417 70.7663C26.4276 70.6594 26.3706 70.5168 26.3706 70.3386C26.3706 70.1533 26.4276 70.0001 26.5417 69.8789C26.6628 69.7577 26.8161 69.6971 27.0014 69.6971C27.1938 69.6971 27.3613 69.772 27.5039 69.9217C27.6465 70.0713 27.7177 70.278 27.7177 70.5418C27.7177 70.7627 27.6643 70.9694 27.5574 71.1619C27.4576 71.3543 27.3186 71.5111 27.1404 71.6323C26.9622 71.7606 26.7626 71.8426 26.5417 71.8782V71.4826C26.7341 71.447 26.8909 71.365 27.0121 71.2367C27.1404 71.1155 27.2045 70.9694 27.2045 70.7984ZM31.2708 71.0336C30.7576 71.0336 30.3122 70.9338 29.9344 70.7342C29.5566 70.5275 29.2644 70.2388 29.0577 69.8682C28.851 69.4976 28.7476 69.0628 28.7476 68.5638H29.5174C29.5174 69.1127 29.6742 69.5439 29.9878 69.8575C30.3086 70.1711 30.7398 70.3279 31.2815 70.3279C31.6664 70.3279 32.0014 70.2495 32.2865 70.0927C32.5716 69.9288 32.7926 69.7043 32.9494 69.4191C33.1062 69.134 33.1846 68.8026 33.1846 68.4248C33.1846 68.0685 33.1098 67.7477 32.9601 67.4626C32.8104 67.1704 32.593 66.9387 32.3079 66.7676C32.0299 66.5966 31.6878 66.511 31.2815 66.511C30.9323 66.511 30.6008 66.5859 30.2872 66.7356C29.9807 66.8781 29.7241 67.0634 29.5174 67.2915L28.908 67.0991L29.8275 63.2501H33.5267V63.9558H29.9985L30.4903 63.5174L29.7099 66.7356L29.4533 66.7035C29.6742 66.4184 29.9558 66.201 30.2979 66.0513C30.64 65.9016 31.0035 65.8268 31.3884 65.8268C31.9159 65.8268 32.3721 65.9444 32.757 66.1796C33.1419 66.4077 33.4376 66.7178 33.6444 67.1098C33.8582 67.4947 33.9651 67.9259 33.9651 68.4035C33.9651 68.9166 33.8511 69.3728 33.623 69.772C33.3949 70.164 33.0777 70.474 32.6714 70.7021C32.2723 70.9231 31.8054 71.0336 31.2708 71.0336ZM34.9916 67.0777C34.9916 66.2794 35.1127 65.5844 35.3551 64.9928C35.6046 64.4013 35.9574 63.938 36.4135 63.6029C36.8768 63.2679 37.4257 63.1004 38.06 63.1004C38.6944 63.1004 39.2397 63.2679 39.6959 63.6029C40.152 63.938 40.5013 64.4013 40.7436 64.9928C40.9931 65.5844 41.1178 66.2794 41.1178 67.0777C41.1178 67.876 40.9967 68.571 40.7543 69.1626C40.512 69.7542 40.1627 70.2175 39.7065 70.5525C39.2504 70.8803 38.7015 71.0443 38.06 71.0443C37.4186 71.0443 36.8662 70.8803 36.4029 70.5525C35.9467 70.2175 35.5974 69.7542 35.3551 69.1626C35.1127 68.571 34.9916 67.876 34.9916 67.0777ZM35.7507 67.0777C35.7507 67.7406 35.8398 68.3179 36.018 68.8097C36.2033 69.3015 36.467 69.6829 36.8091 69.9537C37.1513 70.2175 37.5682 70.3493 38.06 70.3493C38.5447 70.3493 38.9581 70.2175 39.3003 69.9537C39.6495 69.6829 39.9132 69.3015 40.0914 68.8097C40.2768 68.3179 40.3694 67.7406 40.3694 67.0777C40.3694 66.4077 40.2768 65.8304 40.0914 65.3457C39.9132 64.8539 39.6495 64.4761 39.3003 64.2124C38.9581 63.9415 38.5447 63.8061 38.06 63.8061C37.5682 63.8061 37.1513 63.9415 36.8091 64.2124C36.467 64.4761 36.2033 64.8539 36.018 65.3457C35.8398 65.8304 35.7507 66.4077 35.7507 67.0777ZM42.2898 67.0777C42.2898 66.2794 42.411 65.5844 42.6533 64.9928C42.9028 64.4013 43.2556 63.938 43.7118 63.6029C44.1751 63.2679 44.7239 63.1004 45.3583 63.1004C45.9926 63.1004 46.5379 63.2679 46.9941 63.6029C47.4503 63.938 47.7995 64.4013 48.0419 64.9928C48.2913 65.5844 48.4161 66.2794 48.4161 67.0777C48.4161 67.876 48.2949 68.571 48.0525 69.1626C47.8102 69.7542 47.4609 70.2175 47.0048 70.5525C46.5486 70.8803 45.9998 71.0443 45.3583 71.0443C44.7168 71.0443 44.1644 70.8803 43.7011 70.5525C43.2449 70.2175 42.8957 69.7542 42.6533 69.1626C42.411 68.571 42.2898 67.876 42.2898 67.0777ZM43.0489 67.0777C43.0489 67.7406 43.138 68.3179 43.3162 68.8097C43.5015 69.3015 43.7652 69.6829 44.1074 69.9537C44.4495 70.2175 44.8665 70.3493 45.3583 70.3493C45.843 70.3493 46.2564 70.2175 46.5985 69.9537C46.9478 69.6829 47.2115 69.3015 47.3897 68.8097C47.575 68.3179 47.6676 67.7406 47.6676 67.0777C47.6676 66.4077 47.575 65.8304 47.3897 65.3457C47.2115 64.8539 46.9478 64.4761 46.5985 64.2124C46.2564 63.9415 45.843 63.8061 45.3583 63.8061C44.8665 63.8061 44.4495 63.9415 44.1074 64.2124C43.7652 64.4761 43.5015 64.8539 43.3162 65.3457C43.138 65.8304 43.0489 66.4077 43.0489 67.0777Z" fill="white"/>
<path d="M73 226.104C78.4194 226.104 400.5 21.1035 407.98 17.0225" stroke="url(#paint0_linear_153_260)" stroke-width="9.16418" stroke-linecap="round"/>
<defs>
<linearGradient id="paint0_linear_153_260" x1="407.98" y1="17.0224" x2="64.5807" y2="187.242" gradientUnits="userSpaceOnUse">
<stop stop-color="#32E5F9"/>
<stop offset="1" stop-color="#EB7F00"/>
</linearGradient>
</defs>
</svg>
