<svg width="952" height="952" viewBox="0 0 952 952" fill="none" xmlns="http://www.w3.org/2000/svg">
<path d="M391.68 786.85C380.942 771.321 352.707 764.247 331.019 764.247C324.342 764.247 318.146 764.854 312.601 766.049C292.198 770.443 274.796 774.393 259.443 777.877C218.325 787.211 193.507 792.847 172.876 792.847C155.701 792.847 140.981 789.011 120.371 779.17C98.8527 768.89 83.0628 759.11 70.3752 751.25C50.4782 738.926 37.333 730.785 19.3416 730.785C13.4569 730.785 7.11603 731.695 0 733.548V735.067C7.12678 733.188 13.471 732.266 19.3416 732.266C36.9116 732.266 49.914 740.318 69.5952 752.51C82.3133 760.388 98.1419 770.191 119.732 780.503C140.56 790.452 155.46 794.327 172.876 794.327C193.673 794.327 218.552 788.679 259.771 779.322C275.12 775.835 292.518 771.888 312.912 767.494C318.355 766.322 324.446 765.727 331.019 765.727C352.333 765.727 380.026 772.601 390.46 787.693C395.061 794.346 395.812 801.912 392.694 810.174C386.468 826.668 357.374 841.24 331.706 854.096C316.191 861.867 301.534 869.206 294.003 876.015C271.978 895.93 277.26 922.909 286.201 952H287.751C278.879 923.209 273.527 896.528 294.995 877.116C302.378 870.439 316.946 863.142 332.369 855.421C358.28 842.442 387.648 827.734 394.079 810.697C397.38 801.95 396.574 793.928 391.68 786.85Z" fill="#1695A3" fill-opacity="0.27"/>
<path d="M6.71936 617.533C9.72661 552.283 51.323 504.714 84.747 466.491L87.1213 463.778C90.9987 459.698 99.9443 448.779 99.2411 435.591C98.8129 427.564 94.8372 420.297 87.4262 413.999C82.9818 410.223 78.8707 406.694 74.9609 403.337C57.6711 388.494 44.016 376.77 22.8133 362.067C15.0667 356.697 7.44329 351.614 0 346.837V347.588C7.32759 352.297 14.8312 357.305 22.4522 362.589C43.6276 377.273 57.2721 388.987 74.5477 403.819C78.4581 407.177 82.5695 410.708 87.0147 414.484C94.2884 420.665 98.1899 427.778 98.6071 435.625C99.2964 448.568 90.4821 459.319 86.6519 463.349L84.2677 466.076C50.779 504.37 9.10266 552.033 6.08552 617.505C5.76324 624.478 3.05103 628.743 0 630.192V630.948C3.30061 629.589 6.36154 625.269 6.71936 617.533Z" fill="#1695A3" fill-opacity="0.27"/>
<path d="M377.275 885.927C374.496 883.132 370.88 881.717 366.531 881.717C353.238 881.717 336.598 894.868 331.048 900.867C310.602 922.972 308.253 935.347 312.347 952H313.447C309.387 935.56 311.672 923.372 331.825 901.586C337.277 895.692 353.583 882.775 366.531 882.775C370.59 882.775 373.952 884.084 376.527 886.671C380.937 891.103 383.146 899.323 383.091 911.098C383.025 925.403 380.567 938.611 377.445 952H378.532C381.642 938.632 384.083 925.431 384.149 911.102C384.206 899.035 381.894 890.565 377.275 885.927Z" fill="#1695A3" fill-opacity="0.27"/>
<path d="M21.5118 618.216C24.2809 558.132 63.9898 512.724 95.8975 476.237L98.2815 473.51C104.98 465.843 110.409 459.05 114.414 453.319C119.378 446.217 128.618 432.999 106.799 411.935C83.2727 389.218 57.8547 368.346 31.2508 349.898C20.4027 342.375 9.96128 335.595 0 329.506V330.247C9.84973 336.278 20.1688 342.987 30.8896 350.419C57.4655 368.847 82.857 389.698 106.36 412.392C127.786 433.08 118.749 446.01 113.894 452.955C109.901 458.667 104.488 465.443 97.804 473.093L95.4181 475.822C63.4468 512.381 23.657 557.883 20.8779 618.187C19.5879 646.156 14.623 662.431 5.2517 669.408C3.39729 670.788 1.64038 671.539 0 671.719V672.355C1.78335 672.182 3.63034 671.405 5.62937 669.916C15.1667 662.821 20.2127 646.391 21.5118 618.216Z" fill="#1695A3" fill-opacity="0.27"/>
<path d="M279.731 188.466C275.621 172.23 242.449 167.888 204.04 162.862C194.549 161.62 184.735 160.336 175.203 158.832C133.091 152.185 94.5397 131.044 57.2579 110.599C38.589 100.36 19.516 89.9069 0 81.3093V82.9236C19.2565 91.4492 38.0982 101.782 56.5465 111.898C93.9389 132.404 132.605 153.606 174.971 160.294C184.524 161.8 194.347 163.086 203.849 164.33C240.147 169.082 274.432 173.567 278.295 188.83C281.308 200.722 265.82 218.761 230.947 243.981C182.021 279.366 140.965 295.846 101.745 295.846C79.4573 295.844 57.3572 290.311 36.0594 279.399C22.8042 272.608 11.1381 264.347 0 256.012V257.861C10.9216 266.008 22.3777 274.053 35.3844 280.717C56.8936 291.737 79.2202 297.324 101.744 297.324C101.747 297.324 101.747 297.324 101.749 297.324C141.295 297.324 182.626 280.755 231.816 245.18C267.728 219.21 282.951 201.189 279.731 188.466Z" fill="#1695A3" fill-opacity="0.27"/>
<path d="M5.4864 522.396C11.1876 512.366 18.578 503.272 25.7256 494.475C36.0355 481.786 46.6967 468.667 52.4345 452.547C62.5519 424.122 42.7211 410.989 21.7257 397.086C19.7895 395.804 17.8417 394.513 15.8857 393.189C12.4256 390.849 9.15722 388.638 5.93843 386.408C4.35673 385.31 2.40809 383.906 0 382.154V382.937C2.23126 384.559 4.07739 385.89 5.5773 386.929C8.7994 389.163 12.0686 391.374 15.551 393.728C17.488 395.04 19.4375 396.33 21.3754 397.614C42.1573 411.378 61.7875 424.378 51.8368 452.335C46.1348 468.352 35.5092 481.429 25.2329 494.075C18.069 502.891 10.6629 512.007 4.93436 522.081C3.21962 525.098 1.65278 529.02 0 533.177V534.891C0.171889 534.459 0.34543 534.028 0.515667 533.6C2.18829 529.39 3.76833 525.417 5.4864 522.396Z" fill="#1695A3" fill-opacity="0.27"/>
<path d="M669.317 889.337C668.503 882.178 664.001 875.973 655.932 870.892C641.347 861.708 610.839 857.6 587.077 857.6C582.433 857.6 578.183 857.756 574.439 858.067C551.24 859.99 527.08 864.566 500.578 872.062C496.785 873.134 493.015 874.294 489.366 875.501C445.172 890.173 419.625 913.391 407.356 952H408.48C420.701 913.932 446.018 891.008 489.702 876.506C493.333 875.3 497.09 874.148 500.868 873.077C527.302 865.603 551.396 861.038 574.526 859.121C578.24 858.811 582.463 858.658 587.077 858.658C610.689 858.658 640.962 862.717 655.369 871.789C663.153 876.688 667.492 882.633 668.266 889.456C670.216 906.604 650.212 926.726 634.138 942.892C630.895 946.155 627.873 949.194 625.235 952H626.697C629.162 949.404 631.925 946.62 634.887 943.639C651.121 927.309 671.323 906.989 669.317 889.337Z" fill="#1695A3" fill-opacity="0.27"/>
<path d="M265.257 835.53C268.678 833.383 272.634 833.093 276.048 833.093C277.66 833.093 279.279 833.165 280.99 833.243C282.695 833.322 284.46 833.402 286.211 833.402C290.155 833.402 295.281 833.031 299.948 830.141C311.975 822.695 315.956 814.051 314.568 809.169C313.65 805.947 310.525 804.097 305.994 804.097C301.955 804.097 296.827 805.544 291.16 808.279C287.538 810.027 284.278 813.154 281.126 816.181C277.318 819.837 273.378 823.617 268.86 824.858C267.463 825.24 266.088 825.426 264.656 825.426C261.796 825.426 259.236 824.692 256.526 823.916C253.85 823.148 251.083 822.355 248.034 822.355C246.972 822.355 245.908 822.452 244.871 822.645C239.504 823.647 235.834 827.053 232.282 830.347C229.324 833.091 226.265 835.928 222.245 837.333C217.697 838.921 211.527 839.694 203.383 839.694C192.806 839.694 181.078 838.365 171.653 837.296C168.939 836.99 166.42 836.705 164.183 836.48C144.606 834.515 124.251 828.38 101.952 817.728C78.35 806.456 61.4586 795.997 47.8702 787.579C40.4575 782.989 32.8753 780.659 25.3338 780.659C15.7501 780.659 7.23751 784.306 0 789.91V790.697C7.21686 785.004 15.7386 781.296 25.3338 781.296C32.7564 781.296 40.2254 783.591 47.5513 788.129C61.137 796.545 78.045 807.015 101.68 818.303C124.045 828.987 144.469 835.139 164.118 837.111C166.355 837.334 168.87 837.62 171.582 837.927C181.021 838.998 192.769 840.328 203.383 840.328C211.6 840.328 217.839 839.543 222.453 837.931C226.599 836.484 229.707 833.598 232.713 830.813C236.36 827.429 239.802 824.237 244.988 823.268C246.001 823.078 246.997 822.989 248.034 822.989C250.994 822.989 253.716 823.77 256.352 824.525C258.984 825.281 261.707 826.061 264.656 826.061C266.147 826.061 267.575 825.868 269.027 825.468C273.702 824.189 277.698 820.351 281.566 816.638C284.682 813.647 287.904 810.554 291.435 808.849C297.018 806.156 302.051 804.732 305.994 804.732C310.282 804.732 313.111 806.37 313.957 809.344C315.283 814.002 311.359 822.327 299.613 829.603C295.082 832.407 290.07 832.769 286.211 832.769C284.475 832.769 282.719 832.689 281.02 832.608C279.376 832.535 277.675 832.456 276.048 832.456C272.543 832.456 268.479 832.759 264.92 834.992C260.998 837.455 258.022 843.673 255.147 849.687C253.41 853.316 251.77 856.747 250.025 859.123C235.546 878.844 234.662 900.074 237.791 925.881C238.865 934.752 240.663 943.487 242.834 952H243.49C241.309 943.462 239.498 934.701 238.421 925.808C235.311 900.146 236.181 879.051 250.537 859.497C252.316 857.075 253.968 853.618 255.718 849.963C258.557 844.028 261.491 837.897 265.257 835.53Z" fill="#1695A3" fill-opacity="0.27"/>
<path d="M349.23 161.37C347.537 164.053 343.266 164.042 336.651 161.383C335.106 160.761 333.526 160.205 331.996 159.663C323.485 156.659 316.134 154.063 320.043 142.618C322.876 134.334 326.872 129.954 331.603 129.954C336.23 129.954 341.18 134.188 344.846 141.281C349.636 150.617 351.273 158.127 349.23 161.37ZM331.603 128.897C327.958 128.897 322.821 131.217 319.043 142.275C314.795 154.713 322.98 157.6 331.643 160.66C333.162 161.197 334.734 161.751 336.257 162.365C339.672 163.736 342.542 164.432 344.791 164.432C347.285 164.432 349.077 163.592 350.122 161.935C353.361 156.801 348.17 145.442 345.788 140.797C341.935 133.343 336.634 128.897 331.603 128.897Z" fill="#1695A3" fill-opacity="0.27"/>
<path d="M57.1746 475.82C58.1207 474.693 59.0826 473.563 60.0496 472.425C73.6677 456.406 87.7475 439.841 71.7438 420.033C59.3644 404.712 40.6815 392.078 24.1967 380.933C20.7804 378.623 17.5542 376.44 14.3759 374.238C12.243 372.759 9.35389 370.65 6.00866 368.208C4.17077 366.867 2.1511 365.392 0 363.835V364.618C2.00978 366.076 3.90468 367.457 5.63514 368.72C8.98284 371.164 11.8752 373.275 14.0147 374.758C17.1955 376.964 20.4242 379.148 23.8413 381.458C40.2882 392.579 58.9307 405.184 71.2504 420.431C86.9237 439.83 73.0156 456.192 59.5662 472.012C58.5983 473.152 57.6358 474.284 56.6895 475.414C44.8637 489.508 29.7574 508.381 17.8087 529.399C10.5546 542.16 4.58066 555.568 0 569.326V571.409C4.64182 557.032 10.7976 543.019 18.3599 529.714C30.2838 508.74 45.3662 489.893 57.1746 475.82Z" fill="#1695A3" fill-opacity="0.27"/>
<path d="M344.057 948.456C343.13 945.063 341.546 942.668 340.014 940.352C337.672 936.81 335.65 933.753 336.456 927.971C337.556 920.07 347.11 900.577 357.436 900.577C357.537 900.577 357.639 900.58 357.743 900.581C362.905 900.782 366.184 902.085 367.485 904.459C369.867 908.806 365.568 916.158 362.113 922.065C360.245 925.259 358.629 928.02 358.341 929.821C357.768 933.391 359.353 935.438 360.886 937.413C362.105 938.987 363.256 940.47 363.203 942.651C363.091 947.247 361.056 949.402 358.902 951.685C358.805 951.788 358.707 951.896 358.608 952H359.473C361.673 949.67 363.723 947.424 363.838 942.668C363.895 940.259 362.621 938.615 361.388 937.024C359.939 935.154 358.439 933.22 358.968 929.92C359.238 928.24 360.825 925.523 362.661 922.385C366.199 916.34 370.597 908.817 368.041 904.155C366.605 901.536 363.245 900.158 357.766 899.951C357.656 899.945 357.546 899.943 357.436 899.943C346.78 899.943 336.949 919.825 335.828 927.885C334.99 933.904 337.173 937.206 339.485 940.701C340.99 942.975 342.545 945.329 343.446 948.622C343.799 949.914 343.983 951.006 344.082 952H344.715C344.616 950.953 344.427 949.806 344.057 948.456Z" fill="#1695A3" fill-opacity="0.27"/>
<path d="M45.125 261.701C61.2049 269.939 74.8659 273.776 88.1186 273.776C101.991 273.776 114.327 269.609 128.611 264.783C136.714 262.045 145.898 258.942 156.309 256.329C161.59 255.005 166.194 254.85 169.198 254.85C171.217 254.85 173.152 254.929 175.023 255.005C176.797 255.075 178.472 255.145 180.13 255.145C188.706 255.142 195.523 253.116 202.997 243.02C208.038 236.208 209.927 230.947 211.594 226.307C214.086 219.364 216.053 213.883 227.024 206.038C229.838 204.024 233.864 202.442 237.761 200.91C244.031 198.443 249.447 196.313 249.672 192.704C249.851 189.78 246.447 186.516 238.952 182.437C229.971 177.563 217.158 176.905 205.808 176.905C200.745 176.905 195.429 177.061 190.289 177.212C185.124 177.364 179.783 177.521 174.67 177.521C163.275 177.521 155.288 176.731 148.774 174.963C111.958 164.965 77.4376 146.035 46.9818 129.332C30.9963 120.566 15.4849 112.072 0 104.771V105.941C15.3105 113.182 30.659 121.587 46.4745 130.261C76.9815 146.991 111.558 165.953 148.497 175.983C155.106 177.779 163.179 178.578 174.67 178.578C179.798 178.578 185.147 178.422 190.321 178.269C195.453 178.119 200.761 177.963 205.808 177.963C217.024 177.963 229.675 178.606 238.446 183.366C245.343 187.121 248.764 190.239 248.616 192.636C248.434 195.575 243.06 197.688 237.374 199.924C233.418 201.481 229.328 203.089 226.409 205.179C215.169 213.214 213.051 219.117 210.597 225.95C208.956 230.522 207.096 235.705 202.146 242.39C194.937 252.128 188.377 254.085 180.13 254.087C178.494 254.087 176.829 254.019 175.066 253.947C173.184 253.871 171.239 253.793 169.198 253.793C166.138 253.793 161.447 253.949 156.051 255.303C145.601 257.926 136.395 261.036 128.272 263.78C114.077 268.576 101.817 272.718 88.1186 272.718C75.0402 272.718 61.532 268.919 45.6059 260.759C31.0475 253.298 17.9541 243.374 5.28889 233.773C3.53198 232.44 1.76847 231.105 0 229.775V231.097C1.55526 232.269 3.10557 233.445 4.65257 234.617C17.3509 244.243 30.4822 254.197 45.125 261.701Z" fill="#1695A3" fill-opacity="0.27"/>
<path d="M559.951 922.547C558.925 922.107 557.343 921.885 555.249 921.885C542.974 921.885 516.972 929.202 516.71 929.277C513.801 930.1 510.904 930.991 508.101 931.924C493.716 936.696 483.072 943.089 475.321 952H476.159C483.808 943.383 494.263 937.184 508.3 932.526C511.095 931.596 513.983 930.707 516.883 929.888C517.143 929.814 543.063 922.519 555.249 922.519C557.256 922.519 558.754 922.725 559.7 923.129C564.4 925.147 562.674 930.502 558.889 942.235C557.984 945.044 556.928 948.342 555.833 952H556.495C557.569 948.423 558.604 945.188 559.494 942.43C563.281 930.686 565.181 924.792 559.951 922.547Z" fill="#1695A3" fill-opacity="0.27"/>
<path d="M531.239 941.592C528.301 941.592 524.751 942.173 520.687 943.322C517.979 944.09 515.292 944.915 512.703 945.776C507.257 947.587 502.544 949.651 498.429 952H500.64C504.294 950.065 508.385 948.328 513.037 946.779C515.612 945.924 518.282 945.103 520.977 944.339C524.946 943.218 528.4 942.649 531.239 942.649C536.516 942.649 539.714 944.578 540.745 948.386C541.036 949.465 541.102 950.697 541.049 952H542.109C542.16 950.603 542.082 949.28 541.766 948.112C540.96 945.137 538.481 941.592 531.239 941.592Z" fill="#1695A3" fill-opacity="0.27"/>
<path d="M597.695 906.63C595.852 902.927 589.506 901.608 578.128 902.553C557.823 904.235 536.427 908.311 512.726 915.016C509.559 915.908 506.434 916.871 503.437 917.865C481.926 925.005 466.911 935.966 457.155 952H457.901C467.593 936.273 482.44 925.505 503.635 918.468C506.627 917.476 509.741 916.518 512.899 915.627C536.562 908.934 557.916 904.864 578.183 903.185C580.506 902.994 582.649 902.896 584.547 902.896C591.668 902.896 595.783 904.21 597.128 906.913C599.491 911.662 592.836 920.472 586.4 928.989C585.26 930.497 584.115 932.012 583.009 933.516C578.543 939.59 574.578 945.786 570.999 952H571.731C575.251 945.911 579.146 939.842 583.521 933.891C584.625 932.389 585.768 930.878 586.906 929.374C593.76 920.301 600.236 911.73 597.695 906.63Z" fill="#1695A3" fill-opacity="0.27"/>
<path d="M619.045 917.508C628.8 908.344 632.714 901.091 630.679 895.954C628.263 889.853 617.505 886.758 598.702 886.758C592.434 886.758 585.304 887.097 576.906 887.793C555.642 889.555 533.331 893.797 508.696 900.763C505.36 901.709 502.019 902.733 498.772 903.812C470.557 913.175 451.504 928.786 440.296 952H441.013C452.172 929.099 471.056 913.679 498.968 904.415C502.212 903.338 505.542 902.316 508.869 901.375C533.465 894.419 555.735 890.184 576.961 888.425C585.34 887.732 592.453 887.395 598.702 887.395C617.217 887.395 627.778 890.352 630.089 896.187C632.018 901.06 628.157 908.077 618.612 917.047C616.693 918.847 614.842 920.595 613.285 922.162C605.98 929.507 599.675 935.85 594.955 942.264C592.614 945.45 590.401 948.708 588.253 952H589.007C591.078 948.835 593.214 945.706 595.47 942.64C600.16 936.266 606.449 929.937 613.735 922.605C615.284 921.049 617.131 919.306 619.045 917.508Z" fill="#1695A3" fill-opacity="0.27"/>
<path d="M54.868 242.684C70.5 250.691 85.8262 254.588 101.733 254.592C110.637 254.59 129.862 250.958 146.624 244.878C161.307 239.553 178.818 230.708 178.859 218.81C178.908 204.801 151.856 197.02 135.693 192.37C132.179 191.358 129.143 190.482 127.116 189.748C98.1743 179.266 69.4473 166.022 36.7123 148.07C24.2166 141.218 12.0223 134.53 0 128.524V129.235C11.9207 135.201 24.0149 141.831 36.4066 148.626C69.1721 166.594 97.9263 179.85 126.899 190.347C128.947 191.088 131.992 191.963 135.517 192.979C151.508 197.58 178.272 205.279 178.225 218.808C178.154 239.369 120.193 253.956 101.724 253.958C85.9305 253.953 70.6976 250.08 55.1574 242.119C42.2318 235.495 29.8848 226.136 17.9434 217.083C12.162 212.7 6.21527 208.196 0 203.815V204.593C6.07645 208.888 11.8975 213.299 17.5583 217.589C29.5228 226.659 41.8929 236.035 54.868 242.684Z" fill="#1695A3" fill-opacity="0.27"/>
<path d="M61.6198 229.504C75.1022 236.411 88.2121 239.773 101.732 239.783C113.467 239.783 128.784 236.301 134.686 228.662C137.252 225.341 137.977 221.444 136.838 217.083C134.161 206.825 112.677 199.573 96.99 194.276C91.92 192.562 87.5419 191.083 84.8528 189.835C66.7267 181.426 48.7908 171.586 31.4441 162.071L29.5103 161.011C19.483 155.512 9.65884 150.128 0 145.142V145.857C9.55967 150.799 19.2821 156.124 29.2046 161.567L31.1391 162.629C48.4949 172.149 66.4409 181.993 84.5858 190.413C87.3064 191.674 91.6994 193.159 96.7867 194.876C111.46 199.829 133.634 207.318 136.225 217.244C137.311 221.403 136.624 225.116 134.184 228.273C128.413 235.745 113.317 239.149 101.695 239.149C88.3153 239.14 75.3007 235.8 61.909 228.939C50.1412 222.91 38.3197 213.948 26.8824 205.277C18.6119 199.008 9.7332 192.285 0 185.93V186.689C9.58529 192.97 18.3417 199.598 26.5039 205.786C37.9586 214.469 49.8023 223.449 61.6198 229.504Z" fill="#1695A3" fill-opacity="0.27"/>
<path d="M375.46 12.6701C376.516 8.40303 377.555 4.19305 378.532 1.52588e-05H377.445C376.487 4.11053 375.469 8.23586 374.434 12.4162C372.49 20.2628 370.483 28.3739 368.856 36.6562C363.436 64.2621 358.762 100.455 370.849 135.584C375.761 149.86 387.997 161.523 398.793 171.813C408.4 180.971 416.697 188.877 415.95 195.526C415.605 198.583 413.371 201.299 409.123 203.83C407.16 205.002 403.807 205.592 399.155 205.592C382.916 205.592 354.263 198.424 333.071 191.32C310.02 183.592 281.619 171.282 277.214 156.519C275.811 151.817 276.962 147.067 280.639 142.4C285.353 136.42 290.413 131.16 295.306 126.072C304.936 116.064 314.031 106.609 320.052 92.5746C328.637 72.5594 329.68 51.6872 323.147 30.5359C321.567 25.4099 319.972 20.688 318.565 16.5204C316.487 10.362 314.678 4.98849 313.447 1.52588e-05H312.347C313.597 5.08792 315.442 10.5714 317.564 16.8589C318.967 21.0202 320.56 25.7336 322.138 30.8469C328.592 51.7507 327.562 72.3795 319.079 92.1579C313.136 106.015 304.105 115.401 294.545 125.338C289.632 130.445 284.555 135.723 279.81 141.746C275.907 146.699 274.692 151.77 276.201 156.822C280.734 172.018 309.447 184.515 332.735 192.321C354.009 199.455 382.797 206.65 399.155 206.65C404.001 206.65 407.537 206.006 409.665 204.739C414.217 202.027 416.616 199.051 416.999 195.644C417.808 188.475 409.335 180.4 399.523 171.047C388.814 160.839 376.677 149.271 371.849 135.239C359.846 100.349 364.5 64.3362 369.894 36.8593C371.515 28.6044 373.521 20.504 375.46 12.6701Z" fill="#1695A3" fill-opacity="0.27"/>
<path d="M216.447 492.455C218.799 492.455 220.752 493.426 222.248 495.347C227.122 501.588 226.166 516.103 224.57 522.487C216.806 553.539 200.157 564.574 174.95 581.281C168.651 585.453 162.551 590.255 156.651 594.896C149.476 600.543 142.055 606.382 134.263 611.099C129.517 613.972 125.471 615.172 122.966 614.442C121.852 614.12 121.058 613.435 120.603 612.398C119.521 609.932 120.411 605.607 123.108 600.225C130.343 585.78 142.479 573.519 154.217 561.661C156.214 559.643 158.188 557.65 160.109 555.672C174.381 540.977 187.069 527.584 197.8 512.462C198.679 511.222 199.683 509.559 200.745 507.799C204.568 501.461 209.806 492.783 215.988 492.465C216.142 492.459 216.294 492.455 216.447 492.455ZM200.202 507.471C199.146 509.221 198.147 510.875 197.281 512.094C186.577 527.177 173.908 540.554 159.654 555.23C157.735 557.206 155.762 559.199 153.766 561.215C141.994 573.106 129.821 585.404 122.54 599.94C119.717 605.576 118.846 609.97 120.021 612.652C120.556 613.869 121.487 614.677 122.79 615.051C123.329 615.208 123.93 615.286 124.582 615.286C127.194 615.286 130.656 614.025 134.591 611.641C142.417 606.904 149.853 601.053 157.044 595.394C162.934 590.76 169.025 585.967 175.305 581.807C200.631 565.021 217.365 553.933 225.186 522.64C226.807 516.153 227.759 501.37 222.749 494.955C221.023 492.745 218.761 491.706 215.954 491.833C209.437 492.165 204.1 501.01 200.202 507.471Z" fill="#1695A3" fill-opacity="0.27"/>
<path d="M68.2639 216.508C72.4825 218.67 84.3362 222.533 92.9414 222.531C96.0132 222.531 98.3543 222.023 99.9014 221.018C103.254 218.842 104.733 216.8 104.423 214.782C103.738 210.324 94.0455 207.631 86.2569 205.467C83.0495 204.576 80.2805 203.806 78.7086 203.079C60.1372 194.462 41.9821 184.502 24.4264 174.87L22.482 173.804C14.8659 169.627 7.37387 165.523 0 161.62V162.815C7.21106 166.642 14.537 170.653 21.9819 174.736L23.9183 175.798C41.4896 185.437 59.6604 195.405 78.2639 204.037C79.9134 204.803 82.7216 205.583 85.9734 206.487C93.0728 208.458 102.796 211.16 103.378 214.943C103.614 216.485 102.251 218.232 99.3245 220.132C97.9528 221.023 95.8048 221.473 92.9414 221.473C84.6231 221.475 72.7686 217.629 68.7473 215.567C58.1653 210.142 46.8909 201.596 35.9602 193.309C25.5362 185.407 13.6767 176.423 0 168.25V169.492C13.4156 177.556 25.081 186.389 35.3488 194.174C46.2886 202.467 57.6002 211.041 68.2639 216.508Z" fill="#1695A3" fill-opacity="0.27"/>
<path d="M36.5149 618.908C39.0436 564.073 76.8344 520.854 107.2 486.129L109.593 483.392C145.704 442.056 144.238 427.621 127.296 410.904C108.719 392.577 79.4374 365.031 39.8097 337.554C26.2841 328.176 12.9057 319.605 0 311.975V313.202C12.714 320.737 25.8857 329.189 39.2055 338.423C78.7681 365.856 108.004 393.358 126.552 411.657C143.006 427.892 144.346 442.001 108.797 482.698L106.404 485.433C75.9294 520.283 38.0049 563.654 35.4595 618.857C33.0695 670.675 13.5544 685.888 0 690.16V691.268C13.8685 687.039 34.0795 671.75 36.5149 618.908Z" fill="#1695A3" fill-opacity="0.27"/>
<path d="M649.594 888.07C643.378 874.823 618.258 872.04 598.279 872.04C591.257 872.04 583.656 872.375 575.681 873.037C553.465 874.876 530.236 879.284 504.668 886.513C501.09 887.526 497.538 888.618 494.105 889.756C472.101 897.059 455.181 907.622 442.371 922.052C434.708 930.683 428.658 940.616 424.044 952H424.71C436.953 921.794 459.522 901.903 494.302 890.359C497.727 889.223 501.272 888.133 504.841 887.124C530.368 879.906 553.558 875.505 575.736 873.669C583.69 873.01 591.274 872.675 598.279 872.675C618.074 872.675 642.947 875.391 649.018 888.338C655.674 902.527 639.488 917.745 628.777 927.812C626.953 929.526 625.233 931.147 623.788 932.598C616.904 939.522 610.96 945.503 606.887 951.037C606.65 951.359 606.43 951.679 606.195 952H606.978C607.122 951.803 607.255 951.608 607.399 951.414C611.442 945.915 617.372 939.952 624.239 933.044C625.675 931.6 627.391 929.986 629.213 928.276C640.057 918.081 656.444 902.676 649.594 888.07Z" fill="#1695A3" fill-opacity="0.27"/>
<path d="M213.766 853.904C204.354 851.486 194.239 851.329 184.456 851.177C178.812 851.091 172.976 850.999 167.399 850.468C140.763 847.934 117.938 841.775 95.5694 831.092C71.2348 819.469 53.9549 808.769 40.0716 800.167C35.0347 797.05 30.0764 795.468 25.3338 795.468C16.4807 795.468 7.33503 801.258 0 810.939V811.992C7.29372 802.064 16.4732 796.105 25.3338 796.105C29.9567 796.105 34.8034 797.653 39.7369 800.708C53.6342 809.317 70.9297 820.027 95.2975 831.665C117.734 842.383 140.627 848.556 167.34 851.1C172.941 851.633 178.789 851.725 184.447 851.814C194.192 851.964 204.27 852.12 213.61 854.519C228.154 858.255 227.63 868.873 225.567 881.336C223.102 896.2 221.063 910.928 223.09 927.66C224.097 935.972 225.694 944.088 227.6 952H228.252C226.337 944.064 224.729 935.922 223.718 927.587C221.702 910.937 223.737 896.255 226.191 881.44C228.23 869.134 228.812 857.769 213.766 853.904Z" fill="#1695A3" fill-opacity="0.27"/>
<path d="M270.023 18.2975C284.523 63.452 290.413 87.9839 254.432 108.782C248.525 112.196 241.821 114.718 234.503 116.273C228.3 117.595 221.48 118.266 214.23 118.266C147.344 118.257 55.468 62.3709 6.10949 32.349L4.42532 31.323C2.91301 30.4027 1.44535 29.5121 0 28.6341V29.8717C1.26851 30.6418 2.55684 31.4245 3.87576 32.2263L5.55995 33.2502C55.007 63.3292 147.047 119.315 214.23 119.324C221.556 119.324 228.45 118.647 234.725 117.31C242.151 115.729 248.959 113.17 254.96 109.698C291.648 88.4916 285.702 63.6634 271.03 17.9738C269.173 12.1899 267.241 6.16477 265.473 4.57764e-05H264.37C266.169 6.2769 268.132 12.4099 270.023 18.2975Z" fill="#1695A3" fill-opacity="0.27"/>
<path d="M185.582 11.8556C186.006 13.4444 186.596 15.4014 187.27 17.6058C189.179 23.8615 188.838 28.0798 186.257 30.1467C184.963 31.1834 183.074 31.708 180.64 31.708C170.316 31.708 153.127 22.4968 147.479 19.4695C144.719 17.9907 142.639 16.8801 141.01 16.0656L132.332 11.7816C124.377 7.88684 116.618 3.95192 109.098 6.48499e-05H107.742C115.6 4.14232 123.716 8.2698 132.053 12.3528L140.727 16.6347C142.347 17.4428 144.424 18.5514 147.18 20.028C152.862 23.0744 170.156 32.3427 180.64 32.3427C183.223 32.3427 185.246 31.7715 186.653 30.6439C189.457 28.3972 189.869 23.9481 187.877 17.4195C187.206 15.2215 186.616 13.2709 186.191 11.6758C185.173 7.85299 184.145 3.97519 183.186 6.48499e-05H182.534C183.505 4.03654 184.548 7.9736 185.582 11.8556Z" fill="#1695A3" fill-opacity="0.27"/>
<path d="M250.082 24.7012C255.953 42.9838 261.567 65.9123 252.79 81.0555C248.444 88.5593 240.824 93.5161 230.147 95.7882C225.368 96.8057 220.014 97.3241 214.234 97.3241C153.211 97.3156 64.5989 43.4112 16.993 14.4535L8.20935 9.1181C5.51862 7.48911 2.78079 5.968 0 4.53577V5.25504C2.66759 6.6365 5.29716 8.09836 7.88044 9.66176L16.6633 14.9951C64.322 43.9845 153.032 97.9481 214.234 97.9566C220.06 97.9566 225.457 97.4362 230.278 96.408C241.139 94.0978 248.899 89.0374 253.34 81.3749C262.24 66.0138 256.598 42.914 250.687 24.5066C248.153 16.6156 245.641 8.41571 243.49 3.05176e-05H242.834C244.996 8.48552 247.528 16.7509 250.082 24.7012Z" fill="#1695A3" fill-opacity="0.27"/>
<path d="M199.892 8.04541C200.276 9.48611 200.813 11.2484 201.435 13.2878C204.506 23.3557 209.148 38.5709 204.759 45.5882C202.967 48.4526 200.196 50.3227 196.523 51.1436C195.04 51.4757 193.383 51.6428 191.595 51.6428C176.141 51.6428 152.941 39.2012 140.477 32.5182C138.057 31.2214 135.969 30.1022 134.401 29.3195L133.318 28.78C132.091 28.1686 130.945 27.5995 129.891 27.0812L125.808 25.0778C108.965 16.8293 92.9669 8.38818 78.2317 0H76.9524C91.9654 8.57647 108.305 17.2122 125.528 25.6469L129.612 27.6504C130.664 28.1687 131.809 28.7377 133.035 29.3491L134.118 29.8865C135.676 30.665 137.762 31.782 140.177 33.0788C152.689 39.7872 175.982 52.2775 191.595 52.2775C193.429 52.2775 195.134 52.1041 196.661 51.7635C200.507 50.9024 203.411 48.9392 205.296 45.9245C209.84 38.6618 205.148 23.2817 202.043 13.1017C201.422 11.0686 200.887 9.31268 200.505 7.88045C199.812 5.28254 199.117 2.65503 198.443 0H197.79C198.476 2.71214 199.185 5.39462 199.892 8.04541Z" fill="#1695A3" fill-opacity="0.27"/>
<path d="M214.202 4.23536C217.208 15.5197 220.316 27.1913 220.644 39.233C221.069 54.8056 215.004 63.7206 202.618 65.7304C200.776 66.0287 198.766 66.181 196.642 66.181C175.13 66.181 144.337 50.8242 127.793 42.5735C126.18 41.7696 124.695 41.0291 123.358 40.3712L119.281 38.3699C93.5472 25.7675 69.6958 12.6933 49.2164 1.52588e-05H48.0122C68.7034 12.8732 92.8853 26.1504 119.002 38.9389L123.078 40.9403C124.414 41.5961 125.898 42.3365 127.511 43.1426C144.101 51.4165 174.98 66.8177 196.642 66.8177C198.8 66.8177 200.845 66.6612 202.719 66.3566C215.469 64.2854 221.712 55.1547 221.279 39.2161C220.946 27.1003 217.83 15.3928 214.816 4.07246C214.456 2.72273 214.096 1.36243 213.739 1.52588e-05H213.083C213.453 1.41743 213.828 2.83275 214.202 4.23536Z" fill="#1695A3" fill-opacity="0.27"/>
<path d="M235.984 29.2285C236.295 30.1975 236.614 31.1685 236.934 32.1417C240.314 42.4317 243.811 53.0709 238.165 63.3419C233.454 71.912 223.908 78.8616 213.842 81.0469C212.814 81.2691 211.775 81.4425 210.758 81.561C208.242 81.8529 205.598 82.0032 202.899 82.0032C174.494 82.0032 141.172 65.6266 116.841 53.6695L112.768 51.6704C81.5059 36.3622 51.3212 18.0012 24.6882 1.80029C23.5577 1.11485 22.5843 0.522537 21.7241 -7.62939e-06H20.501C22.5058 1.21644 24.3595 2.34399 24.3586 2.34188C51.003 18.5491 81.2009 36.9207 112.489 52.2415L116.561 54.2408C140.948 66.2233 174.347 82.6357 202.899 82.6357C205.623 82.6357 208.291 82.4876 210.832 82.1914C211.869 82.0708 212.928 81.8953 213.978 81.6647C224.213 79.4433 233.925 72.371 238.721 63.6486C244.501 53.1364 240.96 42.3619 237.537 31.9449C237.217 30.9717 236.898 30.0028 236.587 29.036C233.61 19.7614 230.678 10.0489 228.251 -7.62939e-06H227.598C230.035 10.1208 232.986 19.8968 235.984 29.2285Z" fill="#1695A3" fill-opacity="0.27"/>
<path d="M230.78 479.508C239.697 490.93 241.472 515.072 238.732 526.029C229.593 562.581 209.038 576.201 183.005 593.456C181.705 594.315 180.388 595.182 179.059 596.058C163.178 606.515 145.177 618.371 134.908 634.565C129.479 643.127 127.371 652.935 125.334 662.419C123.343 671.685 121.284 681.266 116.102 689.457C112.403 695.305 108.107 701.281 104.291 701.281C101.377 701.281 98.6989 697.753 96.1048 690.496C95.2927 688.222 94.9381 685.956 95.0214 683.566C95.2654 676.515 99.3856 669.815 103.37 663.339C106.816 657.739 110.068 652.45 110.996 646.964C112.467 638.242 110.628 629.938 108.849 621.908C106.644 611.954 104.56 602.55 108.212 592.36C112.59 580.145 127.176 566.626 138.896 555.763C142.881 552.071 146.644 548.585 149.648 545.49C161.133 533.67 173.009 521.444 183.542 507.841C185.465 505.358 187.632 501.926 189.928 498.292C196.349 488.129 204.341 475.48 213.206 473.292C214.811 472.894 216.377 472.696 217.862 472.696C222.903 472.696 227.249 474.987 230.78 479.508ZM212.952 472.264C203.675 474.555 195.557 487.405 189.033 497.727C186.751 501.338 184.596 504.75 182.706 507.192C172.208 520.75 160.355 532.953 148.89 544.753C145.904 547.827 142.151 551.305 138.177 554.989C126.372 565.928 111.681 579.544 107.217 592.004C103.462 602.483 105.675 612.475 107.816 622.136C109.573 630.068 111.39 638.27 109.952 646.785C109.061 652.071 105.86 657.274 102.47 662.782C98.4131 669.379 94.2173 676.199 93.9637 683.53C93.8778 686.02 94.2628 688.486 95.109 690.852C97.9107 698.69 100.828 702.339 104.291 702.339C107.781 702.339 111.461 698.772 116.996 690.024C122.278 681.674 124.357 672 126.368 662.641C128.387 653.246 130.473 643.533 135.8 635.132C145.949 619.128 163.848 607.342 179.641 596.942C180.971 596.066 182.289 595.197 183.598 594.332C209.814 576.959 230.519 563.235 239.758 526.285C242.201 516.504 241.56 491.598 231.613 478.858C226.781 472.668 220.435 470.417 212.952 472.264Z" fill="#1695A3" fill-opacity="0.27"/>
<path d="M224.482 450.503C227.579 455.367 231.507 458.356 235.667 461.519C240.162 464.938 244.81 468.475 248.447 474.674C256.776 488.873 263.2 514.488 259.05 531.106C247.939 575.552 222.017 592.728 194.574 610.911C163.066 631.789 130.482 653.381 118.522 718.356C115.637 734.036 110.863 742.325 104.717 742.325C95.1041 742.325 83.4197 722.32 79.7829 705.113C73.4783 675.296 75.5608 639.75 85.9726 599.462C92.8771 572.744 112.65 553.256 131.773 534.408C141.717 524.609 151.998 514.473 160.281 503.485C162.29 500.82 165.485 497.24 169.185 493.094C181.363 479.446 198.044 460.755 195.131 449.587C194.083 445.576 191.596 441.58 188.961 437.351C186.263 433.02 183.474 428.54 182.477 424.171C181.214 418.63 183.181 417.651 184.916 416.79C185.875 416.312 186.866 415.819 187.108 414.655C187.43 413.105 186.445 410.735 180.548 403.728C177.199 399.751 167.725 394.667 158.565 389.749C148.943 384.585 138.037 378.729 137.128 375.359C135.066 367.709 135.715 364.692 136.622 363.507C137.106 362.875 137.815 362.568 138.788 362.568C148.035 362.568 174.877 388.898 196.913 413.538C197.186 413.845 197.342 413.997 197.35 414.004C201.477 417.137 205.11 417.913 208.316 418.596C212.848 419.563 216.762 420.399 221.467 427.175C223.707 430.401 223.329 434.281 222.931 438.388C222.531 442.515 222.114 446.782 224.482 450.503ZM222.683 426.331C217.644 419.072 213.263 418.137 208.626 417.149C205.422 416.464 202.109 415.757 198.331 412.901L198.018 412.552C187.221 400.479 151.041 361.087 138.788 361.087C137.342 361.087 136.219 361.597 135.446 362.606C133.809 364.743 133.892 369.042 135.7 375.746C136.775 379.734 147.019 385.232 157.865 391.054C166.902 395.905 176.249 400.923 179.415 404.685C182.256 408.059 185.995 412.734 185.657 414.353C185.566 414.793 185.09 415.049 184.257 415.463C182.367 416.403 179.51 417.824 181.033 424.499C182.086 429.113 184.942 433.697 187.704 438.134C190.277 442.265 192.707 446.166 193.697 449.962C196.411 460.36 179.361 479.467 168.08 492.108C164.358 496.278 161.145 499.88 159.1 502.592C150.881 513.498 140.639 523.592 130.734 533.353C111.468 552.342 91.5458 571.976 84.5386 599.091C74.0692 639.602 71.9818 675.376 78.3341 705.417C81.7216 721.449 93.3975 743.804 104.717 743.804C111.769 743.804 116.904 735.333 119.979 718.622C131.825 654.267 164.141 632.854 195.392 612.144C223.081 593.798 249.236 576.468 260.486 531.466C264.728 514.484 258.201 488.376 249.722 473.922C245.94 467.472 241.171 463.846 236.563 460.341C232.512 457.26 228.687 454.349 225.732 449.708C223.637 446.418 224.01 442.587 224.405 438.531C224.812 434.338 225.233 430.004 222.683 426.331Z" fill="#1695A3" fill-opacity="0.27"/>
<path d="M0 289C71.3389 329.373 148.222 393.601 162.219 425.525C170.625 444.698 150.247 467.608 124.45 496.612C95.134 529.57 58.6495 570.591 56.3804 619.822C53.6137 679.836 23.8711 704.484 0 711.937V713.484C24.419 706.046 55.0391 681.078 57.8596 619.892C60.1048 571.181 96.3957 530.38 125.557 497.596C151.708 468.196 172.363 444.971 163.575 424.928C149.473 392.766 71.8553 327.979 0 287.419V289Z" fill="#1695A3" fill-opacity="0.27"/>
<path d="M359.363 0.11853C359.399 0.0783234 359.437 0.0402374 359.473 4.57764e-05H358.608C357.279 1.41112 355.94 2.90686 355.018 5.06683C352.386 11.2379 353.135 17.6734 353.856 23.8974C354.26 27.3647 354.675 30.9507 354.508 34.4604C354.243 39.9735 353.12 45.696 352.033 51.2324C351.138 55.802 350.209 60.5261 349.765 65.1274C347.053 93.1057 349.502 118.41 357.046 140.335C358.612 144.884 364.745 151.882 371.236 159.291C379.535 168.766 388.118 178.563 388.46 184.512C388.537 185.839 388.196 186.884 387.417 187.707C385.175 190.085 379.16 190.521 369.547 188.997C362.555 187.889 355.839 184.969 349.34 182.145C345.546 180.497 341.624 178.792 337.708 177.478C336.602 177.108 335.455 176.727 334.277 176.34C320.21 171.696 300.946 165.339 298.185 154.201C296.87 148.891 299.451 142.821 305.856 136.161C315.956 125.662 326.398 114.809 333.467 98.329C340.241 82.5363 348.036 51.7931 345.051 35.1542C344.44 31.7439 343.018 29.4444 341.641 27.2188C339.798 24.2401 338.057 21.4285 338.855 16.3279C339.441 12.5707 340.903 10.3705 342.193 8.42632C343.738 6.09709 345.089 3.98787 344.715 4.57764e-05H344.082C344.459 3.79112 343.204 5.75645 341.664 8.0751C340.338 10.0722 338.836 12.3359 338.227 16.2306C337.393 21.5618 339.193 24.4707 341.099 27.5531C342.447 29.7279 343.837 31.9767 344.427 35.2664C347.389 51.7825 339.627 82.3586 332.883 98.0793C325.861 114.452 315.459 125.264 305.399 135.721C298.831 142.548 296.197 148.819 297.57 154.355C300.415 165.832 319.872 172.253 334.078 176.943C335.256 177.332 336.403 177.711 337.505 178.079C341.396 179.384 345.307 181.085 349.088 182.727C355.621 185.568 362.376 188.505 369.448 189.624C373.228 190.224 376.495 190.529 379.156 190.529C383.51 190.529 386.364 189.748 387.881 188.141C388.771 187.199 389.18 185.966 389.093 184.474C388.738 178.31 380.083 168.43 371.714 158.874C365.263 151.512 359.173 144.56 357.647 140.128C350.133 118.289 347.694 93.0761 350.395 65.1888C350.837 60.6171 351.762 55.9078 352.657 51.3551C353.746 45.7976 354.874 40.0496 355.142 34.4921C355.312 30.9295 354.893 27.3161 354.489 23.8255C353.742 17.4005 353.035 11.3331 355.604 5.31435C356.547 3.09935 357.979 1.58461 359.363 0.11853Z" fill="#1695A3" fill-opacity="0.27"/>
<path d="M289.964 11.8958C303.352 53.587 317.196 96.6957 264.912 126.916C257.097 131.433 248.332 134.746 238.865 136.76C231.228 138.387 222.939 139.21 214.23 139.21C143.546 139.21 55.131 86.6468 0 53.1449V54.8775C55.3144 88.4789 143.469 140.693 214.23 140.693C223.043 140.693 231.435 139.857 239.172 138.209C248.794 136.161 257.702 132.793 265.652 128.198C318.971 97.379 304.94 53.6928 291.373 11.443C290.14 7.59906 288.917 3.78262 287.752 1.52588e-05H286.201C287.409 3.93073 288.68 7.89949 289.964 11.8958Z" fill="#1695A3" fill-opacity="0.27"/>
<path d="M202.817 873.957C195.118 866.836 183.605 866.233 173.447 865.702C170.838 865.567 168.373 865.437 165.993 865.212C137.576 862.505 113.17 855.909 89.188 844.454C68.5565 834.601 52.5732 825.615 38.8873 816.169C35.1404 813.579 31.3068 812.268 27.4931 812.268C18.821 812.268 10.6596 819.071 5.65994 830.468C3.77163 834.771 1.90731 839 0 843.185V844.707C2.11308 840.11 4.1617 835.46 6.24171 830.722C11.1364 819.564 19.0813 812.905 27.4931 812.905C31.1755 812.905 34.8876 814.178 38.527 816.689C52.2403 826.156 68.2514 835.16 88.9153 845.027C112.966 856.517 137.438 863.129 165.933 865.841C168.327 866.07 170.799 866.199 173.414 866.337C183.465 866.864 194.855 867.458 202.386 874.424C211.118 882.501 209.887 897.835 208.803 911.364C208.269 918.016 207.764 924.301 208.387 929.442C209.313 937.075 211.148 944.629 213.083 952H213.739C211.795 944.6 209.945 937.011 209.018 929.368C208.403 924.288 208.904 918.035 209.435 911.413C210.532 897.743 211.776 882.244 202.817 873.957Z" fill="#1695A3" fill-opacity="0.27"/>
<path d="M5.09056 910.676C3.23532 909.934 1.53047 909.247 0 908.455V909.164C1.49328 909.917 3.12457 910.573 4.85503 911.265C5.74507 911.62 6.66235 911.989 7.60278 912.384C21.2127 918.126 31.606 923.535 40.3153 929.399C51.2362 936.76 63.5682 944.354 76.9516 952H78.2309C64.4872 944.177 51.8411 936.4 40.6707 928.875C31.9267 922.986 21.4976 917.559 7.84822 911.798C6.9053 911.403 5.98389 911.033 5.09056 910.676Z" fill="#1695A3" fill-opacity="0.27"/>
<path d="M32.0424 941.683C37.0842 945.08 42.4285 948.526 48.0123 952H49.2148C43.3217 948.348 37.6933 944.724 32.3978 941.158C24.9337 936.129 12.362 929.647 0 924.572V925.253C12.2397 930.294 24.6528 936.704 32.0424 941.683Z" fill="#1695A3" fill-opacity="0.27"/>
<path d="M19.7672 440.421C18.7243 433.6 14.018 427.505 5.37979 421.785C3.60884 420.613 1.82715 419.428 0 418.197V418.958C1.69327 420.094 3.37084 421.216 5.02857 422.314C13.509 427.928 18.126 433.884 19.1392 440.516C20.8167 451.487 12.4826 462.803 2.25025 475.395C1.55774 476.245 0.794986 477.293 0 478.416V479.52C0.984228 478.103 1.91144 476.817 2.74195 475.795C13.0727 463.082 21.4845 451.646 19.7672 440.421Z" fill="#1695A3" fill-opacity="0.27"/>
<path d="M15.8857 948.478L15.8956 948.461C10.7802 945.363 5.46325 942.621 0 940.157V940.851C5.34922 943.276 10.5563 945.968 15.5692 949.004C15.6171 949.034 18.1624 950.579 20.5019 952H21.7225C17.3715 949.358 16.2162 948.66 15.8857 948.478Z" fill="#1695A3" fill-opacity="0.27"/>
<path d="M144.258 2.09869C148.226 4.10636 153.661 6.85663 158.458 6.85663C160.469 6.85663 162.213 6.3616 163.643 5.38421C163.764 5.3017 163.88 5.21492 163.993 5.12607C165.563 3.87154 166.567 2.06909 167.197 8.01086e-05H166.088C165.511 1.74541 164.642 3.25377 163.332 4.29885C163.24 4.37501 163.142 4.44488 163.046 4.51258C161.795 5.36726 160.252 5.79885 158.458 5.79885C153.914 5.79885 148.609 3.11422 144.735 1.1531C144.152 0.859037 143.604 0.581874 143.1 0.334354C143.098 0.334354 142.822 0.198943 142.417 8.01086e-05H140.016L142.631 1.28212C143.135 1.52964 143.679 1.80675 144.258 2.09869Z" fill="#1695A3" fill-opacity="0.27"/>
<path d="M148.32 937.565C147.803 937.652 147.247 937.697 146.67 937.697C141.941 937.697 136.221 934.852 131.173 932.34C129.541 931.528 128 930.762 126.619 930.159C126.028 929.901 125.313 929.613 124.519 929.296C119.778 927.388 111.844 924.197 111.593 919.514C111.575 919.148 111.677 918.86 111.916 918.608C112.386 918.111 113.625 917.521 116.854 917.521C121.722 917.521 128.301 918.843 131.463 919.48C132.09 919.606 132.569 919.7 132.855 919.75C133.693 919.894 134.652 920.036 135.685 920.186C141.242 920.999 149.639 922.224 152.444 926.556C153.527 928.227 153.721 930.214 153.036 932.63C152.207 935.554 150.664 937.165 148.32 937.565ZM154.209 932.964C154.985 930.229 154.736 927.849 153.468 925.892C150.362 921.096 141.982 919.873 135.862 918.98C134.838 918.828 133.891 918.691 133.062 918.549C132.783 918.5 132.316 918.405 131.704 918.284C128.503 917.639 121.843 916.303 116.854 916.303C113.873 916.303 111.968 916.783 111.032 917.766C110.559 918.263 110.339 918.872 110.375 919.577C110.667 925.041 119.053 928.414 124.064 930.428C124.845 930.74 125.549 931.025 126.132 931.278C127.484 931.866 129.012 932.628 130.631 933.433C135.797 936.004 141.655 938.915 146.67 938.915C147.315 938.915 147.94 938.866 148.525 938.767C151.34 938.291 153.253 936.338 154.209 932.964Z" fill="#1695A3" fill-opacity="0.27"/>
<path d="M195.429 904.679C196.437 898.459 197.481 892.026 193.374 887.139C188.473 881.304 180.468 880.894 173.406 880.53L172.677 880.492C170.167 880.361 167.322 880.211 164.589 879.953C134.394 877.08 108.407 870.045 82.8066 857.816C74.7436 853.967 66.8234 849.577 59.1653 845.334C54.959 843.003 50.609 840.593 46.2803 838.295L45.986 838.141C40.9104 835.445 35.6619 832.66 30.2615 832.66C27.4155 832.66 24.8447 833.431 22.4027 835.021C13.79 840.624 9.65717 851.5 5.65994 862.02C3.84519 866.793 2.09242 871.311 0 875.262V876.587C2.36678 872.368 4.27243 867.456 6.25329 862.243C10.2142 851.822 14.3097 841.046 22.7496 835.553C25.085 834.032 27.542 833.294 30.2615 833.294C35.5033 833.294 40.6815 836.045 45.6894 838.7L45.9827 838.858C50.3064 841.151 54.6533 843.559 58.8579 845.89C66.5251 850.139 74.4536 854.532 82.534 858.391C108.202 870.653 134.257 877.704 164.53 880.585C167.275 880.845 170.128 880.993 172.644 881.125L173.373 881.164C180.306 881.521 188.164 881.925 192.888 887.547C196.808 892.212 195.788 898.5 194.801 904.578C194.485 906.532 194.186 908.379 194.039 910.203C193.471 917.286 192.884 924.612 193.686 931.223C194.559 938.429 196.095 945.315 197.789 952H198.444C196.74 945.285 195.191 938.374 194.316 931.149C193.523 924.597 194.106 917.307 194.673 910.23C194.816 908.455 195.114 906.621 195.429 904.679Z" fill="#1695A3" fill-opacity="0.27"/>
<path d="M38.4815 447.582C43.9813 432.132 38.4485 425.923 13.5487 409.432C11.5719 408.122 9.58529 406.807 7.55154 405.431C4.94099 403.665 2.45521 401.977 0 400.293V401.063C2.34363 402.666 4.71868 404.281 7.21851 405.973C9.23159 407.333 11.2199 408.651 13.1974 409.961C37.7675 426.232 43.2367 432.331 37.8849 447.368C33.0382 460.986 23.6652 472.52 13.7412 484.737C9.12416 490.418 4.41457 496.223 0 502.421V503.519C4.55174 497.058 9.44314 491.031 14.2354 485.133C24.1933 472.877 33.5984 461.301 38.4815 447.582Z" fill="#1695A3" fill-opacity="0.27"/>
<path d="M167.311 896.358C160.628 893.444 153.331 892.745 146.275 892.07C142.257 891.685 138.102 891.288 134.132 890.482C114.205 886.445 94.7903 879.951 76.4245 871.179C67.9648 867.141 59.8504 862.645 51.9873 858.287C50.8726 857.669 49.576 856.842 48.204 855.965C43.6698 853.072 38.0255 849.47 32.9771 849.47C31.0896 849.47 29.3989 849.984 27.9493 850.999C24.0943 853.696 22.2762 859.131 20.6721 863.925C20.2714 865.12 19.8945 866.251 19.5028 867.279C18.8169 869.085 17.4451 871.572 15.9923 874.209C12.476 880.592 8.09866 888.536 9.67376 893.315C11.2645 898.136 17.5492 900.778 22.5993 902.9C23.7438 903.383 24.8257 903.835 25.7504 904.275C34.377 908.375 41.8485 912.576 48.5901 917.119C65.313 928.384 85.4554 940.25 107.742 952H109.099C86.408 940.079 65.9161 928.027 48.9445 916.594C42.1755 912.031 34.6787 907.815 26.0231 903.702C25.085 903.255 23.9976 902.799 22.8455 902.316C17.9137 900.243 11.7769 897.662 10.277 893.116C8.78869 888.599 13.0909 880.79 16.5485 874.515C18.0756 871.746 19.3946 869.351 20.0953 867.505C20.4912 866.461 20.8713 865.328 21.2739 864.126C22.8463 859.425 24.6298 854.096 28.3129 851.519C29.6542 850.581 31.2235 850.105 32.9771 850.105C37.8403 850.105 43.3971 853.652 47.8619 856.499C49.2438 857.382 50.547 858.216 51.6964 858.852C59.5512 863.204 67.6731 867.703 76.1518 871.753C94.5628 880.547 114.028 887.057 134.007 891.106C138.009 891.916 142.18 892.316 146.216 892.703C153.222 893.372 160.467 894.065 167.056 896.943C178.705 902.024 178.654 911.963 178.602 922.488C178.584 925.961 178.566 929.556 178.984 933.005C179.795 939.689 181.081 945.958 182.534 952H183.186C181.724 945.934 180.428 939.639 179.615 932.928C179.202 929.518 179.219 925.947 179.236 922.49C179.29 911.754 179.342 901.609 167.311 896.358Z" fill="#1695A3" fill-opacity="0.27"/>
<path d="M138.948 950.297C107.596 934.947 79.3755 918.985 57.3382 904.136C54.4344 902.179 51.2883 900.554 48.2438 898.98C44.0349 896.806 39.6841 894.556 35.9901 891.43C30.9682 887.175 29.6756 882.991 31.7996 877.856C33.4648 873.834 36.2702 871.88 40.3774 871.88C47.2273 871.88 56.3489 877.429 63.0106 881.482C65.6369 883.079 67.906 884.458 69.6778 885.307C89.2006 894.63 109.839 901.536 131.023 905.825C135.795 906.792 140.362 907.23 144.781 907.654C145.548 907.725 146.341 907.791 147.15 907.854C152.464 908.273 158.486 908.749 162.072 912.701C165.663 916.658 166.008 924.675 166.285 931.117C166.361 932.9 166.434 934.582 166.567 936.055L166.64 936.855C167.034 941.097 167.608 947.4 166.089 952H167.197C168.656 947.214 168.087 940.992 167.694 936.757L167.621 935.96C167.489 934.51 167.417 932.839 167.342 931.071C167.058 924.457 166.704 916.23 162.856 911.99C158.987 907.725 152.742 907.234 147.234 906.799C146.429 906.734 145.643 906.672 144.881 906.6C140.49 906.181 135.95 905.745 131.234 904.789C110.134 900.514 89.5773 893.638 70.135 884.351C68.4102 883.528 66.1624 882.161 63.5594 880.577C56.7928 876.46 47.5241 870.822 40.3774 870.822C35.8579 870.822 32.6433 873.053 30.8218 877.452C28.5262 883.003 29.95 887.7 35.3068 892.236C39.0924 895.44 43.4978 897.717 47.7579 899.919C50.7759 901.479 53.8955 903.09 56.7473 905.012C78.8244 919.886 107.088 935.875 138.482 951.249C139.085 951.543 139.574 951.784 140.015 952H142.417C141.243 951.425 138.949 950.297 138.948 950.297Z" fill="#1695A3" fill-opacity="0.27"/>
<path d="M206.597 533.463C205.836 537.15 203.629 541.686 200.543 545.909C197.325 550.303 190.731 557.705 182.715 557.878L182.637 558.409V557.88C182.507 557.88 182.379 557.872 182.252 557.857C181.492 557.768 181.362 557.44 181.319 557.333C181.087 556.749 181.12 554.711 186.416 548.428L186.578 548.238C187.872 546.679 189.139 545.096 190.405 543.516C192.351 541.087 194.364 538.572 196.449 536.196C196.828 535.764 197.271 535.208 197.762 534.592C199.731 532.121 202.709 528.392 205.305 528.392H205.307C205.737 528.409 206.05 528.561 206.292 528.87C207.023 529.805 206.914 531.927 206.597 533.463ZM205.348 527.334L205.209 527.332C202.201 527.332 199.157 531.146 196.936 533.934C196.455 534.535 196.023 535.077 195.654 535.498C193.553 537.893 191.533 540.414 189.579 542.856C188.317 544.432 187.055 546.008 185.765 547.559L185.607 547.747C181.385 552.757 179.661 556.019 180.335 557.722C180.521 558.191 180.983 558.775 182.128 558.909C182.295 558.928 182.466 558.938 182.637 558.938L182.739 558.936C191.209 558.752 198.064 551.085 201.396 546.533C204.569 542.194 206.843 537.508 207.632 533.678C207.817 532.786 208.325 529.752 207.126 528.218C206.695 527.668 206.081 527.361 205.348 527.334Z" fill="#1695A3" fill-opacity="0.27"/>
<path d="M358.451 706.151C350.328 702.453 340.78 700.655 329.265 700.655C305.285 700.655 277.271 708.715 252.557 715.826C232.462 721.608 213.481 727.068 200.332 727.07C192.594 727.07 187.346 725.208 184.286 721.379C180.579 716.74 179.98 709.174 182.454 698.252C187.801 674.634 218.366 646.262 245.333 621.231C261.724 606.018 277.208 591.645 285.329 579.965C311.346 542.545 319.904 475.911 291.177 436.359C283.92 426.367 271.614 416.434 258.584 405.92C230.843 383.533 199.403 358.161 212.049 325.988C217.987 310.877 232.55 303.993 247.967 296.702C257.607 292.146 267.573 287.432 275.46 280.497C282.294 274.489 287.783 268.614 293.093 262.934C306.737 248.337 317.513 236.809 340.014 236.809C343.56 236.809 347.41 237.099 351.455 237.672C407.962 245.679 474.056 257.948 543.412 302.44C619.75 351.411 690.727 402.802 720.374 492.561C733.165 531.288 727.557 576.952 706.422 606.193C692.096 626.014 672.133 636.492 648.691 636.495C640.415 636.495 631.652 635.174 622.644 632.57C594.604 624.459 576.866 607.799 568.418 581.64C560.853 558.219 561.221 529.405 561.579 501.539C562.15 456.854 562.74 410.646 531.148 383.899C516.056 371.117 515.652 370.92 506.932 373.07C503.16 374.001 497.991 375.272 489.256 376.095C482.715 376.711 478.071 376.869 474.341 376.996C461.58 377.432 461.58 377.432 443.137 394.141L442.89 394.365C437.7 399.066 430.215 402.546 422.29 406.229C410.53 411.696 398.37 417.346 394.008 427.44C388.164 440.958 393.447 479.679 396.921 496.314C401.031 516.009 413.623 534.142 424.73 550.144L427.072 553.52C430.968 559.156 435.094 564.887 439.084 570.43C462.465 602.914 486.643 636.505 486.049 678.38C485.664 705.472 456.044 737.449 428.423 740.592C426.667 740.792 424.914 740.895 423.209 740.895C406.986 740.895 395.404 731.889 383.142 722.354C375.573 716.469 367.747 710.382 358.451 706.151ZM428.544 741.642C456.613 738.449 486.715 705.94 487.107 678.397C487.705 636.171 463.425 602.436 439.943 569.812C435.955 564.274 431.834 558.547 427.941 552.915L425.599 549.541C414.55 533.624 402.023 515.584 397.955 496.098C394.505 479.571 389.235 441.146 394.979 427.861C399.18 418.135 411.156 412.571 422.737 407.187C430.736 403.468 438.292 399.959 443.6 395.148L443.848 394.923C462.004 378.475 462.004 378.475 474.378 378.054C478.122 377.927 482.783 377.766 489.356 377.149C498.169 376.317 503.38 375.035 507.185 374.098C509.606 373.501 511.353 373.072 512.906 373.072C516.725 373.072 519.911 375.769 530.467 384.707C561.676 411.133 561.09 457.087 560.521 501.526C559.806 557.451 559.067 615.28 622.352 633.586C631.453 636.217 640.315 637.552 648.691 637.552C672.487 637.55 692.745 626.922 707.279 606.813C728.604 577.31 734.269 531.263 721.377 492.231C691.622 402.142 620.488 350.628 543.984 301.551C474.447 256.943 408.222 244.649 351.605 236.625C347.51 236.045 343.611 235.751 340.014 235.751C317.054 235.751 306.14 247.427 292.321 262.21C287.028 267.874 281.555 273.73 274.762 279.702C266.987 286.539 257.089 291.221 247.516 295.746C231.903 303.127 217.158 310.1 211.063 325.603C198.134 358.498 229.895 384.13 257.92 406.745C270.893 417.213 283.146 427.101 290.322 436.981C318.785 476.169 310.27 542.238 284.46 579.36C276.404 590.949 260.962 605.282 244.613 620.456C217.534 645.591 186.842 674.082 181.422 698.015C178.873 709.276 179.539 717.131 183.459 722.039C186.733 726.135 192.252 728.128 200.332 728.128C213.629 728.126 232.679 722.644 252.849 716.843C277.498 709.75 305.433 701.713 329.265 701.713C340.626 701.713 350.029 703.479 358.013 707.114C367.195 711.294 374.972 717.34 382.495 723.19C394.902 732.837 406.623 741.953 423.209 741.953C424.954 741.953 426.748 741.847 428.544 741.642Z" fill="#1695A3" fill-opacity="0.27"/>
<path d="M416.005 835.761C413.796 831.522 411.708 827.519 413.217 824.271C415.478 819.408 419.728 818.671 423.837 817.957C427.129 817.383 430.532 816.793 432.559 813.983C435.849 809.422 437.435 803.96 438.971 798.679C441.089 791.389 443.09 784.503 449.27 780.583C457.658 775.264 464.862 774.378 471.828 773.522C481.382 772.345 490.405 771.237 500.655 758.698C513.904 742.488 523.644 716.922 526.71 690.304C532.896 636.554 501.16 596.439 473.161 561.047C448.673 530.095 427.526 503.365 436.342 474.308C445.728 443.363 471.688 427.173 492.48 427.173C503.335 427.173 512.703 431.22 519.57 438.883C529.388 449.835 533.296 467.362 530.865 489.567C524.467 547.954 526.648 620.052 600.907 659.658C624.96 672.484 649.799 678.721 676.847 678.719C711.512 678.719 743.654 668.361 772.013 659.22C794.886 651.847 814.641 645.479 831.849 645.479C854.46 645.479 869.163 656.707 879.527 681.875C905.354 744.597 880.507 796.822 863.396 822.372C835.839 863.523 794.668 888.114 770.788 888.114C763.483 888.114 757.822 885.999 753.965 881.825C717.169 842.022 670.083 821.843 614.012 821.843C596.91 821.843 578.653 823.719 559.748 827.421C551.515 829.036 542.581 830.434 533.12 831.915C509.051 835.683 481.773 839.952 461.896 848.966C457.573 850.925 450.958 857.379 443.293 864.854C432.043 875.829 419.29 888.266 411.613 888.266C410.932 888.266 410.297 888.163 409.728 887.96C406.335 886.739 404.285 884.934 403.458 882.443C401.346 876.068 407.822 866.297 413.024 858.446C416.145 853.737 418.84 849.671 419.35 846.952C420.008 843.442 417.972 839.537 416.005 835.761ZM412.007 857.771C406.658 865.841 400.001 875.889 402.3 882.828C403.238 885.658 405.598 887.771 409.316 889.109C410.018 889.361 410.792 889.487 411.613 889.487C419.788 889.487 432.728 876.864 444.146 865.727C451.411 858.64 458.274 851.947 462.399 850.077C482.124 841.132 509.318 836.873 533.31 833.121C542.78 831.636 551.726 830.237 559.983 828.621C578.812 824.93 596.989 823.061 614.012 823.061C669.73 823.061 716.513 843.11 753.068 882.652C757.166 887.084 763.127 889.333 770.788 889.333C794.653 889.333 835.579 866.102 864.412 823.05C881.656 797.3 906.697 744.657 880.655 681.414C870.219 656.066 854.712 644.261 831.849 644.261C814.449 644.261 794.609 650.656 771.636 658.061C743.366 667.172 711.32 677.5 676.847 677.5C650.006 677.5 625.354 671.31 601.482 658.581C527.869 619.32 525.722 547.707 532.075 489.7C534.546 467.142 530.535 449.287 520.475 438.066C513.373 430.141 503.693 425.952 492.48 425.952C471.238 425.952 444.734 442.441 435.174 473.954C426.174 503.621 447.506 530.584 472.205 561.805C500.056 597.01 531.624 636.916 525.498 690.162C522.46 716.558 512.819 741.892 499.709 757.925C489.77 770.085 480.982 771.166 471.68 772.311C464.578 773.185 457.235 774.086 448.618 779.552C442.047 783.72 439.985 790.822 437.799 798.339C436.293 803.519 434.736 808.88 431.569 813.268C429.834 815.676 426.82 816.2 423.629 816.752C419.415 817.486 414.642 818.316 412.112 823.759C410.35 827.55 412.673 832.01 414.922 836.324C416.796 839.918 418.732 843.633 418.152 846.728C417.687 849.201 415.055 853.174 412.007 857.771Z" fill="#1695A3" fill-opacity="0.27"/>
<path d="M280.664 861.264C290.21 852.637 305.313 845.071 322.802 836.313C335.015 830.197 351.415 815.178 350.435 802.889C349.902 796.175 344.501 791.154 334.387 787.966C330.41 786.711 326.056 786.102 321.078 786.102C308.12 786.102 293.538 790.401 280.671 794.194C274.792 795.927 269.238 797.564 264.174 798.713C221.6 808.377 195.903 814.212 172.876 814.214C152.486 814.214 134.606 809.646 111.162 798.449C88.6005 787.672 72.2644 777.555 59.1241 769.415C39.798 757.443 30.7714 752.149 19.3416 752.149C14.0114 752.149 7.64162 753.343 0 755.776V756.885C7.65732 754.426 14.0387 753.207 19.3416 753.207C30.4839 753.207 39.4179 758.454 58.5802 770.324C71.7298 778.467 88.0921 788.603 110.706 799.403C134.304 810.674 152.316 815.271 172.876 815.271C196.021 815.27 221.763 809.426 264.406 799.745C269.505 798.586 275.073 796.946 280.969 795.21C293.768 791.436 308.272 787.16 321.078 787.16C325.946 787.16 330.196 787.754 334.069 788.975C343.733 792.019 348.885 796.729 349.382 802.974C350.325 814.8 334.275 829.385 322.328 835.368C304.769 844.16 289.607 851.754 279.958 860.479C250.852 886.796 255.54 921.159 264.37 952H265.473C256.68 921.375 251.929 887.249 280.664 861.264Z" fill="#1695A3" fill-opacity="0.27"/>
<path d="M695.927 878.442C692.002 866.038 674.839 856.778 644.912 850.921C625.202 847.062 605.059 845.105 585.04 845.105C555.619 845.105 525.828 849.311 496.491 857.608C492.52 858.73 488.53 859.954 484.636 861.247C434.01 878.051 404.797 906.054 391.68 952H393.235C406.29 906.807 435.178 879.225 485.103 862.652C488.977 861.367 492.943 860.149 496.895 859.034C526.098 850.773 555.754 846.586 585.04 846.586C604.964 846.586 625.011 848.535 644.627 852.374C673.982 858.122 690.767 867.043 694.516 878.889C697.384 887.962 692.631 899.037 680.382 911.807C667.716 925.009 654.915 938.352 643.41 952H645.359C656.626 938.717 669.101 925.706 681.452 912.83C694.103 899.643 698.973 888.072 695.927 878.442Z" fill="#1695A3" fill-opacity="0.27"/>
<path d="M586.974 729.084C591.018 726.839 595.163 725.75 599.644 725.75C607.865 725.75 616.026 729.52 623.917 733.167L625.79 734.032C630.323 736.114 634.901 737.127 639.784 737.127C645.731 737.127 651.53 735.651 657.667 734.089C659.211 733.696 660.785 733.296 662.391 732.913C665.844 732.086 669.171 731.682 672.567 731.682C682.844 731.682 692.218 735.598 700.816 739.827C705.184 741.976 709.428 743.021 713.784 743.021C720.179 743.021 725.902 740.804 731.961 738.456C736.446 736.717 741.085 734.921 746.199 733.979C750.847 733.125 755.45 732.581 759.901 732.056C771.399 730.702 782.26 729.42 793.293 723.173C794.613 722.424 795.866 721.677 797.078 720.954C802.295 717.836 806.801 715.14 812.691 715.14C814.516 715.14 816.387 715.39 818.409 715.9C824.026 717.319 827.893 720.945 829.907 726.679C837.032 746.969 819.712 787.894 810.192 800.476C803.3 809.581 794.431 814.69 785.214 814.859L784.74 814.863C775.563 814.863 766.717 809.854 759.838 800.754C756.372 796.173 753.719 790.625 750.91 784.751C745.025 772.446 738.938 759.723 724.857 756.4C723.105 755.987 721.531 755.785 720.048 755.785C714.891 755.785 711.92 758.228 708.48 761.056C706.416 762.755 704.281 764.511 701.402 765.979C697.824 767.803 694.308 768.69 690.651 768.69C682.958 768.69 676.077 764.799 668.793 760.679C661.553 756.584 654.066 752.351 645.744 752.351L645.217 752.357C641.14 752.444 637.7 753.292 634.37 754.111C631.286 754.871 628.371 755.587 625.288 755.587C622.221 755.587 619.373 754.887 616.321 753.379C615.036 752.746 613.824 752.065 612.654 751.407C609.362 749.556 606.253 747.807 602.62 747.807C600.703 747.807 598.774 748.285 596.724 749.266C595.104 750.04 593.257 751.875 591.3 753.819C588.186 756.912 584.653 760.419 581.329 760.419C580.538 760.419 579.8 760.227 579.078 759.829C576.474 758.395 575.152 755.786 575.145 752.072C575.133 743.328 582.51 731.559 586.974 729.084ZM578.566 760.756C579.44 761.234 580.369 761.477 581.329 761.477C585.089 761.477 588.787 757.807 592.045 754.57C593.936 752.692 595.723 750.918 597.179 750.221C599.087 749.308 600.864 748.865 602.62 748.865C605.978 748.865 608.829 750.47 612.136 752.327C613.319 752.994 614.541 753.681 615.853 754.331C619.012 755.888 622.098 756.645 625.288 756.645C628.5 756.645 631.474 755.915 634.622 755.137C637.895 754.333 641.28 753.5 645.238 753.415L645.744 753.409C653.787 753.409 661.151 757.574 668.272 761.597C675.355 765.605 682.679 769.747 690.651 769.747C694.48 769.747 698.154 768.823 701.88 766.923C704.865 765.401 707.143 763.527 709.153 761.875C712.434 759.174 715.269 756.843 720.048 756.843C721.447 756.843 722.942 757.035 724.614 757.428C738.202 760.637 744.178 773.127 749.956 785.208C752.664 790.871 755.467 796.725 758.996 801.392C766.079 810.761 775.222 815.921 784.74 815.921L785.235 815.917C794.782 815.742 803.945 810.482 811.034 801.112C820.66 788.393 838.147 746.951 830.906 726.329C828.765 720.239 824.65 716.386 818.671 714.876C816.56 714.343 814.605 714.083 812.691 714.083C806.507 714.083 801.886 716.848 796.536 720.044C795.33 720.763 794.084 721.51 792.773 722.251C781.922 728.394 771.164 729.661 759.778 731.007C755.308 731.534 750.69 732.08 746.008 732.938C740.796 733.897 736.11 735.714 731.58 737.47C725.614 739.778 719.981 741.963 713.784 741.963C709.593 741.963 705.502 740.952 701.281 738.877C692.569 734.591 683.062 730.624 672.567 730.624C669.087 730.624 665.679 731.037 662.143 731.883C660.533 732.27 658.955 732.67 657.407 733.065C651.335 734.61 645.6 736.07 639.784 736.07C635.058 736.07 630.624 735.088 626.232 733.07L624.36 732.207C616.367 728.511 608.097 724.692 599.644 724.692C594.979 724.692 590.667 725.826 586.462 728.157C581.162 731.096 574.075 743.459 574.088 752.073C574.094 756.144 575.645 759.146 578.566 760.756Z" fill="#1695A3" fill-opacity="0.27"/>
<path d="M451.18 823.624C459.863 818.233 471.752 810.846 483.616 800.27C501.6 784.236 516.388 764.048 527.569 740.265C534.603 725.303 539.166 709.048 541.134 691.956C548.001 632.247 512.817 587.775 484.541 552.035C462.585 524.281 443.621 500.312 450.233 478.522C457.567 454.341 477.039 441.69 492.48 441.69C499.189 441.69 504.666 444.004 508.759 448.572C515.648 456.256 518.375 470.254 516.433 487.987C510.075 546.014 511.211 628.271 594.078 672.465C620.285 686.443 647.36 693.236 676.847 693.236C713.801 693.236 747.094 682.504 776.496 673.028C798.193 666.034 816.928 659.998 831.849 659.998C843.781 659.998 856.187 663.318 866.104 687.403C889.365 743.889 866.834 791.15 851.336 814.294C831.843 843.4 799.005 867.081 778.131 867.081C772.554 867.081 768.014 865.444 764.638 862.214C740.758 839.355 718.538 824.824 694.706 816.481C674.196 809.306 651.578 806.242 619.086 806.242C584.035 806.242 547.546 811.919 516.339 822.223C479.182 834.496 455.382 835.449 448.972 835.449C445.946 835.449 443.566 835.266 442.265 834.93C440.317 834.428 439.272 833.81 439.162 833.093C438.883 831.261 444.042 828.058 451.18 823.624ZM442.107 835.545C443.459 835.894 445.896 836.084 448.972 836.084C455.405 836.084 479.292 835.128 516.538 822.826C547.686 812.54 584.103 806.877 619.086 806.877C676.669 806.877 714.927 815.505 764.2 862.671C767.699 866.017 772.387 867.717 778.131 867.717C799.549 867.717 831.934 844.407 851.864 814.645C867.433 791.398 890.063 743.92 866.692 687.164C856.631 662.732 844.001 659.362 831.849 659.362C816.829 659.362 798.047 665.414 776.271 672.434C746.941 681.886 713.702 692.601 676.847 692.601C647.466 692.601 620.49 685.831 594.374 671.905C511.848 627.891 510.727 545.9 517.065 488.057C519.026 470.14 516.242 455.968 509.231 448.149C505.013 443.442 499.377 441.055 492.48 441.055C476.804 441.055 457.049 453.861 449.625 478.338C442.919 500.447 461.976 524.535 484.05 552.435C512.248 588.078 547.341 632.435 540.501 691.882C538.542 708.908 533.998 725.094 526.993 739.996C515.849 763.701 501.112 783.822 483.193 799.797C471.371 810.336 459.507 817.707 450.844 823.087C442.955 827.984 438.193 830.942 438.536 833.19C438.69 834.206 439.826 834.957 442.107 835.545Z" fill="#1695A3" fill-opacity="0.27"/>
<path d="M501.285 488.499C500.02 500.037 500.331 508.417 500.555 514.537C500.923 524.463 501.063 528.178 494.431 530.486C492.889 531.024 491.283 531.049 489.658 530.562C484.219 528.927 476.743 519.936 471.058 508.186C465.027 495.721 462.975 484.367 465.572 477.813C469.531 467.832 481.555 456.71 492.48 456.71C495.472 456.71 496.697 457.618 497.574 458.598C500.67 462.05 502.937 473.43 501.285 488.499ZM492.48 455.653C481.132 455.653 468.674 467.127 464.589 477.422C461.885 484.247 463.946 495.92 470.106 508.647C475.911 520.647 483.646 529.86 489.351 531.576C490.223 531.838 491.099 531.969 491.956 531.969C492.908 531.969 493.857 531.806 494.778 531.485C502.146 528.921 501.979 524.4 501.613 514.497C501.389 508.41 501.078 500.075 502.334 488.615C504.023 473.237 501.613 461.519 498.364 457.891C497.321 456.729 495.886 455.653 492.48 455.653Z" fill="#1695A3" fill-opacity="0.27"/>
<path d="M749.761 755.647C751.925 755.232 753.988 754.841 755.989 754.463C767.462 752.292 776.527 750.574 789.989 746.848C791.656 746.387 793.109 746.152 794.309 746.152C795.902 746.152 797.05 746.561 797.723 747.366C798.633 748.447 798.571 750.089 798.36 751.272C796.287 762.914 794.516 769.552 789.485 778.112C788.013 780.617 786.614 782.284 784.581 782.284C782.899 782.284 780.788 781.192 778.129 778.943C772.95 774.566 765.571 769.761 756.783 765.053C755.926 764.593 755.205 764.189 754.536 763.813C752.791 762.833 751.414 762.061 749.025 761.101C747.436 760.462 746.586 759.457 746.694 758.351C746.816 757.102 748.105 755.967 749.761 755.647ZM748.57 762.232C750.885 763.164 752.232 763.921 753.939 764.877C754.612 765.256 755.342 765.664 756.207 766.127C764.919 770.798 772.226 775.552 777.338 779.874C780.229 782.318 782.599 783.504 784.581 783.504C787.486 783.504 789.178 781.042 790.539 778.732C795.662 770.009 797.463 763.278 799.561 751.487C799.817 750.045 799.868 748.024 798.66 746.582C797.133 744.758 794.105 744.445 789.663 745.672C776.25 749.387 767.208 751.097 755.761 753.265C753.76 753.641 751.695 754.034 749.531 754.449C747.32 754.872 745.655 756.429 745.479 758.232C745.403 759.03 745.549 761.016 748.57 762.232Z" fill="#1695A3" fill-opacity="0.27"/>
<path d="M552.566 764.397C556.529 755.901 561.953 744.263 566.745 728.904C569.397 720.391 569.736 712.963 569.981 707.539C570.28 700.92 570.447 697.274 574.147 697.274C576.135 697.274 579.188 698.309 583.756 700.535C597.953 707.452 639.149 721.739 675.867 721.739C676.593 721.739 677.318 721.732 678.04 721.722C721.578 721.024 761.699 709.257 790.993 700.661C806.589 696.088 818.906 692.474 827.745 691.573C832.991 691.04 837.256 693.993 840.4 700.321C851.553 722.75 844.718 779.741 822.17 809.536C809.346 826.482 795.643 836.201 784.575 836.201C779.728 836.201 775.457 834.337 771.875 830.665C751.659 809.915 709.418 786.629 660.616 781.383C650.863 780.333 639.397 779.8 626.539 779.8C593.57 779.8 562.831 783.24 561.54 783.386C558.581 783.722 556.209 783.885 554.286 783.885C550.463 783.885 548.265 783.232 547.37 781.827C545.678 779.174 548.272 773.612 552.566 764.397ZM554.286 784.52C556.232 784.52 558.629 784.355 561.61 784.018C562.901 783.87 593.606 780.435 626.539 780.435C639.376 780.435 650.819 780.966 660.548 782.013C709.191 787.243 751.284 810.44 771.422 831.104C775.127 834.907 779.55 836.835 784.575 836.835C795.842 836.835 809.731 827.026 822.674 809.921C845.346 779.963 852.201 722.621 840.969 700.037C837.988 694.044 833.823 690.877 828.919 690.877C828.509 690.877 828.102 690.898 827.677 690.943C818.783 691.85 806.441 695.47 790.816 700.054C761.553 708.637 721.483 720.393 678.031 721.087C640.903 721.699 598.467 706.998 584.031 699.963C579.315 697.664 576.267 696.64 574.147 696.64C569.837 696.64 569.656 700.731 569.347 707.514C569.101 712.9 568.767 720.281 566.135 728.714C561.36 744.033 555.945 755.647 551.993 764.128C547.607 773.54 544.959 779.22 546.835 782.17C547.874 783.794 550.171 784.52 554.286 784.52Z" fill="#1695A3" fill-opacity="0.27"/>
<path d="M510.598 794.617C532.834 772.897 547.408 749.323 553.91 724.555C559.137 704.639 557.639 689.256 556.998 682.686C556.861 681.253 556.759 680.215 556.768 679.601C556.827 674.708 558.896 674.141 560.444 674.141C563.931 674.141 569.829 677.526 576.658 681.444C580.259 683.511 584.34 685.85 588.583 687.998C615.99 701.863 643.211 708.045 676.847 708.045C716.135 708.045 750.599 696.934 781.012 687.13C801.535 680.517 819.257 674.807 831.849 674.807C837.969 674.807 844.902 674.807 852.412 693.041C871.497 739.395 852.789 777.777 841.61 800.708C840.688 802.604 839.812 804.398 839.008 806.094C830.254 824.557 800.803 855.173 784.911 855.171C782.449 855.171 780.426 854.408 778.899 852.903C752.148 826.607 724.466 809.384 694.268 800.254C667.35 792.114 642.367 791.434 619.086 791.434C577.961 791.434 543.537 796.441 513.845 806.74C511.287 807.626 508.833 808.115 506.94 808.115C505.508 808.115 503.69 807.837 503.153 806.517C502.65 805.282 502.946 802.094 510.598 794.617ZM506.94 808.75C508.905 808.75 511.429 808.251 514.05 807.338C543.677 797.063 578.031 792.068 619.086 792.068C670.219 792.068 720.884 796.754 778.452 853.358C780.105 854.983 782.277 855.806 784.911 855.806C784.911 855.806 784.911 855.806 784.913 855.806C801.015 855.806 830.762 824.963 839.581 806.367C840.385 804.673 841.259 802.879 842.181 800.985C853.407 777.957 872.193 739.418 852.998 692.8C845.327 674.17 838.166 674.17 831.849 674.17C819.158 674.17 801.391 679.897 780.813 686.527C750.449 696.316 716.033 707.41 676.847 707.41C643.315 707.41 616.183 701.25 588.869 687.431C584.638 685.292 580.568 682.954 576.973 680.894C569.783 676.766 564.102 673.506 560.444 673.506C557.593 673.506 556.182 675.499 556.131 679.593C556.122 680.242 556.226 681.294 556.368 682.749C560.279 722.904 544.73 760.39 510.156 794.165C504.118 800.063 501.564 804.3 502.565 806.759C503.096 808.062 504.609 808.75 506.94 808.75Z" fill="#1695A3" fill-opacity="0.27"/>
<path d="M393.235 6.10352e-05H391.68C388.427 11.4008 386.146 23.891 384.796 37.6083C382.448 61.4633 380.379 92.7101 385.266 122.829C388.826 144.78 395.975 154.571 408.44 154.571C408.442 154.571 408.442 154.571 408.444 154.571C416.405 154.569 425.654 150.71 436.363 146.246C443.806 143.141 451.5 139.931 459.727 137.606C460.516 137.382 461.299 137.166 462.097 136.953C485.52 130.676 511.92 129.787 539.93 134.323C547.447 135.539 555.063 137.642 562.429 139.677C573.17 142.644 584.274 145.711 595.55 146.208C601.664 146.477 606.016 145.857 609.098 144.325C618.096 139.847 613.721 128.651 609.088 116.8C606.35 109.789 603.517 102.543 603.052 96.042C600.579 61.5225 619.866 30.0558 645.359 6.10352e-05H643.41C618.115 30.0071 599.092 61.4802 601.575 96.1457C602.055 102.873 604.928 110.225 607.71 117.337C612.278 129.028 616.221 139.123 608.438 142.999C605.626 144.397 601.372 144.979 595.616 144.727C584.507 144.239 573.483 141.194 562.825 138.249C555.42 136.206 547.764 134.09 540.165 132.859C511.948 128.292 485.338 129.189 461.714 135.523C460.908 135.738 460.121 135.954 459.325 136.18C451.011 138.531 443.275 141.757 435.794 144.878C425.229 149.282 416.107 153.088 408.444 153.088C396.847 153.09 390.151 143.684 386.728 122.592C381.868 92.6423 383.931 61.5205 386.269 37.7522C387.627 23.963 389.933 11.4283 393.235 6.10352e-05Z" fill="#1695A3" fill-opacity="0.27"/>
<path d="M417.964 663.201C417.213 664.164 416.25 664.634 415.023 664.634C411.647 664.634 406.601 661.238 400.214 656.941C388.936 649.353 373.489 638.961 354.817 638.961C352.504 638.961 350.169 639.124 347.878 639.446C342.498 640.199 339.278 640.523 337.112 640.523C335.072 640.523 333.913 640.228 333.663 639.651C332.95 637.999 337.875 632.777 345.333 624.874L347.592 622.475C355.388 614.194 359.875 606.045 363.152 600.094C366.11 594.727 368.062 591.179 370.4 591.179C371.312 591.179 372.344 591.712 373.554 592.813C392.529 610.02 428.349 649.867 417.964 663.201ZM374.265 592.028C372.852 590.746 371.587 590.122 370.4 590.122C367.436 590.122 365.363 593.887 362.225 599.584C358.976 605.485 354.525 613.566 346.822 621.753L344.563 624.148C335.734 633.507 331.704 637.781 332.692 640.072C333.143 641.115 334.505 641.58 337.112 641.58C339.329 641.58 342.593 641.255 348.026 640.495C350.268 640.18 352.553 640.019 354.817 640.019C373.167 640.019 388.458 650.309 399.622 657.819C406.159 662.215 411.323 665.691 415.023 665.691C416.578 665.691 417.848 665.071 418.797 663.851C430.511 648.811 389.541 605.882 374.265 592.028Z" fill="#1695A3" fill-opacity="0.27"/>
<path d="M403.758 644.861C403.826 645.756 403.656 646.084 403.548 646.201C403.512 646.241 403.402 646.359 403.022 646.359C401.295 646.359 397.477 644.068 393.053 641.415C384.491 636.283 372.767 629.251 361.462 629.052C359.782 629.02 359.039 628.36 359.052 626.903C359.096 621.958 367.963 611.152 374.561 611.152C375.318 611.152 376.017 611.309 376.636 611.618C385.08 615.838 403.049 635.648 403.758 644.861ZM374.561 609.671C367.157 609.671 357.622 621.343 357.571 626.89C357.55 629.16 358.959 630.486 361.434 630.531C372.344 630.727 383.874 637.639 392.292 642.687C397.28 645.678 400.887 647.842 403.022 647.842C403.703 647.842 404.244 647.629 404.636 647.208C405.125 646.681 405.321 645.875 405.235 644.751C404.452 634.584 385.137 614.211 377.299 610.291C376.471 609.879 375.551 609.671 374.561 609.671Z" fill="#1695A3" fill-opacity="0.27"/>
<path d="M309.023 369.416C295.615 362.022 288.864 355.316 288.382 348.91C287.749 340.492 297.697 332.87 309.216 324.042C312.99 321.15 316.891 318.158 320.712 314.932C344.666 294.686 354.903 291.124 367.556 291.124C371.199 291.124 375.012 291.439 379.425 291.801L381.496 291.97C429.477 295.841 464.349 314.884 466.15 318.184C466.514 318.85 466.438 319.187 466.349 319.379C465.892 320.382 463.237 320.959 458.841 321.914C448.936 324.067 430.503 328.072 402.859 343.501C375.46 358.794 357.804 387.559 352.46 409.284C351.159 414.577 349.826 417.15 348.387 417.15C346.321 417.15 343.539 412.159 340.02 405.842C333.824 394.727 324.465 377.927 309.023 369.416ZM348.385 417.784C348.387 417.784 348.387 417.784 348.387 417.784C350.211 417.784 351.658 415.21 353.075 409.436C358.388 387.845 375.934 359.255 403.168 344.055C430.729 328.673 449.103 324.681 458.974 322.533C463.876 321.469 466.336 320.934 466.926 319.641C467.155 319.144 467.083 318.569 466.706 317.879C464.811 314.405 430.657 295.3 381.549 291.337L379.476 291.168C375.05 290.804 371.227 290.489 367.556 290.489C354.747 290.489 344.408 294.075 320.301 314.446C316.495 317.663 312.596 320.651 308.829 323.538C297.164 332.477 287.091 340.198 287.749 348.957C288.255 355.686 294.919 362.363 308.719 369.971C323.997 378.395 333.306 395.099 339.464 406.153C343.369 413.155 345.946 417.782 348.385 417.784Z" fill="#1695A3" fill-opacity="0.27"/>
<path d="M286.797 375.283C271.711 364.72 264.59 356.038 264.391 347.958C264.14 337.761 274.796 329.492 288.287 319.02C294.384 314.287 300.69 309.394 306.827 303.686C331.617 280.635 344.042 273.607 360.004 273.607C362.871 273.607 366.046 273.835 369.712 274.303C402.461 278.477 436.579 288.469 474.018 304.847C482.899 308.734 493.398 313.458 503.915 319.028C505.099 319.654 506.912 320.445 509.013 321.361C515.982 324.395 526.511 328.982 527.816 333.678C528.184 334.998 528.108 336.01 527.594 336.687C526.913 337.581 525.55 337.77 524.526 337.77C522.318 337.77 519.635 336.923 518.131 336.088C516.172 335 514.742 332.976 513.356 331.019C511.323 328.144 509.223 325.174 505.362 324.846C501.38 324.497 500.043 326.53 498.736 328.478C497.858 329.786 497.026 331.021 495.431 331.651C494.467 332.032 493.582 332.216 492.723 332.216C490.456 332.216 488.736 330.886 486.914 329.477C485.158 328.121 483.345 326.716 480.845 326.274C480.349 326.185 479.831 326.14 479.311 326.14C474.929 326.14 470.313 329.25 465.849 332.259C462.35 334.615 459.046 336.841 455.877 337.677C439.553 341.978 425.62 347.389 413.276 354.216C373.245 376.353 361.278 417.797 355.76 447.047C354.944 451.369 353.839 453.472 352.384 453.472C349.538 453.472 344.981 446.177 338.673 436.084C327.845 418.751 311.48 392.56 286.797 375.283ZM352.384 454.106C354.22 454.106 355.492 451.9 356.384 447.163C361.878 418.042 373.787 376.781 413.583 354.772C425.88 347.969 439.767 342.578 456.038 338.29C459.31 337.427 462.816 335.066 466.203 332.783C470.588 329.83 475.124 326.775 479.311 326.775C479.795 326.775 480.273 326.815 480.732 326.896C483.081 327.312 484.832 328.669 486.527 329.978C488.435 331.457 490.238 332.851 492.723 332.851C493.665 332.851 494.625 332.652 495.662 332.242C497.443 331.539 498.368 330.162 499.263 328.831C500.53 326.944 501.714 325.174 505.309 325.478C508.874 325.781 510.799 328.504 512.838 331.385C514.264 333.401 515.736 335.485 517.822 336.642C519.35 337.49 522.1 338.404 524.526 338.404C526.225 338.404 527.427 337.956 528.1 337.072C528.741 336.227 528.851 335.03 528.428 333.507C527.042 328.52 516.346 323.862 509.269 320.778C507.179 319.868 505.374 319.083 504.213 318.467C493.675 312.887 483.165 308.158 474.272 304.268C436.778 287.864 402.603 277.855 369.793 273.673C366.101 273.201 362.898 272.972 360.004 272.972C343.852 272.972 331.326 280.04 306.396 303.221C300.278 308.909 293.984 313.794 287.897 318.518C274.265 329.098 263.497 337.457 263.757 347.975C263.96 356.272 271.168 365.115 286.433 375.803C311.01 393.007 327.333 419.132 338.135 436.42C344.791 447.07 349.185 454.106 352.384 454.106Z" fill="#1695A3" fill-opacity="0.27"/>
<path d="M366.476 687.454C357.842 683.525 347.577 681.613 335.093 681.613C311.964 681.613 285.828 688.429 264.827 693.906C249.919 697.795 237.042 701.152 229 701.154C228.998 701.154 228.996 701.154 228.994 701.154C224.672 701.154 222.002 700.19 220.839 698.201C219.201 695.411 220.407 690.473 224.524 683.109C234.321 665.592 251.501 649.858 268.117 634.639C281.76 622.145 294.646 610.344 303.493 597.812C321.554 572.226 332.212 543.055 334.317 513.45C336.722 479.601 328.025 447.412 308.467 417.78C301.509 407.238 288.585 398.38 276.086 389.812C252.796 373.848 230.796 358.771 247.078 334.433C255.379 322.026 262.938 317.38 271.688 312C277.203 308.609 283.453 304.767 290.641 298.446C296.876 292.962 301.888 287.601 306.734 282.416C319.222 269.056 329.087 258.504 349.708 258.504C352.953 258.504 356.475 258.768 360.178 259.293C410.158 266.376 465.424 278.215 530.844 316.548C616.964 367.015 675.201 414.139 699.415 493.017C710.676 529.693 706.5 570.218 689.028 593.862C678.812 607.685 664.566 614.992 647.825 614.992C638.585 614.992 628.502 612.794 617.863 608.457C598.061 600.386 585.945 581.924 580.819 552.02C576.339 525.87 577.786 494.401 579.066 466.639C579.425 458.817 579.766 451.432 579.979 444.275C580.908 413.314 572.395 387.671 555.367 370.125C539.86 354.146 517.56 345.347 492.571 345.347C459.376 345.347 425.751 360.245 400.318 386.218C384.788 402.08 375.198 418.444 371.001 436.251C367.252 452.151 367.918 468.862 373.038 487.339C382.556 521.666 405.56 555.824 429.919 591.99C438.423 604.617 447.218 617.677 455.28 630.603C473.918 660.491 470.69 681.547 464.701 693.949C458.157 707.497 444.719 717.3 430.467 718.921C428.855 719.105 427.247 719.198 425.684 719.198C410.811 719.198 400.214 710.956 388.993 702.233C382.088 696.862 374.946 691.309 366.476 687.454ZM430.539 719.553C445.003 717.907 458.635 707.964 465.272 694.224C471.331 681.681 474.61 660.4 455.82 630.268C447.751 617.332 438.952 604.268 430.446 591.634C406.117 555.515 383.138 521.398 373.651 487.17C362.919 448.455 371.538 416.519 400.773 386.662C426.086 360.81 459.545 345.982 492.571 345.982C517.387 345.982 539.526 354.713 554.912 370.567C571.82 387.989 580.267 413.468 579.345 444.258C579.131 451.409 578.791 458.792 578.431 466.609C577.153 494.405 575.702 525.91 580.193 552.124C585.357 582.264 597.6 600.883 617.622 609.045C628.339 613.414 638.502 615.627 647.825 615.627C664.773 615.627 679.199 608.231 689.54 594.238C707.124 570.443 711.339 529.691 700.025 492.831C675.749 413.756 617.416 366.545 531.165 316.003C465.651 277.612 410.31 265.758 360.266 258.667C356.537 258.138 352.985 257.869 349.708 257.869C328.81 257.869 318.865 268.51 306.271 281.982C301.435 287.157 296.434 292.507 290.222 297.967C283.074 304.255 276.848 308.082 271.356 311.46C262.543 316.878 254.929 321.558 246.551 334.082C229.921 358.94 252.17 374.191 275.727 390.337C288.175 398.869 301.048 407.691 307.938 418.129C351.267 483.775 333.784 553.8 302.975 597.443C294.168 609.923 281.305 621.7 267.69 634.174C251.036 649.425 233.817 665.194 223.972 682.8C219.734 690.378 218.528 695.521 220.291 698.525C221.579 700.721 224.427 701.789 228.994 701.789C228.996 701.789 228.998 701.789 229 701.789C237.124 701.787 250.035 698.421 264.986 694.52C285.953 689.053 312.047 682.248 335.093 682.248C347.311 682.248 357.783 684.194 366.213 688.034C374.616 691.856 381.727 697.386 388.602 702.732C399.912 711.527 410.593 719.833 425.684 719.833C427.27 719.833 428.903 719.739 430.539 719.553Z" fill="#1695A3" fill-opacity="0.27"/>
<path d="M366.846 671.369C361.216 668.312 353.442 666.827 343.077 666.827C329.9 666.827 314.742 669.26 301.367 671.403C290.383 673.166 280.897 674.687 274.119 674.687H274.117C269.938 674.687 267.199 674.096 265.739 672.884C265.724 672.869 265.674 672.829 265.663 672.683C265.403 669.351 282.621 649.74 300.851 628.978C324.01 602.605 350.258 572.71 351.404 564.255C352.043 559.541 350.074 555.955 348.17 552.486C346.126 548.769 344.197 545.255 345.248 540.45C346.06 536.735 348.263 534.652 350.596 532.445C353.643 529.564 356.791 526.587 356.877 519.79C356.911 517.122 354.956 512.599 352.693 507.361C350.592 502.502 348.212 496.995 347.18 492.254C345.969 486.69 346.833 483.121 349.82 481.346C350.444 480.976 351.07 480.79 351.681 480.79C358.993 480.79 364.538 506.65 367.516 520.545C368.517 525.214 369.241 528.586 369.755 529.889C379.831 555.308 400.382 581.558 421.091 606.136C437.575 625.699 455.94 655.854 453.438 676.457C452.598 683.377 449.435 688.878 444.038 692.804C439.744 695.929 434.51 697.511 428.478 697.511C412.03 697.511 392.476 686.149 376.763 677.018C373.216 674.955 369.867 673.009 366.846 671.369ZM444.41 693.318C449.955 689.284 453.205 683.635 454.068 676.533C456.594 655.727 438.142 625.386 421.575 605.726C400.902 581.19 380.387 554.991 370.347 529.653C369.85 528.402 369.092 524.878 368.136 520.412C364.908 505.355 359.505 480.153 351.681 480.153C350.956 480.153 350.22 480.371 349.496 480.802C346.244 482.734 345.284 486.525 346.56 492.389C347.605 497.189 349.997 502.728 352.109 507.613C354.345 512.783 356.274 517.249 356.243 519.781C356.16 526.31 353.112 529.196 350.16 531.984C347.861 534.159 345.481 536.41 344.628 540.313C343.526 545.35 345.603 549.133 347.613 552.793C349.466 556.171 351.385 559.664 350.776 564.168C349.655 572.435 323.473 602.254 300.373 628.561C281.259 650.33 264.749 669.133 265.03 672.732C265.052 673.007 265.153 673.223 265.335 673.371C266.911 674.682 269.784 675.321 274.117 675.321H274.119C280.948 675.321 290.457 673.796 301.469 672.029C314.818 669.889 329.95 667.462 343.077 667.462C353.334 667.462 361.009 668.922 366.541 671.926C369.556 673.563 372.903 675.507 376.444 677.564C392.222 686.735 411.861 698.146 428.478 698.146C434.645 698.146 440.006 696.521 444.41 693.318Z" fill="#1695A3" fill-opacity="0.27"/>
<path d="M418.95 680.792C418.948 680.792 418.948 680.792 418.946 680.792C405.859 680.792 389.063 671.369 377.709 662.552C369.467 656.15 359.41 653.04 346.959 653.04C337.858 653.04 328.998 654.665 321.181 656.099C315.211 657.193 310.056 658.141 306.004 658.141C302.541 658.141 300.282 657.453 298.892 655.97C298.281 655.319 298.006 654.621 298.052 653.836C298.236 650.785 303.225 646.609 310.132 640.825C326.849 626.826 354.829 603.399 359.475 560.068C360.031 554.891 360.886 552.581 362.249 552.581C364.557 552.581 368.786 558.403 375.792 568.052C383.226 578.287 394.462 593.756 410.583 611.91C419.857 622.354 438.404 649.488 436.543 666.7C436.043 671.297 434.093 674.862 430.746 677.297C427.558 679.616 423.589 680.792 418.95 680.792ZM437.171 666.768C439.06 649.346 420.393 622.001 411.057 611.489C394.957 593.358 383.732 577.904 376.304 567.678C368.938 557.533 364.88 551.944 362.249 551.944C360.444 551.944 359.46 554.28 358.847 560.002C354.224 603.075 326.369 626.401 309.726 640.338C302.436 646.442 297.618 650.474 297.42 653.798C297.362 654.752 297.701 655.63 298.429 656.404C299.948 658.022 302.353 658.778 306.004 658.778C310.111 658.778 315.296 657.823 321.296 656.723C329.085 655.293 337.915 653.673 346.959 653.673C359.264 653.673 369.194 656.742 377.32 663.051C388.759 671.934 405.7 681.427 418.946 681.427C418.948 681.427 418.948 681.427 418.95 681.427C423.725 681.427 427.822 680.21 431.121 677.811C434.618 675.264 436.655 671.551 437.171 666.768Z" fill="#1695A3" fill-opacity="0.27"/>
<path d="M617.778 431.112C617.884 430.994 617.998 430.945 618.153 430.945C618.445 430.945 619.012 431.125 620.05 431.982C626.037 436.926 674.816 496.104 660.493 552.236C658.38 560.516 654.115 565.076 648.483 565.076H648.481C644.409 565.073 639.854 562.602 635.655 558.115C626.183 547.997 616.832 525.515 618.988 492.766C620.264 473.389 618.832 456.949 617.88 446.069C617.184 438.081 616.68 432.31 617.778 431.112ZM617.935 492.696C615.754 525.783 625.261 548.557 634.882 558.837C639.285 563.542 644.115 566.131 648.481 566.133H648.483C654.644 566.133 659.275 561.291 661.517 552.496C675.971 495.857 626.765 436.154 620.723 431.165C618.98 429.729 617.778 429.542 616.995 430.397C615.584 431.937 616.026 436.989 616.826 446.16C617.774 457.009 619.204 473.4 617.935 492.696Z" fill="#1695A3" fill-opacity="0.27"/>
<path d="M599.851 397.784C600.052 397.557 600.312 397.452 600.676 397.452C601.998 397.452 604.454 398.909 607.738 401.097C629.206 415.41 686.254 480.671 670.174 553.334C667.191 566.814 657.182 575.522 644.673 575.522C635.862 575.522 627.055 571.251 619.872 563.499C606.032 548.559 599.751 522.754 602.191 490.834C605.317 449.955 602.038 424.213 600.276 410.386C599.368 403.257 598.821 398.954 599.851 397.784ZM601.56 490.783C599.104 522.883 605.442 548.86 619.407 563.933C626.71 571.816 635.684 576.157 644.673 576.157C644.673 576.157 644.673 576.157 644.675 576.157C657.491 576.157 667.745 567.252 670.794 553.469C679.705 513.198 665.915 476.967 652.782 453.662C637.345 426.278 617.596 406.906 608.087 400.568C604.615 398.251 602.163 396.817 600.676 396.817C600.132 396.817 599.696 397.001 599.375 397.365C598.154 398.75 598.653 402.666 599.646 410.466C601.406 424.273 604.679 449.97 601.56 490.783Z" fill="#1695A3" fill-opacity="0.27"/>
<path d="M582.759 369.96C582.933 369.75 583.17 369.653 583.51 369.653C585.218 369.653 588.924 372.061 595.063 376.046C649.052 411.088 700.784 476.019 684.071 553.15C678.674 578.069 661.181 594.81 640.548 594.807C629.784 594.807 619.699 590.132 611.379 581.291C595.178 564.068 587.593 532.678 590.02 492.901C593.642 433.518 587.101 398.92 583.955 382.294C582.63 375.297 581.833 371.075 582.759 369.96ZM589.387 492.865C586.948 532.815 594.596 564.373 610.915 581.725C619.361 590.699 629.604 595.442 640.548 595.442H640.55C661.49 595.442 679.229 578.501 684.691 553.285C692.753 516.083 685.823 479.467 664.094 444.449C642.082 408.973 611.611 386.032 595.41 375.513C587.16 370.157 583.625 367.927 582.269 369.554C581.154 370.901 581.881 374.747 583.331 382.412C586.472 399.013 593.005 433.558 589.387 492.865Z" fill="#1695A3" fill-opacity="0.27"/>
<path d="M328.781 343.928C333.209 331.63 372.291 314.782 391.029 314.782C391.685 314.782 392.319 314.801 392.926 314.841C396.597 315.091 398.211 315.355 398.88 315.567C398.086 316.117 396 317.029 393.972 317.915C384.809 321.924 367.751 329.386 359.486 344.996C354.286 354.821 350.484 358.648 345.925 358.648C342.214 358.648 337.67 356.198 330.733 350.459C328.501 348.612 327.863 346.475 328.781 343.928ZM345.927 360.129C351.923 360.129 356.207 354.358 360.795 345.688C368.818 330.534 385.566 323.208 394.564 319.273C399.121 317.28 400.826 316.534 400.608 315.285C400.426 314.236 399.254 313.79 393.028 313.365C374.288 312.093 332.235 329.963 327.387 343.424C326.265 346.543 327.095 349.369 329.79 351.599C337.014 357.578 341.84 360.129 345.925 360.129C345.925 360.129 345.925 360.129 345.927 360.129Z" fill="#1695A3" fill-opacity="0.27"/>
<path d="M336.86 373.719C333.194 364.976 325.787 361.284 319.252 358.03C313.498 355.164 308.528 352.689 307.809 347.408C307.534 345.4 308.85 342.559 311.615 339.193C323.026 325.292 354.721 306.51 368.138 305.696C371.54 305.49 374.957 305.385 378.301 305.385C407.598 305.385 427.126 313.492 427.526 316.912C427.592 317.456 426.699 317.75 426.162 317.877C404.623 322.98 378.024 332.246 363.412 358.862C351.269 380.978 342.151 386.332 336.86 373.719ZM364.339 359.369C378.75 333.122 405.08 323.957 426.407 318.905C428.455 318.421 428.645 317.371 428.578 316.79C428.078 312.512 408.11 304.327 378.301 304.327C374.938 304.327 371.496 304.433 368.075 304.642C354.455 305.467 322.337 324.465 310.798 338.523C307.801 342.174 306.442 345.212 306.76 347.552C307.555 353.387 312.757 355.978 318.78 358.978C325.15 362.149 332.371 365.746 335.887 374.13C337.932 379.01 340.619 381.485 343.873 381.485C349.397 381.485 356.283 374.045 364.339 359.369Z" fill="#1695A3" fill-opacity="0.27"/>
<path d="M634.975 489.322C635.521 488.385 636.107 487.822 636.541 487.822C636.924 487.822 637.3 488.294 637.489 488.577C647.948 504.15 648.174 530.524 644.301 537.787C643.778 538.769 643.207 539.31 642.697 539.31C642.037 539.308 641.176 538.46 640.334 536.983C629.585 518.144 631.131 495.941 634.975 489.322ZM642.695 540.789C642.697 540.789 642.697 540.789 642.697 540.789C643.812 540.789 644.792 540.015 645.608 538.483C649.727 530.761 649.651 504.025 638.72 487.752C637.298 485.641 635.24 485.914 633.695 488.577C629.589 495.649 627.865 518.119 639.048 537.719C640.209 539.757 641.438 540.789 642.695 540.789Z" fill="#1695A3" fill-opacity="0.27"/>
<path d="M471.809 60.5282C474.646 60.5282 477.931 60.103 481.854 59.2314C485.755 58.3661 489.438 57.5474 492.781 57.0968C498.44 56.3352 503.921 56.0179 508.797 55.7365C514.353 55.417 519.346 53.9234 524.063 51.1669C543.761 39.654 551.993 16.1016 554.616 6.50964C555.249 4.19945 555.877 2.0585 556.495 6.86646e-05H555.833C555.23 2.00985 554.62 4.09578 554.005 6.3425C551.403 15.8583 543.241 39.2246 523.742 50.619C519.115 53.3226 514.213 54.7888 508.723 55.104C503.875 55.3854 498.38 55.7026 492.694 56.4685C489.328 56.9233 485.63 57.7441 481.716 58.6115C477.841 59.4725 474.599 59.8915 471.809 59.8915C467.132 59.8915 463.874 58.6919 461.849 56.221C458.853 52.5632 458.424 46.0219 460.504 35.6282L460.844 33.9315C463.668 19.6261 468.513 8.60826 476.159 6.86646e-05H475.321C467.819 8.62307 463.025 19.6028 460.222 33.8066L459.882 35.5033C457.762 46.098 458.231 52.8086 461.358 56.6208C463.512 59.2483 466.931 60.5282 471.809 60.5282Z" fill="#1695A3" fill-opacity="0.27"/>
<path d="M475.888 38.2006C477.515 41.357 481.022 42.9606 486.315 42.9606C487.693 42.9606 489.212 42.8484 490.828 42.6305C497.031 41.7949 502.817 41.4606 507.96 41.1623C509.489 41.0756 510.902 40.8451 512.286 40.4537C513.82 40.02 515.263 39.4023 516.693 38.5645C528.136 31.8793 541.66 12.1877 542.109 2.28882e-05H541.049C540.579 11.7012 527.129 31.2426 516.16 37.6506C514.806 38.4418 513.443 39.0257 511.998 39.4361C510.689 39.8042 509.352 40.0242 507.862 40.1088C502.738 40.405 496.931 40.7414 490.686 41.5834C483.375 42.5671 478.649 41.2533 476.829 37.7161C474.362 32.9244 477.295 23.69 484.483 13.6115C488.391 8.13218 493.675 3.68955 500.64 2.28882e-05H498.427C492.154 3.57954 487.303 7.83819 483.624 12.9959C476.089 23.5568 473.199 32.9773 475.888 38.2006Z" fill="#1695A3" fill-opacity="0.27"/>
<path d="M348.694 729.752C346.585 729.126 344.063 728.822 340.987 728.822C327.996 728.822 307.9 734.333 284.631 740.717C255.293 748.764 222.04 757.885 195.109 757.887C176.808 757.887 163.775 753.732 155.267 745.183C147.477 737.358 143.564 725.585 143.636 710.192C143.764 683.212 180.157 653.565 212.266 627.404C231.406 611.812 249.485 597.084 258.362 584.316C276.607 558.073 292.736 529.659 287.248 499.703C284.056 482.279 274.136 471.951 263.634 461.02C257.844 454.99 251.855 448.758 246.79 441.066C242.072 433.905 239.565 427.497 237.355 421.844C232.997 410.703 229.555 401.907 212.685 394.124C207.685 391.818 203.76 390.142 200.608 388.797C188.383 383.573 188.383 383.573 183.567 370.969C182.55 368.306 181.323 365.094 179.732 361.172C173.586 346.01 168.783 343.044 162.568 343.044C161.248 343.044 159.896 343.175 158.465 343.312C156.872 343.465 155.224 343.625 153.431 343.625C149.503 343.625 144.033 342.961 136.545 337.78C130.822 333.822 128.418 330.223 129.397 327.088C133.25 314.744 187.087 310.123 197.793 310.123C198.052 310.123 198.226 310.126 198.312 310.138L198.479 309.455L198.805 310.104C205.839 306.55 209.653 301.993 213.341 297.587C218.247 291.725 222.882 286.186 234.647 282.437C238.831 281.102 242.373 280.078 245.218 279.255C260.588 274.811 260.795 274.586 267.391 255.185L268.225 252.733C269.456 249.121 268.462 246.57 267.584 244.319C266.448 241.404 265.466 238.886 269.397 234.275C271.496 231.818 279.025 228.909 285.67 226.341C290.148 224.611 294.382 222.975 296.639 221.602C300.155 219.464 302.546 216.559 304.856 213.749C307.856 210.104 310.686 206.662 315.797 204.832C319.246 203.597 323.494 202.971 328.421 202.971C340.958 202.971 355.697 206.887 367.54 210.032C370.252 210.754 372.79 211.427 375.09 211.998C413.549 221.522 450.144 238.834 485.535 255.574L489.18 257.3C573.28 297.056 636.837 341.506 683.485 393.184C714.806 427.882 735.02 461.678 745.285 496.502C757.337 537.404 748.682 587.287 723.746 620.632C710.808 637.937 687.835 658.564 651.879 658.566C642.579 658.568 632.875 657.125 623.042 654.282C537.292 629.481 540.12 544.918 549.501 467.603C552.304 444.495 547.969 425.713 536.958 413.286C527.647 402.779 513.572 396.99 497.325 396.99C467.449 396.99 429.329 417.532 417.524 455.602C403.991 499.252 432.872 536.456 460.8 572.435C490.574 610.79 521.36 650.449 504.166 699.346C494.247 727.55 457.315 764.458 426.335 767.987C424.609 768.181 422.887 768.28 421.211 768.28C404.773 768.28 393.115 758.956 380.772 749.08C371.202 741.424 361.303 733.505 348.694 729.752ZM426.502 769.457C457.992 765.871 495.503 728.439 505.565 699.838C523.027 650.178 491.987 610.196 461.972 571.528C432.999 534.207 405.634 498.956 418.939 456.04C430.532 418.647 467.978 398.469 497.325 398.469C513.143 398.469 526.822 404.082 535.849 414.27C546.569 426.369 550.783 444.749 548.03 467.426C538.574 545.344 535.762 630.579 622.629 655.702C632.598 658.587 642.439 660.047 651.879 660.047C688.448 660.045 711.791 639.094 724.935 621.518C750.134 587.82 758.884 537.41 746.706 496.085C736.378 461.041 716.058 427.059 684.585 392.192C637.802 340.365 574.092 295.803 489.812 255.961L486.167 254.235C450.711 237.465 414.048 220.119 375.445 210.559C373.154 209.992 370.622 209.319 367.92 208.602C355.995 205.433 341.152 201.49 328.421 201.49C323.322 201.49 318.907 202.146 315.298 203.438C309.802 205.408 306.707 209.169 303.711 212.808C301.479 215.522 299.171 218.327 295.869 220.337C293.724 221.643 289.552 223.255 285.135 224.96C277.995 227.718 270.611 230.57 268.271 233.314C263.765 238.599 265.005 241.781 266.205 244.857C267.066 247.067 267.88 249.155 266.822 252.257L265.989 254.707C259.579 273.562 259.579 273.562 244.806 277.834C241.952 278.659 238.4 279.687 234.196 281.026C222.021 284.904 217.031 290.87 212.205 296.637C208.493 301.073 204.984 305.264 198.379 308.66C198.201 308.643 198.003 308.643 197.793 308.643C190.169 308.643 132.416 312.444 127.983 326.646C126.789 330.473 129.386 334.628 135.702 338.999C143.616 344.474 149.61 345.106 153.431 345.106C155.295 345.106 156.978 344.943 158.608 344.787C160.002 344.651 161.319 344.525 162.568 344.525C167.215 344.525 171.918 345.84 178.36 361.728C179.946 365.638 181.169 368.843 182.183 371.498C187.176 384.566 187.342 384.741 200.027 390.157C203.171 391.5 207.084 393.172 212.065 395.469C228.393 403.001 231.738 411.554 235.973 422.383C238.214 428.104 240.75 434.59 245.552 441.88C250.693 449.685 256.729 455.968 262.566 462.044C272.911 472.812 282.681 482.983 285.792 499.971C291.181 529.392 275.208 557.491 257.146 583.47C248.387 596.068 230.388 610.731 211.331 626.257C178.968 652.621 142.287 682.506 142.155 710.183C142.081 725.987 146.139 738.113 154.217 746.228C163.018 755.072 176.394 759.368 195.109 759.368C222.241 759.366 255.595 750.216 285.022 742.145C308.188 735.79 328.195 730.302 340.987 730.302C343.877 730.302 346.329 730.597 348.271 731.174C360.605 734.842 370.387 742.668 379.848 750.237C392.4 760.278 404.255 769.761 421.211 769.761C422.942 769.761 424.723 769.661 426.502 769.457Z" fill="#1695A3" fill-opacity="0.27"/>
<path d="M462.922 77.0084C470.121 77.0084 478.061 75.244 485.065 73.6891C488.655 72.8915 492.046 72.1405 494.759 71.7724C499.872 71.0827 504.843 70.7971 509.648 70.52C519.654 69.9445 529.105 69.4008 536.611 65.1338C542.657 61.6939 547.066 56.0305 550.087 47.8137C555.519 33.0429 562.219 16.4506 571.731 6.86646e-05H570.999C561.562 16.385 554.9 32.8927 549.49 47.5958C546.522 55.6646 542.206 61.22 536.298 64.5816C528.923 68.7768 519.542 69.3142 509.612 69.8875C504.793 70.1646 499.813 70.4502 494.672 71.1441C491.934 71.5143 488.533 72.2696 484.93 73.0693C477.955 74.6179 470.051 76.3716 462.922 76.3716C455.93 76.3716 450.973 74.6707 447.772 71.1716C439.993 62.6459 443.892 43.1786 445.987 32.7193L446.315 31.0628C448.695 19.0105 452.511 8.74789 457.901 6.86646e-05H457.155C451.838 8.73731 448.058 18.9576 445.693 30.9401L445.363 32.5944C443.247 43.1637 439.31 62.8363 447.305 71.5989C450.632 75.2377 455.741 77.0084 462.922 77.0084Z" fill="#1695A3" fill-opacity="0.27"/>
<path d="M626.695 2.28882e-05H625.235C622.606 2.79679 620.357 5.36081 618.65 7.68369C595.322 39.4022 584.974 68.6794 587.016 97.1886C587.811 108.283 586.449 115.624 582.855 119.63C580.566 122.184 577.297 123.426 572.867 123.426C566.713 123.426 559.126 121.08 551.096 118.596C543.806 116.341 536.266 114.007 529.151 113.231C523.805 112.647 518.444 112.363 512.764 112.363C494.837 112.363 477.802 115.217 459.769 118.238C456.74 118.746 453.698 119.256 450.639 119.753L450.408 119.791C444.083 120.822 436.911 121.987 429.927 121.987C416.726 121.987 408.279 117.61 404.096 108.6C395.366 89.7906 397.807 67.1414 399.961 47.1621C400.252 44.469 400.54 41.8034 400.798 39.1802C402.235 24.5807 404.756 11.5954 408.48 2.28882e-05H407.357C403.675 11.5827 401.177 24.5341 399.745 39.0764C399.487 41.6955 399.199 44.3569 398.909 47.0479C396.741 67.1647 394.282 89.9682 403.138 109.046C407.509 118.467 416.274 123.045 429.927 123.045C436.995 123.045 444.212 121.871 450.577 120.836L450.808 120.798C453.869 120.299 456.913 119.789 459.945 119.281C477.934 116.269 494.924 113.421 512.764 113.421C518.404 113.421 523.729 113.703 529.035 114.282C536.05 115.048 543.541 117.365 550.785 119.605C558.894 122.114 566.552 124.484 572.867 124.484C577.614 124.484 581.139 123.127 583.644 120.337C587.439 116.104 588.886 108.509 588.069 97.1125C586.049 68.8656 596.329 39.8168 619.5 8.30988C621.324 5.83045 623.801 3.04854 626.695 2.28882e-05Z" fill="#1695A3" fill-opacity="0.27"/>
<path d="M439.885 106.332C444.411 106.332 449.661 105.776 457.447 104.47C477.187 101.162 496.781 99.6194 519.115 99.6194C524.721 99.6194 530.484 99.7126 536.729 99.9072C538.902 99.9728 540.795 100.007 542.511 100.007C552.85 100.007 558.883 98.7521 563.332 95.6782C568.653 92.0014 571.811 85.5553 573.895 74.1271C578.674 47.8942 589.197 24.3205 606.978 7.62939e-05H606.196C588.524 24.2676 578.044 47.8179 573.271 74.0149C571.221 85.2612 568.141 91.5846 562.973 95.1557C558.64 98.1513 552.71 99.3719 542.511 99.3719C540.802 99.3719 538.915 99.3402 536.75 99.2725C530.499 99.08 524.73 98.9848 519.115 98.9848C496.747 98.9848 477.117 100.529 457.341 103.844C449.594 105.143 444.372 105.697 439.885 105.697C427.129 105.697 417.983 101.426 414.799 80.571C411.755 60.634 414.456 39.5271 417.257 25.3296C419.064 16.1693 421.565 7.76205 424.711 7.62939e-05H424.046C420.922 7.71127 418.438 16.0678 416.635 25.2091C413.824 39.4531 411.114 60.6382 414.171 80.6662C416.955 98.898 424.404 106.332 439.885 106.332Z" fill="#1695A3" fill-opacity="0.27"/>
<path d="M448.61 90.4357H448.612C450.594 90.4357 452.744 90.2453 454.997 89.8667C471.807 87.0487 489.802 85.388 508.484 84.9311C512.84 84.8232 517.027 84.9332 521.023 85.0368C523.708 85.1066 526.244 85.1723 528.715 85.1723C536.323 85.1723 544.199 84.5841 550.281 80.3192C555.327 76.7799 558.917 70.9134 561.259 62.3792C567.616 39.216 576.751 18.7121 589.007 -3.05176e-05H588.254C576.076 18.6761 566.984 39.1251 560.648 62.21C558.346 70.5961 554.836 76.3504 549.918 79.7988C543.979 83.9643 536.217 84.5397 528.715 84.5397C526.251 84.5397 523.721 84.472 521.04 84.4022C517.035 84.3006 512.842 84.1885 508.47 84.2964C489.757 84.7533 471.731 86.4162 454.891 89.2405C445.225 90.8631 438.03 88.9231 433.545 83.4671C423.331 71.0446 428.832 43.1721 431.785 28.1982C433.85 17.7347 436.93 8.38181 441.013 -3.05176e-05H440.296C436.261 8.35641 433.215 17.6733 431.163 28.0755C428.188 43.1531 422.652 71.2138 433.054 83.8712C436.636 88.2271 441.87 90.4357 448.61 90.4357Z" fill="#1695A3" fill-opacity="0.27"/>
</svg>
