<svg width="48" height="71" viewBox="0 0 48 71" fill="none" xmlns="http://www.w3.org/2000/svg">
<path d="M31.6173 57.9863H16.3833C15.6227 57.9863 14.9245 58.3197 14.4699 58.8998C14.0191 59.4751 13.8846 60.1981 14.1014 60.8811C15.2427 64.4751 19.3131 66.9863 24 66.9863C28.6869 66.9863 32.7573 64.4757 33.8986 60.8805C34.1154 60.1975 33.9809 59.4751 33.5301 58.8998C33.0755 58.3197 32.378 57.9863 31.6173 57.9863Z" fill="#32E5F9"/>
<path d="M12.8956 57.6662L12.8956 57.6663C12.047 58.7493 11.7735 60.1579 12.1951 61.4861L12.1952 61.4864C13.6748 66.146 18.7164 68.9863 24 68.9863C29.2835 68.9863 34.3253 66.1466 35.8049 61.4856L35.8049 61.4855C36.2265 60.1571 35.9528 58.7491 35.1044 57.6663L35.1044 57.6662C34.2571 56.585 32.9703 55.9863 31.6173 55.9863H16.3833C15.0309 55.9863 13.7432 56.5846 12.8956 57.6662Z" stroke="url(#paint0_linear_163_149)" stroke-opacity="0.19" stroke-width="4"/>
<path d="M31.8712 49.9863H16.1288C14.4034 49.9863 13 51.5562 13 53.4863C13 55.4164 14.4034 56.9863 16.1288 56.9863H31.8712C33.5966 56.9863 35 55.4164 35 53.4863C35 51.5562 33.5966 49.9863 31.8712 49.9863Z" fill="#32E5F9"/>
<path d="M31.8712 47.9863H16.1288C13.0939 47.9863 11 50.6685 11 53.4863C11 56.3042 13.0939 58.9863 16.1288 58.9863H31.8712C34.9061 58.9863 37 56.3042 37 53.4863C37 50.6684 34.9061 47.9863 31.8712 47.9863Z" stroke="url(#paint1_linear_163_149)" stroke-opacity="0.19" stroke-width="4"/>
<path d="M9.45196 37.9787C12.168 41.6287 11.937 44.6827 11.935 44.7073C11.9317 44.739 11.9304 44.7701 11.9304 44.8019C11.9304 47.1095 13.8481 48.9863 16.206 48.9863H31.7947C34.1526 48.9863 36.0703 47.1095 36.0703 44.8019C36.0703 44.774 36.0683 44.741 36.0663 44.7131C36.0637 44.6827 35.8327 41.6287 38.5487 37.9787C41.2442 34.3553 44 29.9279 44 24.5598C44 13.7673 35.0277 4.98633 24 4.98633C12.9723 4.98633 4 13.7673 4 24.5598C4 29.9279 6.75643 34.3553 9.45196 37.9787Z" fill="#32E5F9"/>
<path d="M7.84729 39.1725L7.84745 39.1727C9.98826 42.0496 9.94494 44.4053 9.94 44.562C9.93281 44.6498 9.93036 44.7302 9.93036 44.8019C9.93036 48.2545 12.7844 50.9863 16.206 50.9863H31.7947C35.2163 50.9863 38.0703 48.2545 38.0703 44.8019C38.0703 44.6977 38.0636 44.604 38.0613 44.5708L38.0606 44.5611C38.0608 44.5636 38.0609 44.5648 38.0609 44.5648C38.0629 44.5647 37.9387 42.1486 40.1532 39.1727L40.1534 39.1725C42.8882 35.4962 46 30.6174 46 24.5598C46 12.6223 36.0914 2.98633 24 2.98633C11.9086 2.98633 2 12.6223 2 24.5598C2 30.6175 5.11261 35.4964 7.84729 39.1725Z" stroke="url(#paint2_linear_163_149)" stroke-opacity="0.19" stroke-width="4"/>
<defs>
<linearGradient id="paint0_linear_163_149" x1="31.9797" y1="59.4223" x2="28.5293" y2="68.7028" gradientUnits="userSpaceOnUse">
<stop stop-color="#EB7F00"/>
<stop offset="1" stop-color="#32E5F9"/>
</linearGradient>
<linearGradient id="paint1_linear_163_149" x1="32.7777" y1="51.1032" x2="30.7574" y2="58.7881" gradientUnits="userSpaceOnUse">
<stop stop-color="#EB7F00"/>
<stop offset="1" stop-color="#32E5F9"/>
</linearGradient>
<linearGradient id="paint2_linear_163_149" x1="39.9594" y1="12.0067" x2="14.2554" y2="40.2889" gradientUnits="userSpaceOnUse">
<stop stop-color="#EB7F00"/>
<stop offset="1" stop-color="#32E5F9"/>
</linearGradient>
</defs>
</svg>
