<svg width="58" height="70" viewBox="0 0 58 70" fill="none" xmlns="http://www.w3.org/2000/svg">
<path fill-rule="evenodd" clip-rule="evenodd" d="M4 12.8124C4 12.8124 14.5263 4.98633 29 4.98633C43.4737 4.98633 54 12.8124 54 12.8124V34.8572C54 42.3207 50.4224 49.3381 44.3618 53.765C37.3211 58.9081 29 64.9863 29 64.9863C29 64.9863 20.6789 58.9081 13.6382 53.765C7.57763 49.3381 4 42.3207 4 34.8572C4 25.0785 4 12.8124 4 12.8124ZM44.7895 20.6385L25.0526 34.9863L13.2105 28.4646L26.3684 44.1168L44.7895 20.6385Z" fill="#32E5F9"/>
<path d="M4 12.8124L2.80671 11.2074L2 11.8072V12.8124H4ZM4 12.8124C2.80671 11.2074 2.80727 11.207 2.80786 11.2065L2.80926 11.2055L2.81278 11.2029L2.82274 11.1956L2.85422 11.1726C2.88032 11.1536 2.91662 11.1274 2.96293 11.0944C3.05555 11.0286 3.18823 10.9358 3.35936 10.82C3.70155 10.5883 4.198 10.2641 4.83578 9.87829C6.11046 9.10728 7.95509 8.08728 10.266 7.06913C14.8789 5.0368 21.408 2.98633 29 2.98633C36.592 2.98633 43.1211 5.0368 47.734 7.06913C50.0449 8.08728 51.8895 9.10728 53.1642 9.87829C53.802 10.2641 54.2984 10.5883 54.6406 10.82C54.8118 10.9358 54.9445 11.0286 55.0371 11.0944C55.0834 11.1274 55.1197 11.1536 55.1458 11.1726L55.1773 11.1956L55.1872 11.2029L55.1907 11.2055L55.1921 11.2065C55.1927 11.207 55.1933 11.2074 54 12.8124L55.1933 11.2074L56 11.8072V12.8124V34.8572C56 42.9635 52.114 50.5791 45.5415 55.38L35.2203 62.9193L31.5899 65.5713L30.551 66.3301L30.2749 66.5318L30.2038 66.5838L30.1858 66.5969L30.1812 66.6002L30.1801 66.6011L30.1798 66.6013C30.1797 66.6013 30.1797 66.6013 29 64.9863M4 12.8124C2 12.8124 2 12.8125 2 12.8126V12.813V12.8137V12.8147V12.8159V12.8174V12.8193V12.8213V12.8237V12.8263V12.8293V12.8324V12.8359V12.8396V12.8436V12.8479V12.8524V12.8573V12.8623V12.8677V12.8733V12.8792V12.8853V12.8918V12.8984V12.9054V12.9126V12.9201V12.9278V12.9358V12.944V12.9526V12.9613V12.9704V12.9797V12.9892V12.999V13.0091V13.0194V13.03V13.0408V13.0519V13.0632V13.0748V13.0867V13.0987V13.1111V13.1237V13.1365V13.1496V13.1629V13.1765V13.1904V13.2044V13.2188V13.2333V13.2481V13.2632V13.2785V13.294V13.3098V13.3258V13.3421V13.3586V13.3753V13.3923V13.4095V13.4269V13.4446V13.4625V13.4807V13.4991V13.5177V13.5366V13.5556V13.575V13.5945V13.6143V13.6343V13.6545V13.675V13.6957V13.7166V13.7377V13.7591V13.7807V13.8025V13.8246V13.8468V13.8693V13.892V13.9149V13.9381V13.9615V13.985V14.0089V14.0329V14.0571V14.0816V14.1062V14.1311V14.1562V14.1815V14.2071V14.2328V14.2587V14.2849V14.3113V14.3378V14.3646V14.3916V14.4188V14.4462V14.4739V14.5017V14.5297V14.5579V14.5864V14.615V14.6439V14.6729V14.7021V14.7316V14.7612V14.7911V14.8211V14.8513V14.8818V14.9124V14.9432V14.9743V15.0055V15.0369V15.0685V15.1003V15.1323V15.1645V15.1968V15.2294V15.2621V15.2951V15.3282V15.3615V15.395V15.4287V15.4625V15.4966V15.5308V15.5652V15.5998V15.6346V15.6696V15.7047V15.7401V15.7756V15.8113V15.8471V15.8832V15.9194V15.9558V15.9923V16.0291V16.066V16.1031V16.1403V16.1778V16.2154V16.2531V16.2911V16.3292V16.3675V16.4059V16.4445V16.4833V16.5223V16.5614V16.6007V16.6401V16.6797V16.7195V16.7594V16.7995V16.8398V16.8802V16.9207V16.9615V17.0024V17.0434V17.0846V17.126V17.1675V17.2092V17.251V17.293V17.3351V17.3774V17.4198V17.4624V17.5051V17.548V17.591V17.6342V17.6776V17.721V17.7647V17.8084V17.8523V17.8964V17.9406V17.9849V18.0294V18.074V18.1188V18.1637V18.2088V18.254V18.2993V18.3447V18.3903V18.4361V18.4819V18.528V18.5741V18.6204V18.6668V18.7133V18.76V18.8068V18.8537V18.9008V18.948V18.9953V19.0428V19.0903V19.138V19.1859V19.2338V19.2819V19.3301V19.3784V19.4269V19.4754V19.5241V19.5729V19.6219V19.6709V19.7201V19.7694V19.8188V19.8683V19.9179V19.9677V20.0175V20.0675V20.1176V20.1678V20.2181V20.2685V20.3191V20.3697V20.4205V20.4713V20.5223V20.5734V20.6246V20.6759V20.7273V20.7788V20.8304V20.8821V20.9339V20.9858V21.0378V21.09V21.1422V21.1945V21.2469V21.2994V21.352V21.4047V21.4576V21.5105V21.5634V21.6165V21.6697V21.723V21.7764V21.8298V21.8834V21.937V21.9907V22.0445V22.0984V22.1524V22.2065V22.2607V22.3149V22.3693V22.4237V22.4782V22.5328V22.5875V22.6422V22.697V22.752V22.8069V22.862V22.9172V22.9724V23.0277V23.0831V23.1385V23.1941V23.2497V23.3053V23.3611V23.4169V23.4728V23.5288V23.5848V23.6409V23.6971V23.7533V23.8096V23.866V23.9225V23.979V24.0356V24.0922V24.1489V24.2057V24.2625V24.3194V24.3763V24.4334V24.4904V24.5476V24.6047V24.662V24.7193V24.7767V24.8341V24.8916V24.9491V25.0067V25.0643V25.122V25.1797V25.2375V25.2954V25.3532V25.4112V25.4692V25.5272V25.5853V25.6434V25.7016V25.7598V25.8181V25.8764V25.9347V25.9931V26.0516V26.1101V26.1686V26.2271V26.2857V26.3444V26.4031V26.4618V26.5205V26.5793V26.6381V26.697V26.7559V26.8148V26.8738V26.9327V26.9918V27.0508V27.1099V27.169V27.2281V27.2873V27.3465V27.4057V27.465V27.5243V27.5835V27.6429V27.7022V27.7616V27.821V27.8804V27.9398V27.9993V28.0588V28.1182V28.1778V28.2373V28.2968V28.3564V28.416V28.4756V28.5352V28.5948V28.6544V28.7141V28.7737V28.8334V28.8931V28.9528V29.0125V29.0722V29.1319V29.1916V29.2513V29.311V29.3708V29.4305V29.4903V29.55V29.6098V29.6695V29.7293V29.789V29.8488V29.9085V29.9683V30.028V30.0878V30.1475V30.2073V30.267V30.3267V30.3865V30.4462V30.5059V30.5656V30.6253V30.685V30.7446V30.8043V30.8639V30.9236V30.9832V31.0428V31.1024V31.162V31.2216V31.2811V31.3406V31.4002V31.4597V31.5191V31.5786V31.638V31.6975V31.7569V31.8162V31.8756V31.9349V31.9942V32.0535V32.1128V32.172V32.2312V32.2904V32.3495V32.4087V32.4677V32.5268V32.5858V32.6448V32.7038V32.7627V32.8216V32.8805V32.9393V32.9981V33.0569V33.1156V33.1743V33.233V33.2916V33.3502V33.4087V33.4672V33.5256V33.5841V33.6424V33.7007V33.759V33.8173V33.8755V33.9336V33.9917V34.0498V34.1078V34.1657V34.2236V34.2815V34.3393V34.3971V34.4548V34.5124V34.57V34.6276V34.6851V34.7425V34.7999V34.8572C2 42.9635 5.88596 50.5791 12.4584 55.38L22.7797 62.9193L26.4101 65.5713L27.449 66.3301L27.7251 66.5318L27.7962 66.5838L27.8142 66.5969L27.8188 66.6002L27.8199 66.6011L27.8202 66.6013C27.8203 66.6013 27.8203 66.6013 29 64.9863M29 64.9863L27.8203 66.6013L29 67.4631L30.1797 66.6013L29 64.9863ZM24.0878 36.7382L25.2009 37.3512L26.2286 36.604L34.3569 30.6952L26.3149 40.945L21.6498 35.3955L24.0878 36.7382Z" stroke="url(#paint0_linear_153_355)" stroke-opacity="0.2" stroke-width="4"/>
<defs>
<linearGradient id="paint0_linear_153_355" x1="48.9493" y1="14.5596" x2="13.7394" y2="50.0727" gradientUnits="userSpaceOnUse">
<stop stop-color="#EB7F00"/>
<stop offset="1" stop-color="#32E5F9"/>
</linearGradient>
</defs>
</svg>
