<svg width="70" height="68" viewBox="0 0 70 68" fill="none" xmlns="http://www.w3.org/2000/svg">
<path d="M18.698 26.3027H4V62.7277H18.698V26.3027Z" fill="#32E5F9"/>
<path d="M20.698 26.3027V24.3027H18.698H4H2V26.3027V62.7277V64.7277H4H18.698H20.698V62.7277V26.3027Z" stroke="url(#paint0_linear_153_337)" stroke-opacity="0.2" stroke-width="4"/>
<path d="M65.3269 32.563C65.3269 28.824 62.2949 25.792 58.5559 25.792H42.3059L45.6019 13.559C46.4089 10.562 44.7529 7.07004 41.9199 5.80004L41.2069 5.47904C38.3759 4.20904 35.0069 5.48004 33.7209 8.30504C33.7209 8.30504 22.1279 30.158 22.1279 32.563V56.468C22.1279 60.207 25.1599 63.239 28.8989 63.239H51.0429C54.8469 62.09 63.0269 46.368 65.3269 37.07C65.5979 35.976 65.3269 32.563 65.3269 32.563Z" fill="#32E5F9"/>
<path d="M58.5559 23.792H44.9161L47.5331 14.0794L47.5331 14.0791C48.5954 10.1341 46.4689 5.64839 42.7394 3.97564C42.739 3.97544 42.7385 3.97523 42.7381 3.97503L42.028 3.65534L42.0255 3.65424C38.2105 1.9428 33.6892 3.63231 31.9277 7.41774L31.9202 7.43182L31.8225 7.61645C31.7371 7.77804 31.6121 8.01498 31.453 8.31718C31.1349 8.92155 30.6807 9.78711 30.1358 10.8331C29.0463 12.9244 27.5925 15.7403 26.1376 18.6337C24.6848 21.5229 23.2221 24.5071 22.1191 26.9293C21.569 28.1376 21.0968 29.2312 20.7584 30.1149C20.5897 30.5553 20.4439 30.9701 20.3376 31.3361C20.2464 31.65 20.1279 32.1091 20.1279 32.563V56.468C20.1279 61.3116 24.0554 65.239 28.8989 65.239H51.0429H51.3384L51.6212 65.1536C52.5415 64.8756 53.3581 64.2511 54.0261 63.6217C54.7301 62.9583 55.4468 62.1173 56.1553 61.1742C57.5748 59.2844 59.0795 56.826 60.5115 54.1556C63.3672 48.8302 66.065 42.4148 67.2683 37.5509C67.3923 37.0501 67.4275 36.4431 67.4405 35.9579C67.4548 35.4274 67.445 34.8536 67.4274 34.3379C67.4096 33.8185 67.3831 33.3378 67.3611 32.988C67.3501 32.8126 67.3401 32.6688 67.3329 32.568L67.3266 32.4828C67.2835 27.6761 63.3727 23.792 58.5559 23.792Z" stroke="url(#paint1_linear_153_337)" stroke-opacity="0.2" stroke-width="4"/>
<defs>
<linearGradient id="paint0_linear_153_337" x1="17.2133" y1="32.1145" x2="0.354773" y2="40.348" gradientUnits="userSpaceOnUse">
<stop stop-color="#EB7F00"/>
<stop offset="1" stop-color="#32E5F9"/>
</linearGradient>
<linearGradient id="paint1_linear_153_337" x1="61.0715" y1="14.2808" x2="27.0743" y2="44.8803" gradientUnits="userSpaceOnUse">
<stop stop-color="#EB7F00"/>
<stop offset="1" stop-color="#32E5F9"/>
</linearGradient>
</defs>
</svg>
